<?xml version="1.0" standalone="no"?>
<!DOCTYPE svg PUBLIC "-//W3C//DTD SVG 20010904//EN"
 "http://www.w3.org/TR/2001/REC-SVG-20010904/DTD/svg10.dtd">
<svg version="1.0" xmlns="http://www.w3.org/2000/svg"
 width="720.000000pt" height="1280.000000pt" viewBox="0 0 720.000000 1280.000000"
 preserveAspectRatio="xMidYMid meet">

<g transform="translate(0.000000,1280.000000) scale(0.100000,-0.100000)"
fill="#000000" stroke="none">
<path d="M3340 12693 c-19 -8 -43 -20 -54 -25 -10 -5 -27 -11 -39 -13 -11 -3
-27 -11 -37 -20 -9 -8 -38 -22 -63 -31 -26 -9 -47 -20 -47 -25 0 -12 -40 -69
-60 -87 -8 -7 -33 -22 -55 -34 -37 -19 -51 -29 -128 -90 -33 -27 -67 -87 -67
-120 0 -13 -11 -40 -25 -61 -14 -20 -40 -67 -58 -104 -30 -64 -32 -75 -33
-183 0 -69 -5 -124 -12 -137 -15 -26 -16 -123 -2 -123 16 0 12 -40 -5 -46 -10
-4 -15 -19 -15 -43 0 -29 5 -39 29 -53 37 -20 54 -6 50 44 -1 18 0 40 3 48 5
15 37 124 44 147 1 6 8 49 14 95 15 107 32 148 62 148 13 0 34 9 48 20 14 11
31 20 38 20 7 0 11 4 8 8 -7 12 62 78 105 101 20 11 34 26 34 37 0 16 8 19 48
20 30 0 55 7 68 17 26 22 89 35 169 33 36 -1 70 2 77 6 13 10 63 0 63 -13 0
-5 7 -9 16 -9 8 0 13 -4 10 -9 -8 -13 30 -21 97 -21 53 0 58 -2 68 -27 6 -16
15 -36 20 -46 6 -10 7 -22 3 -28 -3 -6 4 -21 16 -34 16 -17 21 -32 17 -50 -10
-55 36 -131 83 -137 28 -3 28 10 11 -176 -16 -182 -15 -332 3 -332 8 0 18 10
21 23 13 47 28 77 37 77 12 0 6 -45 -17 -125 -9 -33 -20 -73 -24 -89 -5 -23
-14 -32 -40 -38 -50 -14 -62 2 -54 73 6 59 6 59 -21 59 -16 0 -25 -4 -21 -10
3 -5 -3 -10 -14 -10 -12 0 -21 5 -21 11 0 5 -5 7 -11 4 -5 -4 -34 -8 -62 -9
-51 -2 -53 -1 -80 40 -15 23 -27 46 -27 51 0 11 -55 53 -69 53 -26 0 -21 -48
10 -98 29 -47 31 -55 23 -98 -8 -42 -11 -46 -24 -32 -8 8 -20 13 -27 11 -6 -2
-30 7 -52 21 -29 19 -54 26 -90 26 -28 0 -53 6 -60 13 -16 20 -4 26 34 20 19
-3 35 -1 39 6 4 6 22 11 40 11 26 0 76 29 76 44 0 8 -66 43 -93 50 -20 5 -29
2 -33 -9 -9 -22 -47 -19 -62 5 -15 24 -35 26 -52 5 -7 -8 -23 -15 -36 -15 -20
0 -24 5 -24 30 0 18 -7 33 -18 39 -18 10 -52 -8 -126 -66 -16 -13 -32 -21 -36
-18 -4 3 -13 -2 -20 -10 -7 -8 -24 -15 -39 -15 -46 0 -51 -10 -44 -83 4 -48 9
-65 16 -58 20 20 27 11 27 -38 0 -46 21 -84 37 -68 3 4 12 2 19 -4 16 -13 34
-3 34 19 1 14 3 13 13 -4 25 -42 69 -93 85 -98 10 -3 23 -19 30 -36 15 -33 52
-47 132 -51 78 -3 87 0 136 47 119 111 113 111 109 4 -5 -111 -7 -121 -46
-149 -38 -28 -114 -39 -297 -42 l-132 -3 -38 37 c-21 20 -42 37 -48 37 -6 0
-23 14 -39 30 -49 52 -59 42 -52 -52 4 -45 11 -84 17 -88 5 -3 11 -69 12 -150
2 -115 6 -144 16 -142 8 1 26 4 42 6 15 2 45 13 65 26 28 17 46 21 76 17 21
-3 41 -2 44 3 2 4 15 5 28 3 13 -3 67 5 120 16 53 12 118 21 145 21 26 0 75
10 107 21 33 12 82 22 110 21 28 0 65 5 83 11 26 9 37 8 55 -2 20 -13 21 -13
8 3 -13 16 -12 17 15 11 16 -3 39 -8 52 -11 25 -5 21 -24 -6 -24 -10 0 -33
-11 -52 -24 -19 -13 -46 -27 -60 -31 -26 -8 -79 -46 -139 -100 -51 -46 -141
-135 -141 -140 0 -2 -28 -34 -62 -71 -153 -163 -159 -168 -433 -302 -87 -42
-232 -135 -335 -215 -96 -73 -273 -257 -324 -337 -25 -39 -50 -70 -56 -70 -26
0 -18 36 28 127 56 109 75 153 103 233 21 63 23 80 9 80 -9 0 -90 -78 -90 -86
0 -7 -52 -54 -70 -64 -11 -6 -20 -16 -20 -23 0 -7 -18 -30 -39 -52 -21 -23
-49 -60 -61 -83 -12 -23 -28 -42 -35 -42 -39 0 -79 27 -124 84 -79 101 -86
119 -86 216 1 107 17 140 116 235 39 39 142 141 228 229 142 144 294 276 320
276 23 0 142 62 138 73 -5 17 -135 56 -189 56 -51 1 -141 -15 -175 -32 -28
-13 -31 -31 -4 -22 27 8 36 -12 17 -34 -9 -10 -16 -23 -14 -29 2 -5 -36 -49
-85 -97 -48 -48 -126 -138 -173 -201 -93 -124 -104 -135 -104 -105 0 11 -5 23
-11 26 -17 11 -49 -26 -49 -55 0 -18 -6 -29 -17 -32 -11 -3 -26 -27 -37 -58
-10 -29 -30 -62 -42 -73 -13 -11 -24 -24 -24 -28 0 -5 -10 -19 -22 -32 -44
-45 -74 -82 -110 -137 -88 -133 -192 -205 -276 -192 -18 2 -32 0 -32 -5 0 -16
-49 -33 -124 -43 -39 -5 -82 -12 -96 -15 -14 -3 -45 -7 -70 -10 -71 -7 -150
-24 -210 -44 -95 -33 -276 -67 -332 -62 -41 3 -48 -8 -22 -33 19 -20 -3 -17
209 -21 159 -3 202 0 370 26 221 34 390 63 458 78 27 6 52 9 56 6 5 -2 12 -31
15 -62 22 -184 80 -320 190 -445 13 -14 27 -40 31 -57 3 -17 11 -33 16 -36 5
-4 9 -27 9 -53 0 -26 7 -69 15 -96 8 -27 15 -67 15 -89 0 -24 9 -54 23 -76 21
-35 22 -46 26 -316 2 -177 -2 -348 -10 -465 -8 -102 -14 -295 -14 -430 0 -228
2 -248 21 -290 12 -25 32 -72 44 -105 13 -33 34 -81 47 -107 13 -27 24 -60 24
-75 3 -134 6 -160 22 -184 9 -14 14 -28 11 -31 -7 -8 32 -117 61 -173 12 -22
32 -45 45 -52 13 -6 32 -22 42 -35 15 -20 19 -21 31 -8 8 8 32 49 53 90 87
173 145 254 277 390 51 53 124 131 162 175 119 135 299 308 370 356 25 17 47
35 51 40 3 6 16 14 27 20 12 5 29 13 37 19 97 62 243 137 380 196 89 38 219
41 297 5 38 -17 50 -27 46 -39 -4 -14 -3 -14 5 -3 5 7 15 10 21 7 14 -9 14
-43 0 -52 -7 -4 -9 -21 -5 -42 3 -20 3 -70 -1 -111 -5 -61 -11 -79 -30 -97
-18 -17 -22 -28 -17 -53 5 -21 3 -31 -6 -31 -7 0 -10 -8 -7 -20 3 -10 1 -20
-4 -22 -5 -2 -11 -23 -13 -48 -4 -54 -15 -100 -25 -100 -4 0 -16 -29 -26 -65
-11 -36 -23 -65 -28 -65 -4 0 -13 -14 -18 -30 -6 -16 -15 -30 -20 -30 -5 0 -9
-8 -10 -17 0 -15 -2 -15 -9 2 -7 17 -9 15 -9 -11 -1 -17 -8 -37 -16 -44 -8 -7
-15 -25 -15 -41 0 -16 -4 -29 -10 -29 -5 0 -10 -13 -10 -30 0 -16 -5 -30 -10
-30 -19 0 -140 -129 -140 -150 0 -11 -4 -20 -10 -20 -5 0 -10 -13 -10 -30 0
-24 -5 -31 -27 -36 -17 -5 -28 -3 -31 4 -5 16 -23 15 -19 0 1 -8 -8 -13 -20
-12 -24 1 -32 -11 -12 -18 6 -2 1 -12 -10 -22 -12 -11 -21 -14 -21 -8 0 7 -5
12 -11 12 -5 0 -8 -4 -5 -9 10 -15 -5 -40 -19 -35 -13 5 -29 -25 -34 -66 0 -5
-10 -10 -22 -10 -11 0 -18 -3 -16 -7 6 -10 -19 -34 -27 -26 -3 4 -6 -1 -6 -11
0 -9 -4 -14 -10 -11 -6 3 -10 -5 -10 -19 0 -35 -10 -56 -27 -56 -9 0 -32 -18
-53 -40 -21 -22 -33 -40 -28 -40 5 0 -9 -18 -33 -40 -34 -31 -46 -37 -61 -29
-12 7 -18 6 -18 -1 0 -6 -4 -8 -10 -5 -5 3 -10 -3 -10 -14 0 -12 -4 -21 -10
-21 -5 0 -10 -7 -10 -15 0 -8 -3 -15 -7 -14 -5 1 -18 -2 -30 -6 -17 -5 -23
-15 -23 -36 0 -16 3 -29 8 -29 24 -1 33 -17 21 -43 -11 -25 -21 -31 -42 -28
-4 0 -6 -5 -5 -11 2 -7 -7 -14 -19 -16 -15 -2 -23 -10 -23 -22 0 -11 -8 -27
-19 -37 -10 -10 -22 -37 -26 -61 -4 -23 -13 -49 -21 -56 -8 -8 -14 -19 -14
-25 0 -6 -6 -11 -14 -11 -23 0 -35 -24 -41 -85 -3 -32 -11 -67 -17 -79 -7 -11
-13 -27 -14 -35 -2 -8 -7 -17 -12 -20 -18 -12 -32 -50 -32 -85 0 -20 -4 -44
-9 -54 -43 -87 -45 -101 -27 -131 6 -8 1 -20 -13 -35 l-22 -21 -20 24 c-19 23
-19 23 -19 2 0 -12 -10 -32 -23 -44 -13 -12 -36 -39 -51 -59 -25 -33 -30 -36
-51 -26 -13 6 -26 20 -28 32 -3 17 -5 16 -6 -6 -1 -19 -7 -28 -23 -31 -14 -3
-7 -5 17 -6 33 -1 37 -3 22 -12 -10 -6 -32 -7 -49 -4 -39 9 -124 -30 -132 -61
-3 -12 -14 -24 -25 -27 -11 -2 -29 -24 -42 -48 -12 -24 -28 -48 -35 -52 -8 -4
-14 -16 -14 -26 0 -9 -9 -27 -20 -38 -10 -12 -22 -34 -26 -50 -9 -38 -31 -55
-55 -42 -21 11 -26 45 -8 51 13 4 2 78 -12 78 -5 0 -8 -5 -7 -12 2 -7 -2 -12
-9 -13 -13 0 -42 -34 -43 -48 0 -5 5 -5 10 -2 6 3 10 2 10 -3 0 -5 -9 -12 -19
-15 -11 -3 -22 -17 -26 -37 -9 -39 -13 -35 -24 21 -9 43 -9 43 -10 -23 -1 -36
2 -73 5 -82 7 -19 31 -21 37 -3 2 6 6 -1 9 -16 3 -17 0 -34 -8 -42 -18 -17
-17 -23 1 -41 17 -18 20 -34 5 -34 -19 0 -29 -44 -15 -60 21 -24 25 -67 10
-104 -16 -37 -22 -126 -11 -144 4 -7 20 -19 36 -27 28 -14 29 -14 46 14 10 16
33 38 53 49 20 10 35 24 33 30 -1 7 9 12 22 12 18 0 27 -8 35 -31 6 -17 9 -35
6 -39 -2 -4 -7 -22 -9 -41 -5 -38 -34 -121 -35 -101 -1 6 -5 12 -11 12 -5 0
-7 -7 -4 -15 4 -8 2 -21 -3 -28 -12 -16 -16 -70 -8 -116 6 -38 7 -39 63 -47
31 -4 66 -8 77 -9 47 -2 95 -18 95 -32 0 -8 9 -17 20 -20 40 -11 62 -77 62
-180 -1 -51 -4 -99 -9 -106 -4 -6 -8 -16 -8 -22 -2 -19 -26 -70 -57 -118 -22
-34 -28 -51 -20 -59 11 -11 -20 -67 -60 -112 -10 -10 -15 -22 -13 -26 3 -4 -2
-13 -10 -20 -8 -7 -15 -28 -15 -46 0 -18 -9 -49 -19 -67 -25 -44 -33 -60 -66
-132 -16 -33 -38 -73 -50 -90 -13 -18 -25 -52 -28 -84 -4 -30 -13 -61 -22 -71
-8 -9 -15 -21 -15 -27 0 -5 -7 -25 -16 -43 -9 -18 -19 -53 -22 -78 -4 -32 -10
-46 -23 -49 -12 -4 -19 -15 -20 -32 0 -14 -3 -35 -5 -46 -4 -20 -5 -31 -4
-134 0 -38 -4 -57 -14 -63 -8 -4 -17 -31 -21 -58 -6 -45 -9 -50 -27 -44 -13 4
-19 1 -17 -8 1 -7 0 -20 -4 -28 -10 -27 -18 -84 -22 -157 -4 -74 -19 -116 -54
-145 -14 -12 -21 -30 -21 -52 0 -19 -5 -38 -10 -41 -6 -3 -10 -14 -10 -23 0
-9 -9 -28 -20 -42 -11 -14 -20 -37 -20 -52 0 -15 -5 -39 -10 -53 -18 -48 -40
-169 -40 -222 0 -29 -4 -53 -10 -53 -15 0 -12 -111 4 -157 7 -21 13 -63 12
-92 -2 -28 1 -54 6 -57 4 -3 8 -21 8 -40 0 -24 -5 -34 -15 -34 -8 0 -15 -4
-15 -8 0 -5 -14 -7 -30 -4 -44 6 -89 -15 -96 -47 -3 -14 -8 -33 -11 -41 -4 -8
-5 -21 -4 -29 1 -8 -3 -18 -11 -22 -16 -10 54 -1 96 12 16 5 56 9 88 9 33 0
68 5 79 10 15 8 23 7 35 -5 18 -18 16 -18 51 -3 28 11 37 14 50 17 4 0 -1 7
-11 14 -17 12 -14 47 5 47 5 0 9 15 9 33 0 60 10 77 42 77 23 0 29 -4 24 -16
-3 -9 -6 -24 -6 -34 0 -10 -7 -25 -15 -34 -16 -15 -4 -33 15 -21 5 3 10 -3 10
-14 0 -12 5 -21 11 -21 5 0 8 4 4 10 -11 17 7 58 27 63 30 8 23 46 -34 189
-30 76 -21 246 17 333 7 17 16 41 20 55 4 14 41 94 81 178 40 84 90 195 110
245 20 51 49 121 66 157 16 36 34 74 38 85 17 39 50 110 59 125 12 21 117 239
158 330 61 133 70 154 87 205 10 27 21 54 25 60 5 5 19 42 31 80 12 39 29 77
37 86 19 22 53 90 53 106 0 17 44 37 64 30 19 -8 23 -93 4 -99 -10 -4 -3 -78
19 -188 3 -14 5 -36 5 -50 0 -14 6 -33 15 -42 8 -9 12 -22 8 -27 -3 -6 -1 -11
4 -11 7 0 10 -34 8 -101 -3 -86 -2 -98 9 -78 10 18 14 20 18 9 9 -27 17 -94
19 -162 1 -36 4 -62 8 -57 9 14 45 -32 60 -76 16 -50 17 -54 8 -88 -10 -34 -1
-60 17 -53 15 6 28 -10 31 -39 1 -11 5 -35 9 -54 4 -22 2 -36 -6 -41 -15 -10
1 -66 19 -62 6 1 11 -4 12 -10 1 -14 4 -31 14 -76 3 -18 2 -33 -4 -37 -6 -3
-11 -14 -10 -23 0 -14 2 -13 9 3 7 16 9 11 9 -20 1 -58 69 -272 70 -223 2 35
31 7 31 -29 0 -19 -4 -32 -9 -28 -5 3 -11 -3 -13 -12 -4 -21 16 -154 31 -210
19 -67 14 -249 -10 -333 -11 -41 -24 -79 -29 -85 -4 -5 -10 -30 -12 -55 -6
-62 -60 -284 -71 -291 -5 -4 -7 -15 -5 -25 3 -17 15 -19 102 -22 109 -3 166
13 164 46 -2 22 31 92 43 92 13 0 11 37 -1 45 -14 9 -3 46 18 63 24 19 30 152
8 184 -21 29 -20 66 2 91 14 17 15 20 1 15 -12 -5 -16 1 -17 24 0 16 2 27 5
24 3 -3 12 -1 19 5 8 6 44 12 81 14 72 2 93 17 93 63 0 31 60 88 102 96 18 4
32 14 35 26 7 26 29 26 43 -1 22 -40 21 -11 0 63 -12 40 -25 78 -29 83 -18 25
-44 142 -66 295 -9 63 -23 141 -31 173 -8 32 -12 62 -9 67 3 4 0 39 -5 77 -6
37 -13 91 -16 118 -6 47 -22 143 -45 263 -9 53 -21 155 -39 347 -6 55 -14 240
-19 410 -6 171 -14 344 -20 385 -14 113 -41 240 -58 280 -9 19 -15 41 -14 49
2 8 -4 28 -12 45 -8 17 -21 44 -28 60 -17 35 -16 144 1 206 8 31 12 142 12
365 0 421 8 550 38 607 13 24 37 70 54 103 17 33 34 62 38 63 5 2 8 11 9 20 0
10 18 51 39 92 63 119 93 186 129 285 31 83 111 240 140 273 20 23 75 102 106
151 6 9 44 68 87 131 70 107 92 147 131 240 32 76 68 200 88 305 29 144 31
393 5 575 -10 69 -22 152 -27 185 -24 176 -34 213 -183 640 -63 179 -85 230
-127 293 -16 24 -29 46 -29 50 0 4 -18 27 -40 52 -22 24 -43 53 -46 65 -4 11
-24 37 -46 59 -39 40 -55 74 -44 101 10 26 36 29 67 6 16 -12 29 -17 29 -11 0
5 -4 10 -10 10 -5 0 -14 17 -21 39 -9 29 -9 47 1 75 14 42 87 156 101 156 5 0
9 13 9 29 0 17 4 32 9 35 4 3 3 24 -3 46 -7 28 -7 46 0 57 17 27 29 10 26 -34
-2 -34 0 -43 12 -43 15 0 21 -12 17 -33 -1 -4 14 -36 34 -71 19 -35 35 -72 35
-84 0 -12 -12 -46 -26 -77 -17 -35 -24 -61 -19 -72 7 -16 9 -14 18 10 19 48
37 33 38 -30 5 -275 32 -426 104 -588 13 -27 35 -81 49 -120 15 -38 43 -102
62 -142 19 -40 34 -78 34 -85 0 -20 30 -59 40 -53 9 6 -1 46 -25 100 -23 51
-42 117 -54 190 -19 111 -32 168 -42 190 -5 11 -20 58 -35 105 -14 47 -32 95
-40 107 -9 14 -15 53 -16 103 0 44 -4 83 -8 85 -5 3 -8 105 -7 227 0 214 6
274 41 383 1 6 6 27 11 48 4 20 11 37 16 37 45 0 88 334 60 461 -6 25 -13 67
-15 94 -3 28 -10 68 -16 90 -5 22 -10 108 -10 191 0 135 -2 153 -19 168 -18
17 -20 16 -45 -17 -14 -19 -26 -37 -26 -41 0 -5 -8 -20 -19 -34 -10 -15 -24
-44 -30 -65 -7 -20 -21 -41 -30 -47 -11 -6 -20 -25 -24 -50 -9 -69 -58 -85
-95 -31 -38 54 -52 114 -52 214 0 92 20 228 40 272 5 11 27 63 50 116 22 53
49 105 59 115 9 11 22 27 27 36 5 9 42 41 82 73 59 45 83 57 122 62 30 3 50 1
54 -6 4 -6 20 -11 35 -11 15 0 33 -6 40 -12 10 -11 17 -7 37 16 14 16 23 35
20 43 -3 8 -6 21 -6 29 0 8 -8 14 -19 14 -10 0 -24 7 -31 15 -13 16 -12 22 19
125 5 18 1 38 -16 72 -23 44 -23 48 -9 76 14 28 14 32 -3 54 -16 18 -21 20
-24 8 -3 -8 -8 -23 -11 -32 -3 -10 -10 -18 -16 -18 -16 0 -12 40 5 46 11 5 15
22 15 68 0 33 4 68 10 76 10 16 12 15 28 -15 10 -17 11 -17 12 -3 0 9 -4 20
-10 23 -5 3 -10 13 -10 22 0 9 -16 33 -35 54 -25 28 -35 48 -35 73 0 45 -18
93 -38 101 -15 5 -14 9 7 24 25 19 21 44 -6 34 -14 -6 -15 2 -9 63 5 54 3 77
-9 100 -8 16 -15 41 -15 56 0 15 -5 48 -12 72 -10 40 -10 47 6 65 22 24 15 53
-19 79 -24 19 -25 24 -40 214 -7 100 -16 129 -40 138 -12 4 -34 23 -49 40 -24
29 -27 39 -24 99 2 36 7 66 11 66 5 0 16 -22 25 -48 20 -58 36 -65 40 -17 3
27 -2 39 -20 55 -13 11 -33 37 -43 59 -31 60 -66 90 -126 105 -30 8 -65 21
-79 30 -34 23 -82 40 -185 67 -104 27 -127 28 -175 7z m277 -88 c28 -12 58
-52 48 -63 -4 -4 -48 18 -55 28 -3 3 -22 16 -42 29 -21 12 -38 25 -38 28 0 7
45 -5 87 -22z m340 -607 c-3 -8 -6 -5 -6 6 -1 11 2 17 5 13 3 -3 4 -12 1 -19z
m-877 -587 c0 -12 56 -31 91 -31 39 0 39 -30 0 -53 -35 -20 -195 -35 -205 -18
-11 16 7 41 55 77 46 35 59 40 59 25z m-73 -127 c-3 -3 -12 -4 -19 -1 -8 3 -5
6 6 6 11 1 17 -2 13 -5z m173 -55 c25 -6 59 -10 75 -10 42 1 143 -31 149 -46
12 -29 -142 -60 -159 -32 -4 6 -14 8 -22 5 -16 -7 -122 21 -137 35 -6 5 -18 9
-27 9 -18 0 -33 26 -23 41 7 12 88 11 144 -2z m937 -30 c2 -12 -1 -18 -7 -14
-5 3 -10 16 -10 27 0 26 13 16 17 -13z m-373 -17 c-4 -18 -10 -32 -15 -32 -5
0 -9 -10 -9 -22 0 -16 -3 -19 -11 -11 -9 9 -6 23 11 58 25 51 33 54 24 7z
m-67 -124 c-3 -8 -6 -5 -6 6 -1 11 2 17 5 13 3 -3 4 -12 1 -19z m533 -235 c0
-20 -3 -24 -11 -16 -7 7 -9 19 -6 27 10 24 17 19 17 -11z m30 -222 c0 -17 -12
-41 -21 -41 -5 0 -9 11 -9 25 0 16 6 25 15 25 8 0 15 -4 15 -9z m-2420 -631
c0 -5 -4 -10 -10 -10 -5 0 -10 5 -10 10 0 6 5 10 10 10 6 0 10 -4 10 -10z
m2070 -1269 c0 -17 -4 -33 -10 -36 -6 -4 -10 8 -10 29 0 20 5 36 10 36 6 0 10
-13 10 -29z m40 -1337 c0 -8 -4 -12 -10 -9 -5 3 -10 10 -10 16 0 5 5 9 10 9 6
0 10 -7 10 -16z m-623 -1226 c-3 -8 -6 -5 -6 6 -1 11 2 17 5 13 3 -3 4 -12 1
-19z m-50 -2730 c-3 -8 -6 -5 -6 6 -1 11 2 17 5 13 3 -3 4 -12 1 -19z m-560
-160 c-3 -8 -6 -5 -6 6 -1 11 2 17 5 13 3 -3 4 -12 1 -19z m323 -2020 c0 -10
-7 -18 -15 -18 -11 0 -15 11 -15 38 1 35 2 36 15 18 8 -11 15 -28 15 -38z m57
-100 c-3 -8 -6 -5 -6 6 -1 11 2 17 5 13 3 -3 4 -12 1 -19z m538 -288 c3 -5 1
-10 -4 -10 -6 0 -11 5 -11 10 0 6 2 10 4 10 3 0 8 -4 11 -10z m-1795 -276 c0
-8 -4 -14 -10 -14 -5 0 -10 9 -10 21 0 11 5 17 10 14 6 -3 10 -13 10 -21z"/>
<path d="M2941 11963 c-48 -19 -84 -83 -38 -68 77 25 164 10 121 -22 -10 -7
-41 -13 -69 -13 -45 0 -55 -4 -83 -33 l-32 -32 26 -50 c32 -64 40 -71 58 -56
11 9 16 9 22 0 4 -7 2 -15 -4 -17 -16 -5 -15 -32 1 -32 7 0 18 5 25 12 8 8 15
8 26 -1 16 -13 106 -9 147 8 13 5 41 28 63 50 32 35 37 43 26 56 -10 13 -11
20 -1 39 20 36 10 66 -29 87 -134 71 -208 92 -259 72z m84 -223 c0 -8 -10 -16
-22 -18 -18 -3 -23 2 -23 18 0 16 5 21 23 18 12 -2 22 -10 22 -18z"/>
<path d="M3530 11863 c-25 -2 -64 -8 -87 -14 -42 -11 -43 -13 -62 -78 -31
-105 -34 -118 -21 -126 6 -4 19 0 29 9 19 17 31 12 31 -14 0 -21 26 -45 76
-70 45 -23 82 -25 109 -7 11 7 36 20 55 27 83 32 120 78 99 124 -11 24 -48 44
-123 67 -37 11 -38 13 -20 26 21 15 65 10 102 -13 23 -15 42 -11 42 8 0 6 -13
24 -30 39 -31 30 -54 33 -200 22z m0 -198 c0 -8 -7 -15 -15 -15 -8 0 -15 7
-15 15 0 8 7 15 15 15 8 0 15 -7 15 -15z"/>
<path d="M3217 11694 c-9 -10 -9 -64 1 -64 19 1 33 19 30 40 -3 24 -19 36 -31
24z"/>
<path d="M2667 11373 c-12 -11 -8 -23 8 -23 8 0 15 7 15 15 0 16 -12 20 -23 8z"/>
<path d="M2650 11141 c0 -47 13 -77 38 -89 37 -17 82 -16 82 3 0 29 -30 75
-48 75 -10 0 -27 7 -38 15 -26 19 -34 19 -34 -4z"/>
<path d="M5886 10232 c-8 -13 -10 -125 -2 -149 10 -31 334 -349 353 -345 8 2
41 21 72 42 31 21 198 126 371 235 173 108 322 203 330 211 23 22 -653 20
-742 -2 -68 -18 -189 -15 -226 5 -24 13 -148 15 -156 3z"/>
<path d="M0 10180 c0 -20 5 -30 15 -30 9 0 20 -10 26 -23 6 -13 35 -34 69 -50
39 -19 57 -33 54 -42 -8 -19 14 -29 32 -14 11 9 18 9 26 1 9 -9 8 -12 -5 -12
-9 0 -17 -7 -17 -15 0 -18 5 -19 29 -3 25 16 65 -16 104 -83 25 -44 32 -50 53
-45 13 4 24 2 24 -3 0 -5 13 -14 29 -19 22 -8 28 -15 24 -30 -4 -16 2 -21 29
-25 18 -3 46 -9 61 -13 19 -4 39 -1 61 11 l34 18 -22 22 c-34 36 -73 59 -231
139 -82 42 -156 83 -165 91 -9 8 -24 15 -32 15 -9 0 -18 4 -20 8 -1 4 -36 32
-75 61 -40 30 -73 58 -73 62 0 5 -7 9 -15 9 -10 0 -15 -10 -15 -30z"/>
<path d="M3690 8319 c0 -9 -3 -31 -6 -48 -7 -34 5 -41 22 -13 8 12 7 25 -2 47
-7 17 -13 23 -14 14z"/>
<path d="M4626 7775 c-3 -8 -1 -25 4 -37 8 -20 9 -18 9 15 1 39 -3 47 -13 22z"/>
<path d="M4194 7338 c4 -18 11 -34 16 -36 6 -2 10 -15 10 -28 0 -13 4 -24 8
-24 5 0 14 -18 21 -40 16 -55 29 -58 17 -4 -6 24 -14 44 -18 44 -5 0 -8 11 -8
24 0 14 -4 27 -9 30 -4 3 -11 19 -14 36 -4 16 -12 30 -18 30 -8 0 -9 -11 -5
-32z"/>
<path d="M4283 7109 c3 -24 13 -75 22 -114 9 -38 21 -95 25 -125 5 -30 16 -89
24 -130 12 -61 14 -68 15 -35 1 54 -17 183 -40 280 -10 44 -21 97 -25 118 -9
55 -28 61 -21 6z"/>
<path d="M4671 6563 c-1 -16 -6 -20 -21 -16 -11 3 -20 0 -20 -5 0 -6 -8 -19
-19 -29 -27 -26 -44 -83 -30 -99 10 -12 -24 -14 -205 -14 l-216 0 0 -3200 0
-3200 1050 0 c1014 0 1050 1 1050 18 0 11 -9 29 -20 42 -11 13 -20 29 -20 36
0 7 -7 20 -17 29 -9 9 -18 39 -21 66 -3 32 -9 49 -18 49 -11 0 -12 23 -7 123
4 92 3 129 -7 147 -15 28 -15 123 0 128 20 7 9 21 -20 27 -23 5 -30 12 -30 31
0 17 -6 24 -20 24 -13 0 -20 7 -20 20 0 13 -7 20 -19 20 -16 0 -18 9 -20 76
-1 60 -6 80 -21 97 -11 11 -20 17 -20 13 0 -4 -7 -1 -15 8 -8 8 -15 30 -15 48
0 47 -10 56 -52 50 -37 -4 -38 -5 -38 -48 l0 -44 -40 0 c-36 0 -40 3 -40 25 0
23 -4 25 -40 25 -27 0 -40 -4 -40 -14 0 -8 -16 -17 -37 -21 -21 -4 -32 -10
-25 -12 18 -7 16 -83 -3 -83 -8 0 -15 -6 -15 -12 -1 -16 -45 -68 -58 -68 -5 0
-23 -7 -41 -16 -17 -9 -38 -13 -46 -10 -9 3 -15 -1 -15 -9 0 -8 -6 -15 -14
-15 -8 0 -17 -6 -19 -12 -4 -8 -6 -7 -6 4 -1 21 -41 12 -41 -9 0 -9 -5 -11
-12 -7 -10 6 -10 5 -1 -7 17 -21 -4 -79 -29 -79 -10 0 -18 -6 -18 -13 0 -18
-24 -67 -32 -67 -5 0 -8 -18 -8 -40 0 -22 -4 -40 -9 -40 -13 0 -81 -67 -74
-74 4 -3 -8 -6 -25 -6 -26 0 -32 -4 -33 -22 -1 -22 -1 -22 -9 2 -5 17 -8 19
-9 8 -1 -10 -5 -18 -11 -18 -5 0 -10 -12 -10 -26 0 -14 -4 -23 -10 -19 -5 3
-10 1 -10 -4 0 -6 -4 -11 -10 -11 -5 0 -10 7 -10 15 0 22 -41 19 -47 -4 -6
-25 -40 -41 -93 -44 -25 -2 -60 -11 -79 -20 -41 -20 -49 -21 -65 -5 -56 56
-47 290 15 428 60 132 111 198 225 290 83 69 139 103 294 181 170 85 447 189
506 189 11 0 25 5 31 11 6 6 33 11 60 13 27 1 55 6 63 11 8 5 68 11 132 13
104 4 125 2 180 -18 72 -26 116 -56 171 -114 41 -43 87 -131 88 -169 0 -12 4
-31 9 -42 7 -19 8 -18 19 7 24 62 42 141 66 293 14 87 28 161 31 164 3 3 21 6
40 7 39 1 43 -14 20 -71 -14 -32 -13 -35 1 -35 9 0 27 10 40 22 13 12 26 19
29 15 7 -6 4 -13 -21 -57 -20 -34 -2 -37 43 -8 130 85 212 141 242 168 47 42
90 73 90 65 0 -20 -28 -49 -90 -94 -67 -49 -74 -60 -73 -108 1 -7 -3 -13 -8
-13 -5 0 -9 -7 -9 -16 0 -9 3 -14 8 -12 89 41 164 83 190 107 30 28 32 34 32
100 l0 70 -55 6 c-36 5 -60 3 -69 -4 -11 -9 -15 -7 -19 11 -4 12 -2 25 4 28 5
4 7 14 4 22 -4 10 1 17 14 21 15 3 18 10 14 27 -5 19 -3 21 14 16 22 -7 41 18
22 29 -5 4 -3 12 5 20 8 8 12 23 9 34 -3 10 0 22 6 25 12 8 5 52 -10 72 -5 6
-7 13 -4 16 3 3 -1 11 -10 18 -8 7 -15 18 -15 25 0 7 -7 15 -15 19 -8 3 -15
11 -15 18 0 12 -43 38 -62 38 -4 0 4 -21 18 -47 54 -101 66 -205 25 -230 -23
-15 -45 5 -35 31 4 9 1 16 -6 16 -7 0 -10 8 -7 20 3 11 1 20 -4 20 -5 0 -9 -7
-9 -15 0 -9 -7 -18 -15 -21 -8 -4 -15 -14 -15 -23 0 -16 -21 -37 -92 -91 -28
-22 -61 -29 -41 -9 6 6 9 18 6 26 -5 12 -1 14 14 9 12 -4 25 -1 33 9 9 11 9
15 1 15 -7 0 -9 5 -6 10 4 6 11 8 16 4 14 -9 39 15 32 32 -3 8 1 14 11 14 15
0 21 12 17 33 -1 4 6 15 14 24 12 12 13 18 4 29 -8 10 -8 14 -1 14 6 0 9 7 6
15 -4 9 0 15 7 15 11 0 11 3 -1 11 -10 7 -11 12 -3 15 39 16 -48 204 -94 204
-7 0 -13 5 -13 10 0 6 -12 10 -26 10 -14 0 -23 4 -19 10 7 11 -8 14 -18 4 -7
-7 24 -44 38 -44 15 0 75 -57 68 -64 -3 -3 0 -12 6 -20 7 -9 15 -42 18 -75 5
-57 4 -61 -25 -90 -34 -34 -53 -33 -71 5 -6 13 -19 28 -28 31 -21 8 -73 60
-73 73 0 4 -14 23 -31 40 -17 17 -29 34 -25 37 6 6 -32 43 -45 43 -4 0 -11 10
-15 23 -4 12 -11 25 -16 28 -4 3 -10 20 -13 38 -4 36 -15 55 -15 28 0 -10 -4
-17 -9 -17 -6 0 -8 9 -6 20 2 12 -3 21 -16 25 -10 4 -19 11 -19 16 0 5 -9 9
-21 9 -12 0 -23 8 -26 20 -3 11 -12 20 -19 20 -8 0 -14 10 -14 25 0 16 -6 25
-16 25 -8 0 -22 7 -30 15 -9 8 -11 15 -5 15 6 0 11 7 11 15 0 9 -6 12 -16 8
-9 -3 -19 -2 -23 4 -19 27 -72 53 -113 53 -37 1 -46 5 -68 35 -14 19 -33 35
-42 35 -10 0 -18 7 -18 15 0 20 -36 19 -44 -1 -3 -9 -6 -31 -6 -49 0 -18 -4
-35 -9 -37 -5 -1 -12 -42 -15 -91 -3 -48 -9 -95 -14 -104 -6 -9 -7 -33 -5 -54
6 -39 -15 -129 -30 -129 -4 0 -23 6 -41 14 -25 11 -43 31 -71 81 -59 105 -75
158 -90 304 -18 166 -58 469 -85 651 -52 337 -53 353 -55 620 -1 205 -6 281
-18 335 -39 164 -8 365 79 512 10 18 25 32 33 30 8 -1 16 5 18 13 4 13 3 13
-6 0 -7 -10 -11 -11 -11 -3 0 11 77 53 97 53 15 0 63 25 63 33 0 4 10 7 23 6
20 0 21 -1 3 -8 -19 -7 -19 -8 2 -13 12 -4 20 -2 16 3 -3 5 5 9 18 10 22 0 22
1 3 10 -14 7 -6 8 30 4 28 -2 80 -7 117 -11 36 -4 82 -4 102 0 33 6 35 9 21
22 -18 19 -20 28 -2 18 6 -4 3 2 -8 13 -11 11 -42 28 -70 38 -52 19 -137 91
-160 135 -27 52 -37 212 -15 234 7 7 10 3 10 -10 0 -11 11 -31 25 -44 13 -12
22 -27 19 -32 -3 -5 3 -12 15 -15 12 -3 21 -9 21 -13 0 -4 22 -18 49 -31 40
-18 48 -26 39 -37 -9 -11 -6 -12 15 -7 17 5 27 3 27 -4 0 -6 -5 -11 -12 -11
-26 0 6 -15 35 -16 61 -3 85 6 97 36 12 29 6 55 -10 45 -4 -3 -22 1 -40 9 -25
10 -29 14 -15 19 22 9 9 27 -20 27 -13 0 -26 4 -29 9 -3 4 -17 6 -31 3 -15 -2
-25 0 -25 7 0 7 -9 9 -25 5 -18 -4 -25 -2 -25 8 0 22 12 29 27 16 11 -8 16 -9
21 -1 5 7 38 10 92 9 98 -3 109 -1 119 28 6 15 2 25 -14 38 -21 16 -26 17 -65
3 -50 -18 -165 -21 -155 -4 4 6 -2 17 -14 25 -12 9 -21 26 -21 40 0 17 -5 24
-20 24 -11 0 -23 7 -26 15 -4 8 -12 15 -20 15 -8 0 -14 5 -14 10 0 6 -6 10
-13 10 -7 0 -28 16 -47 35 -19 20 -54 49 -77 66 l-43 30 0 -30 c0 -21 6 -32
20 -36 11 -4 18 -11 14 -16 -4 -6 -11 -6 -20 2 -12 9 -14 5 -14 -30 0 -30 4
-41 15 -41 21 0 19 -16 -6 -34 -17 -11 -22 -26 -23 -73 -3 -79 -9 -87 -58 -79
-23 4 -46 2 -53 -4 -8 -6 -21 -7 -36 -2 -13 5 -38 6 -55 2 -25 -6 -31 -5 -27
6 3 8 -2 17 -11 20 -9 3 -14 10 -11 14 3 4 -14 20 -37 36 -23 16 -56 44 -74
62 -28 30 -32 31 -45 16 -7 -9 -23 -20 -36 -25 -35 -13 -28 -26 18 -34 33 -6
43 -13 56 -41 15 -31 15 -35 -2 -54 -10 -11 -23 -20 -29 -20 -17 0 -46 55 -44
81 4 33 -20 35 -25 2 -3 -23 -4 -22 -6 10 -1 29 -5 37 -20 37 -11 0 -57 37
-104 83 -76 74 -87 89 -105 148 -34 110 -35 129 -10 174 33 57 65 72 116 57
45 -14 76 -38 66 -53 -3 -6 3 -13 15 -16 12 -3 21 -11 21 -18 0 -7 8 -12 18
-11 9 2 23 -4 29 -13 11 -14 13 -14 19 7 3 12 9 22 13 22 8 0 36 -62 33 -76
-1 -6 7 -19 18 -29 11 -10 20 -31 20 -46 0 -60 29 -104 68 -104 41 1 52 30 52
134 1 193 -1 236 -12 242 -7 4 -5 8 3 12 12 4 11 7 -1 16 -12 9 -13 12 -1 20
11 7 11 9 0 14 -10 4 -10 6 -1 6 6 1 12 7 12 15 0 16 71 41 143 50 26 3 58 11
70 18 24 13 29 15 53 17 11 1 13 7 9 21 -3 10 -1 29 5 41 9 15 9 24 1 32 -6 6
-11 20 -11 30 0 10 -10 27 -22 37 -21 17 -21 18 -5 44 12 17 26 26 45 26 15 0
38 9 52 20 32 25 52 25 68 0 14 -22 57 -27 69 -7 11 18 59 47 78 47 9 0 28 -8
42 -17 30 -20 29 -22 7 32 -5 13 52 15 485 15 l491 0 0 25 0 25 -1255 0 -1255
0 -1 53 c0 54 -16 149 -18 110z m-5 -238 c-3 -14 -8 -34 -11 -45 -8 -25 13
-27 22 -2 7 18 22 32 36 32 5 0 1 -10 -7 -22 -9 -12 -16 -32 -16 -44 0 -23 22
-48 33 -37 10 10 15 -16 21 -106 4 -76 3 -84 -15 -88 -11 -3 -16 -10 -12 -17
4 -6 -5 -3 -20 7 -27 17 -27 17 -39 -8 -8 -19 -8 -31 0 -48 6 -12 12 -31 14
-42 4 -27 38 -33 38 -7 0 11 6 24 13 30 9 8 12 -8 12 -76 0 -76 -2 -87 -18
-90 -28 -6 -67 -43 -67 -64 0 -10 4 -18 8 -18 4 0 12 -14 17 -32 6 -17 15 -33
21 -35 16 -5 25 49 11 65 -7 10 -6 17 6 30 16 15 17 15 17 -5 0 -12 5 -25 10
-28 7 -4 9 -24 5 -48 -3 -23 1 -91 8 -152 15 -120 11 -145 -21 -160 -26 -12
-27 -26 -5 -77 20 -44 23 -46 42 -16 12 19 11 23 -8 37 l-21 16 22 14 c36 23
48 -7 44 -108 -4 -90 -13 -131 -26 -131 -5 0 -7 -14 -5 -31 3 -18 2 -36 -2
-42 -12 -19 -8 -97 5 -97 6 0 12 -7 12 -15 0 -8 -4 -15 -9 -15 -5 0 -9 -25 -8
-55 1 -30 3 -55 5 -55 21 0 192 161 192 180 0 15 94 30 203 33 81 3 111 7 118
18 6 10 9 10 9 1 0 -6 5 -11 10 -10 6 2 16 -8 23 -21 6 -13 15 -23 20 -22 4 1
38 -15 77 -35 62 -32 76 -35 134 -32 35 2 62 0 60 -4 -3 -5 1 -8 8 -8 7 0 -6
-10 -30 -21 -82 -41 -183 -170 -230 -297 -55 -148 -116 -481 -152 -827 -18
-163 -57 -346 -76 -352 -6 -2 -28 65 -49 149 -21 84 -56 203 -77 263 -21 61
-38 118 -38 128 0 9 -4 17 -10 17 -5 0 -10 9 -10 20 0 27 -21 70 -31 64 -5 -3
-9 -19 -9 -35 0 -17 4 -28 10 -24 5 3 3 -7 -5 -21 -8 -17 -11 -34 -6 -43 5 -9
12 -68 15 -131 3 -63 8 -131 11 -150 17 -129 20 -189 10 -204 -7 -12 -6 -19 5
-26 8 -5 11 -12 7 -16 -4 -4 -17 1 -29 12 -19 17 -21 17 -15 1 20 -55 -126 94
-161 164 -12 24 -38 71 -57 104 -62 105 -131 248 -153 315 -49 150 -65 354
-38 491 12 67 12 67 -8 55 -30 -16 -66 -48 -66 -58 0 -5 -11 -26 -25 -47 -39
-58 -66 -156 -70 -251 -5 -136 -26 -266 -44 -280 -3 -3 -19 -29 -35 -59 -22
-41 -26 -58 -19 -75 31 -67 43 -98 43 -112 0 -8 6 -17 14 -20 24 -9 76 -120
63 -133 -7 -7 -11 -58 -10 -144 1 -72 -2 -145 -7 -162 -5 -16 -11 -48 -14 -70
-9 -70 -16 -109 -30 -155 -8 -25 -17 -65 -21 -90 -4 -25 -13 -56 -19 -70 -7
-14 -12 -40 -12 -57 1 -18 -2 -33 -5 -33 -12 0 -21 -52 -28 -160 -4 -58 -8
785 -9 1873 l-2 1977 230 0 230 0 -4 -25z m69 6 c-3 -6 -11 -11 -16 -11 -5 0
-4 6 3 14 14 16 24 13 13 -3z m90 3 c19 -12 25 -25 25 -51 0 -27 -4 -34 -15
-30 -9 4 -18 -5 -27 -28 -17 -48 -31 -44 -23 5 6 34 4 40 -11 40 -14 0 -15 3
-6 12 7 7 12 25 12 40 0 32 10 35 45 12z m198 -4 c-3 -10 -11 -24 -18 -30 -9
-7 -12 -3 -13 20 0 23 4 30 18 30 13 0 17 -5 13 -20z m-133 -111 c0 7 5 9 11
5 6 -3 8 -16 5 -28 -3 -13 -2 -36 3 -52 11 -37 0 -106 -17 -112 -7 -2 -12 5
-12 17 0 12 -5 21 -11 21 -5 0 -7 5 -4 10 3 6 1 10 -4 10 -17 0 -13 43 5 69
12 17 13 26 5 34 -6 6 -11 17 -11 25 0 12 3 12 15 2 11 -9 15 -9 15 -1z m535
-29 c3 -6 -1 -7 -9 -4 -18 7 -21 14 -7 14 6 0 13 -4 16 -10z m-595 -20 c0 -5
-4 -10 -10 -10 -5 0 -10 5 -10 10 0 6 5 10 10 10 6 0 10 -4 10 -10z m535 -40
c17 -33 10 -40 -11 -12 -13 17 -19 42 -9 42 2 0 11 -13 20 -30z m-412 -33 c2
-6 -2 -18 -9 -25 -12 -11 -14 -8 -14 13 0 26 14 34 23 12z m-123 -123 c0 -49
13 -52 32 -6 l11 27 6 -24 c7 -28 -24 -101 -43 -101 -7 0 -7 -3 2 -8 7 -5 15
-38 18 -78 l6 -69 -21 33 c-12 18 -21 39 -21 47 0 8 -5 15 -11 15 -6 0 -7 8
-3 23 5 12 7 59 6 105 -2 51 1 82 8 82 5 0 10 -21 10 -46z m335 -42 c-7 -8
-35 7 -35 18 0 6 7 6 20 -2 10 -7 17 -14 15 -16z m-265 -107 c0 -8 -4 -15 -10
-15 -5 0 -10 7 -10 15 0 8 5 15 10 15 6 0 10 -7 10 -15z m-97 -107 c8 -55 -8
-54 -19 0 -4 19 -2 32 4 32 5 0 12 -15 15 -32z m51 -30 c5 -25 3 -54 -6 -78
-3 -8 -11 -34 -17 -57 -7 -24 -16 -43 -21 -43 -17 0 -11 37 11 75 17 28 20 46
15 81 -6 45 9 64 18 22z m36 -34 c0 -8 -5 -12 -10 -9 -6 4 -8 11 -5 16 9 14
15 11 15 -7z m-19 -102 c-6 -12 -11 -37 -11 -57 0 -22 -4 -34 -10 -30 -15 10
-12 50 7 84 19 33 31 35 14 3z m490 -387 c-9 -30 -9 -30 -10 10 -1 25 2 36 9
29 6 -6 6 -21 1 -39z m899 -21 c0 -9 -28 -3 -46 11 -17 13 -16 14 14 4 17 -6
32 -13 32 -15z m-898 -44 c-5 -35 -22 -30 -22 6 0 13 6 24 13 24 9 0 12 -10 9
-30z m-522 -40 c0 -10 -4 -22 -10 -25 -6 -4 -10 7 -10 25 0 18 4 29 10 25 6
-3 10 -15 10 -25z m576 -20 c8 0 13 -4 10 -9 -3 -5 1 -12 10 -15 9 -4 14 -9
11 -12 -9 -10 -77 47 -77 64 0 12 4 11 16 -6 8 -12 22 -22 30 -22z m-529 -37
c12 -38 3 -83 -17 -83 -12 0 -13 17 -1 24 5 4 5 22 0 43 -11 47 -11 53 -1 53
4 0 12 -17 19 -37z m233 -33 c0 -5 -2 -10 -4 -10 -3 0 -8 5 -11 10 -3 6 -1 10
4 10 6 0 11 -4 11 -10z m-265 -10 c3 -5 1 -10 -4 -10 -6 0 -11 5 -11 10 0 6 2
10 4 10 3 0 8 -4 11 -10z m-10 -2042 c33 -68 74 -148 91 -178 18 -30 37 -82
44 -115 7 -33 23 -91 37 -128 l24 -68 -36 -67 c-40 -73 -66 -102 -89 -102 -19
0 -92 28 -229 88 -93 40 -108 50 -103 67 6 23 55 198 85 301 11 40 29 96 40
125 11 30 29 87 41 127 12 39 25 72 29 72 4 0 34 -55 66 -122z m-560 -1058
c28 -7 88 -25 135 -40 47 -16 104 -34 128 -40 29 -7 42 -16 42 -28 0 -10 -19
-41 -42 -69 -95 -113 -215 -285 -292 -418 l-46 -80 0 347 c0 273 3 347 13 344
6 -2 35 -10 62 -16z m2725 -20 c0 -10 -9 -24 -20 -30 -14 -7 -20 -7 -20 0 0 5
5 10 10 10 6 0 10 9 10 20 0 11 5 20 10 20 6 0 10 -9 10 -20z m-255 -120 c3
-5 1 -10 -4 -10 -6 0 -11 5 -11 10 0 6 2 10 4 10 3 0 8 -4 11 -10z m60 0 c-3
-5 -13 -10 -21 -10 -8 0 -12 5 -9 10 3 6 13 10 21 10 8 0 12 -4 9 -10z m223
-51 c3 -16 -36 -44 -46 -33 -4 4 -1 9 6 11 6 3 12 14 12 25 0 22 23 20 28 -3z
m-65 -8 c5 -22 0 -31 -18 -31 -8 0 -10 10 -7 25 5 30 18 33 25 6z m-163 5 c0
-3 -4 -8 -10 -11 -5 -3 -10 -1 -10 4 0 6 5 11 10 11 6 0 10 -2 10 -4z m103
-16 c-3 -11 -13 -20 -22 -19 -10 0 -11 2 -3 6 6 2 12 11 12 19 0 8 4 14 9 14
5 0 7 -9 4 -20z m-53 6 c0 -3 -4 -8 -10 -11 -5 -3 -10 -1 -10 4 0 6 5 11 10
11 6 0 10 -2 10 -4z m-40 -250 c0 -3 -4 -8 -10 -11 -5 -3 -10 -1 -10 4 0 6 5
11 10 11 6 0 10 -2 10 -4z m-2586 -960 c12 -52 12 -59 -5 -79 -18 -22 -18 -21
-19 62 0 46 3 82 6 79 3 -3 11 -31 18 -62z m806 -141 c0 -8 -4 -15 -10 -15 -5
0 -10 7 -10 15 0 8 5 15 10 15 6 0 10 -7 10 -15z"/>
<path d="M4590 6121 c0 -6 5 -13 10 -16 6 -3 10 1 10 9 0 9 -4 16 -10 16 -5 0
-10 -4 -10 -9z"/>
<path d="M4643 6075 c-34 -35 -45 -72 -18 -61 8 3 15 1 15 -3 0 -5 -5 -11 -12
-13 -9 -3 -9 -6 0 -12 7 -4 14 3 18 21 4 15 11 31 17 34 8 6 21 70 14 69 -1
-1 -17 -16 -34 -35z"/>
<path d="M4568 5989 c-3 -83 5 -113 16 -58 9 48 7 139 -3 139 -5 0 -11 -36
-13 -81z"/>
<path d="M4388 5775 c-35 -30 -35 -41 1 -60 22 -11 28 -20 24 -35 -4 -13 -11
-19 -20 -16 -10 4 -13 0 -11 -17 2 -18 10 -23 47 -25 42 -3 43 -2 37 20 -4 13
-10 48 -14 78 -8 55 -17 80 -30 80 -4 0 -19 -12 -34 -25z"/>
<path d="M4551 5663 c-32 -49 -35 -66 -10 -71 10 -2 21 16 33 53 11 30 17 57
14 60 -3 3 -20 -15 -37 -42z"/>
<path d="M4732 5470 c0 -14 2 -19 5 -12 2 6 2 18 0 25 -3 6 -5 1 -5 -13z"/>
<path d="M4741 5124 c0 -11 3 -14 6 -6 3 7 2 16 -1 19 -3 4 -6 -2 -5 -13z"/>
<path d="M4680 5080 c0 -5 5 -10 10 -10 6 0 10 5 10 10 0 6 -4 10 -10 10 -5 0
-10 -4 -10 -10z"/>
<path d="M5994 5968 c-36 -12 -120 -82 -89 -75 11 3 55 15 98 28 77 23 78 23
112 5 19 -11 35 -22 35 -27 0 -4 -21 -10 -47 -13 -177 -21 -270 -86 -198 -139
14 -10 38 -19 54 -20 18 -1 27 -7 24 -14 -3 -7 1 -13 9 -13 8 0 20 6 27 13 11
10 13 9 8 -4 -3 -9 0 -22 6 -28 14 -14 77 -15 77 -1 0 6 7 10 15 10 8 0 15 5
15 10 0 6 7 10 16 10 11 0 15 6 11 20 -6 25 -7 25 43 -1 23 -12 42 -20 44 -18
2 2 6 45 9 95 8 119 -2 135 -103 158 -77 18 -120 19 -166 4z"/>
<path d="M6373 5881 c-12 -15 -25 -40 -29 -54 -3 -15 -10 -30 -15 -33 -16 -10
-9 -55 12 -86 16 -22 24 -27 33 -18 8 8 6 14 -7 21 -23 13 -13 29 18 29 40 0
73 21 85 53 13 38 13 37 -4 37 -8 0 -16 -5 -18 -11 -2 -5 -16 -12 -31 -13 -22
-3 -27 1 -27 18 1 11 7 32 15 46 18 31 18 40 3 39 -7 0 -23 -13 -35 -28z"/>
<path d="M5170 5780 c-50 -50 4 -260 68 -260 9 0 1 15 -22 40 -31 34 -36 47
-36 89 0 84 9 108 46 126 43 20 43 25 -1 25 -22 0 -43 -8 -55 -20z"/>
<path d="M5252 5758 c-27 -27 -9 -65 26 -54 25 8 29 66 4 66 -10 0 -23 -5 -30
-12z"/>
<path d="M5349 5705 c-1 -3 -3 -9 -4 -15 -1 -5 -3 -19 -4 -29 -1 -25 -29 -53
-43 -45 -7 5 -5 11 5 19 22 16 23 65 1 65 -29 0 -84 -40 -84 -61 0 -42 38 -88
74 -89 10 0 31 -11 48 -25 16 -14 34 -25 39 -25 13 0 11 44 -3 59 -12 11 -17
45 -17 119 0 27 -8 44 -12 27z"/>
<path d="M5796 5652 c-7 -12 3 -42 14 -42 18 0 22 22 7 37 -9 9 -17 11 -21 5z"/>
<path d="M2830 5619 c0 -5 5 -7 10 -4 6 3 10 8 10 11 0 2 -4 4 -10 4 -5 0 -10
-5 -10 -11z"/>
<path d="M6236 5510 c-32 -49 -33 -65 -1 -86 18 -12 35 -14 65 -9 25 4 46 3
54 -4 18 -15 56 19 56 51 0 33 -10 41 -29 24 -33 -29 -59 -29 -78 0 -10 16
-16 36 -15 46 6 32 -24 19 -52 -22z"/>
<path d="M5356 5414 c-8 -22 4 -40 15 -23 11 18 11 39 0 39 -5 0 -12 -7 -15
-16z"/>
<path d="M6463 4275 c3 -40 14 -65 54 -125 57 -83 66 -112 83 -251 21 -166 0
-240 -84 -294 l-23 -15 -7 -428 c-8 -426 -8 -427 15 -487 16 -42 38 -76 78
-116 59 -59 81 -84 81 -94 0 -12 92 -145 101 -145 24 0 68 147 74 250 6 104
13 128 52 185 90 131 140 214 155 255 66 178 64 368 -3 501 -29 58 -97 156
-137 198 -46 48 -89 103 -123 156 -105 163 -263 396 -289 425 l-31 35 4 -50z"/>
<path d="M6507 3993 c-2 -14 -5 -80 -5 -147 -1 -119 -1 -120 15 -86 9 19 20
58 24 85 4 28 11 69 14 93 6 35 5 42 -9 42 -9 0 -16 6 -16 14 0 27 -18 26 -23
-1z"/>
<path d="M2818 1789 c8 -21 24 -28 29 -12 2 4 -6 14 -17 20 -17 11 -18 11 -12
-8z"/>
<path d="M2860 1626 c0 -2 7 -17 15 -32 l15 -29 0 33 c0 22 -5 32 -15 32 -8 0
-15 -2 -15 -4z"/>
<path d="M5965 1079 l-30 -7 31 -1 c16 0 35 -6 42 -13 8 -8 15 -8 27 2 28 23
-7 33 -70 19z"/>
<path d="M3277 503 c-4 -3 -7 -11 -7 -17 0 -6 5 -5 12 2 6 6 9 14 7 17 -3 3
-9 2 -12 -2z"/>
<path d="M1302 247 c-5 -6 -13 -22 -16 -34 -6 -20 -4 -23 18 -23 22 0 26 5 26
29 0 34 -13 47 -28 28z"/>
</g>
</svg>
