<?xml version="1.0" standalone="no"?>
<!DOCTYPE svg PUBLIC "-//W3C//DTD SVG 20010904//EN"
 "http://www.w3.org/TR/2001/REC-SVG-20010904/DTD/svg10.dtd">
<svg version="1.0" xmlns="http://www.w3.org/2000/svg"
 width="720.000000pt" height="1280.000000pt" viewBox="0 0 720.000000 1280.000000"
 preserveAspectRatio="xMidYMid meet">

<g transform="translate(0.000000,1280.000000) scale(0.100000,-0.100000)"
fill="#000000" stroke="none">
<path d="M2181 12718 c-35 -38 -41 -41 -76 -35 -24 4 -48 1 -64 -7 -43 -23
-135 -46 -180 -46 l-43 0 23 -20 24 -20 -25 -20 c-49 -39 -57 -26 -34 53 3 9
2 17 -3 17 -18 0 -31 -17 -37 -47 -6 -28 -14 -35 -49 -45 -23 -6 -54 -22 -69
-34 -15 -12 -40 -25 -55 -28 -19 -4 -35 -19 -48 -43 -16 -29 -29 -39 -61 -48
-23 -5 -48 -15 -55 -21 -8 -6 -33 -19 -56 -29 -51 -22 -82 -62 -91 -117 -4
-22 -14 -44 -22 -48 -156 -75 -168 -87 -177 -173 -5 -51 -10 -61 -48 -96 -23
-21 -48 -40 -55 -43 -25 -8 -1 -26 44 -32 55 -9 70 -26 63 -72 -7 -41 13 -56
42 -30 25 22 60 20 88 -6 22 -21 25 -21 52 -5 38 22 70 12 78 -24 6 -34 9 -34
53 -12 l33 16 41 -43 40 -43 34 20 c24 13 40 33 51 64 24 63 103 179 143 210
30 23 204 89 236 89 6 0 21 9 32 20 14 14 33 20 66 20 44 0 49 -3 136 -87 144
-141 161 -156 205 -187 23 -15 48 -38 56 -50 35 -54 62 -177 45 -208 -5 -11
-5 -25 2 -37 19 -36 -9 -34 -67 4 -55 36 -57 37 -157 37 -129 1 -166 -15 -166
-76 0 -15 -11 -41 -25 -58 -14 -16 -25 -41 -25 -55 0 -22 3 -24 28 -18 21 4
33 1 43 -11 11 -14 11 -18 1 -21 -26 -9 -32 -40 -16 -86 15 -43 19 -47 69 -62
88 -25 166 -16 229 28 42 30 47 39 31 57 -13 15 -12 19 13 37 24 18 31 19 52
8 47 -25 30 -176 -36 -312 -42 -87 -44 -96 -43 -175 1 -46 -3 -95 -9 -109 -6
-15 -8 -30 -5 -33 4 -3 2 -16 -4 -29 -6 -12 -15 -34 -21 -49 -6 -15 -29 -39
-51 -54 -22 -14 -47 -37 -56 -50 -8 -13 -22 -24 -30 -24 -8 0 -15 -4 -15 -10
0 -5 -5 -10 -10 -10 -6 0 -43 -24 -83 -54 -60 -44 -72 -58 -74 -84 -1 -19 3
-32 12 -36 8 -3 15 -14 15 -24 0 -10 7 -27 15 -38 8 -10 15 -28 15 -39 1 -11
4 -14 7 -8 5 14 82 -62 84 -84 3 -26 4 -31 10 -37 3 -4 1 -25 -5 -47 -9 -34
-14 -39 -33 -34 -12 3 -25 1 -28 -5 -3 -5 -21 -10 -40 -10 -18 0 -40 -6 -47
-13 -7 -8 -35 -16 -62 -19 -27 -3 -51 -11 -55 -17 -4 -6 -22 -12 -40 -13 -24
-2 -36 2 -45 17 -26 45 -86 141 -95 151 -5 6 -11 40 -14 75 -6 71 -23 135 -37
144 -6 4 -10 16 -10 28 0 13 -13 33 -31 47 -34 27 -140 135 -182 185 -47 57
-60 122 -66 345 l-6 205 -70 7 c-38 4 -99 10 -135 13 -62 5 -236 28 -310 41
-32 5 -36 3 -47 -25 -8 -23 -18 -31 -35 -31 -34 1 -108 37 -143 70 -125 118
-128 120 -196 122 -62 3 -64 2 -61 -21 1 -13 9 -37 16 -55 8 -17 17 -64 21
-105 4 -51 13 -83 26 -99 19 -24 19 -25 -1 -57 -11 -18 -20 -40 -20 -49 0 -9
-8 -20 -17 -23 -9 -4 -24 -14 -34 -22 -9 -9 -29 -24 -43 -34 -14 -10 -25 -21
-23 -25 1 -5 -11 -20 -26 -34 -16 -15 -27 -35 -25 -45 2 -11 -2 -17 -10 -15
-18 3 -40 -20 -47 -51 -4 -15 -14 -32 -23 -39 -10 -8 -13 -9 -9 -1 4 6 3 14
-2 17 -14 9 -21 -8 -11 -24 9 -14 -7 -39 -65 -104 -62 -70 -72 -82 -80 -101
-4 -11 -9 -23 -9 -26 -1 -4 -16 -20 -33 -37 -18 -16 -33 -37 -33 -45 0 -9 -3
-24 -7 -34 -3 -10 10 3 30 30 20 26 37 49 37 52 0 2 11 16 25 31 14 15 25 32
25 38 0 6 19 32 42 56 24 25 58 63 77 85 19 22 90 98 158 168 133 138 153 149
153 78 0 -61 -16 -85 -86 -125 -74 -44 -83 -64 -64 -138 6 -27 9 -59 6 -71 -4
-12 -33 -41 -65 -64 -55 -40 -59 -46 -65 -93 -4 -27 -4 -72 0 -100 7 -49 6
-50 -37 -89 -34 -30 -39 -38 -21 -34 12 3 22 9 22 14 0 12 27 11 35 -1 12 -19
-24 -60 -50 -60 -24 0 -25 -2 -19 -39 5 -29 2 -41 -11 -52 -54 -44 -105 -99
-105 -113 0 -8 -11 -18 -24 -22 -13 -3 -28 -16 -35 -30 -6 -13 -15 -24 -21
-24 -16 0 -12 -20 11 -57 16 -25 24 -31 34 -23 16 13 31 -18 15 -34 -14 -14
-13 -46 3 -46 8 0 7 -4 -3 -10 -13 -8 -12 -10 3 -10 11 0 17 -7 16 -22 0 -13
-3 -17 -6 -10 -14 36 -23 0 -23 -97 0 -98 2 -109 19 -114 13 -3 21 -17 26 -46
7 -42 15 -47 75 -43 18 1 50 -16 50 -27 0 -5 -16 -28 -35 -52 -52 -61 -45 -75
37 -71 77 4 86 -3 68 -59 -12 -36 -11 -44 10 -88 12 -27 31 -52 41 -54 21 -6
27 -51 9 -62 -18 -11 -52 -87 -42 -94 5 -3 23 -35 39 -71 33 -70 30 -107 -7
-97 -13 3 -19 -2 -23 -20 -6 -31 17 -41 43 -18 21 19 40 13 41 -13 0 -11 3 -9
10 7 5 14 7 31 5 38 -3 7 1 28 9 47 8 20 15 51 15 71 0 29 6 39 32 55 17 10
35 17 40 14 15 -10 8 -51 -12 -69 -29 -27 -37 -82 -14 -100 18 -14 18 -15 -4
-33 -45 -35 -45 -91 0 -176 11 -21 21 -57 21 -80 0 -40 0 -40 10 -12 9 27 -6
98 -36 163 -10 22 -5 57 13 83 9 13 14 11 33 -12 25 -31 37 -27 62 21 15 29
15 40 5 71 -13 40 -11 81 5 81 6 0 11 -16 13 -36 4 -42 14 -44 37 -8 15 22 15
25 2 20 -13 -5 -17 5 -22 47 -9 68 -4 90 19 94 17 4 18 -1 12 -42 -4 -26 -3
-46 2 -46 5 0 12 33 15 73 4 40 13 86 20 102 8 17 27 58 43 92 16 35 34 63 39
63 12 0 38 29 55 59 6 12 17 21 25 21 7 0 41 31 75 69 59 66 63 69 99 64 33
-5 39 -2 44 17 3 13 10 19 17 15 13 -8 42 14 34 26 -3 5 -10 6 -16 3 -7 -5 -8
8 -4 41 l8 48 -29 -21 c-15 -11 -43 -34 -60 -51 -40 -36 -49 -27 -22 25 35 69
53 85 105 88 58 3 91 35 71 67 -6 10 -22 19 -35 19 -19 0 -21 3 -13 18 5 9 7
30 4 46 -4 22 -2 27 8 24 8 -3 16 -13 18 -24 5 -27 21 -44 42 -44 11 0 19 -7
19 -15 0 -19 5 -19 36 1 30 20 34 17 54 -49 16 -50 17 -51 29 -28 7 13 8 21 3
17 -6 -3 -14 -1 -18 5 -9 15 34 48 62 49 11 0 26 6 32 12 7 7 28 11 47 9 34
-2 35 -2 35 33 0 20 -4 36 -10 36 -5 0 -10 7 -10 16 0 9 5 13 13 10 6 -3 20
-9 30 -12 14 -5 17 -13 12 -33 -18 -72 -18 -81 0 -81 13 0 16 6 11 25 -5 18
-2 27 8 31 28 11 35 -5 20 -41 -14 -33 -10 -65 7 -65 5 0 12 -1 16 -2 5 -2 6
14 5 35 -4 38 7 47 38 27 12 -7 12 -12 0 -34 -10 -20 -11 -31 -2 -51 7 -15 17
-23 22 -20 6 3 10 1 10 -5 0 -6 5 -8 11 -5 7 5 5 13 -5 24 -25 27 -20 58 9 63
29 6 35 2 35 -24 0 -13 7 -18 25 -18 20 0 25 5 25 25 0 19 -9 29 -37 41 -21
10 -41 18 -45 18 -21 3 -17 16 5 16 29 0 38 20 10 20 -17 1 -17 2 -1 13 11 9
14 18 7 28 -15 24 -11 99 6 105 10 4 13 14 9 30 -5 18 -2 24 10 24 9 0 16 5
16 10 0 6 15 10 33 10 19 0 48 7 66 16 18 9 53 18 78 21 25 3 56 9 68 13 13 5
66 12 119 16 85 6 99 5 117 -12 19 -17 21 -17 48 -1 37 22 50 22 45 0 -7 -30
10 -47 35 -34 29 16 42 5 35 -26 -6 -24 -5 -25 23 -19 21 5 34 2 43 -9 10 -12
10 -15 -4 -15 -9 0 -16 -4 -16 -10 0 -5 5 -10 10 -10 11 0 31 -15 53 -38 36
-39 45 -49 61 -75 14 -23 23 -28 42 -23 33 9 49 -1 33 -21 -11 -13 -8 -14 21
-11 31 3 36 -1 58 -40 26 -47 24 -72 -7 -72 -30 0 -55 -55 -54 -119 1 -33 -4
-63 -13 -77 -14 -21 -14 -24 10 -45 29 -25 35 -59 10 -59 -28 0 -54 20 -54 43
0 26 -25 65 -35 55 -4 -3 -1 -16 5 -29 7 -12 10 -37 7 -55 -6 -37 6 -52 27
-35 27 22 86 -19 86 -59 0 -6 -13 -16 -30 -21 -32 -12 -36 -19 -19 -36 8 -8 8
-17 0 -31 -6 -10 -7 -23 -3 -26 4 -4 -5 -5 -21 -1 -17 5 -27 3 -27 -4 0 -7
-10 -16 -22 -22 -19 -8 -15 -9 20 -5 35 3 41 2 32 -9 -7 -8 -9 -23 -6 -33 10
-31 -17 -46 -71 -38 l-48 6 23 -22 c20 -21 24 -21 54 -8 18 7 59 15 92 16 61
2 75 12 76 49 0 21 16 53 23 45 2 -3 9 -31 16 -62 7 -32 17 -58 22 -58 12 0
11 6 -3 30 -17 26 0 40 18 15 7 -11 35 -42 61 -68 46 -46 47 -48 29 -62 -11
-8 -34 -15 -51 -15 -19 0 -35 -7 -43 -20 -11 -17 -10 -20 7 -20 11 0 24 -8 30
-17 13 -24 47 -4 44 26 -3 23 4 26 26 12 7 -5 11 -13 8 -18 -3 -5 3 -17 15
-27 21 -18 21 -18 -28 -67 -27 -26 -61 -53 -76 -60 -16 -6 -28 -15 -28 -20 0
-5 -4 -9 -10 -9 -15 0 -12 33 5 56 20 27 18 44 -5 44 -23 0 -42 -29 -59 -90
-7 -25 -22 -63 -33 -85 -14 -26 -17 -40 -9 -43 6 -2 8 -8 5 -14 -4 -7 -9 -6
-14 2 -6 9 -13 9 -28 1 -11 -6 -31 -11 -44 -11 -23 -1 -23 -1 -3 -16 20 -15
20 -16 -8 -40 -18 -15 -40 -24 -62 -24 -47 0 -51 14 -10 36 39 21 45 34 15 34
-11 0 -20 5 -20 10 0 6 -9 1 -20 -10 -11 -11 -27 -20 -35 -20 -9 0 -15 -7 -13
-16 2 -10 -3 -19 -9 -21 -8 -3 -13 5 -14 19 -1 17 -3 18 -6 6 -6 -23 -29 -23
-42 -1 -13 24 -19 16 -27 -35 -6 -40 -5 -42 19 -42 16 0 31 -8 37 -20 6 -11
21 -20 33 -20 12 0 28 -4 36 -9 11 -7 10 -11 -7 -20 -29 -15 -82 -14 -116 4
-36 19 -36 19 -36 -4 0 -35 -31 -33 -117 10 -46 23 -83 46 -83 52 0 14 32 36
53 37 9 0 17 5 17 10 0 6 -25 10 -55 10 -43 0 -56 4 -64 19 -6 10 -35 31 -66
46 -64 33 -88 55 -59 55 11 0 26 5 34 10 10 7 -5 8 -46 4 -49 -5 -68 -3 -92
12 -30 17 -30 18 -12 31 26 18 25 30 0 38 -15 5 -19 12 -15 25 4 14 -1 20 -24
25 -37 8 -51 1 -51 -26 0 -43 -40 -7 -60 54 -6 20 -21 42 -32 48 -19 10 -19 9
-13 -20 4 -17 4 -31 1 -31 -3 0 -26 14 -51 32 -24 17 -47 30 -49 27 -10 -10
37 -69 55 -69 10 0 19 -4 19 -10 0 -5 6 -10 13 -10 7 0 29 -14 49 -30 20 -17
43 -28 51 -24 10 3 16 -4 20 -23 4 -21 0 -32 -16 -45 -12 -9 -20 -18 -17 -20
13 -10 63 -28 76 -28 8 0 34 -8 57 -19 23 -10 50 -21 61 -25 10 -3 16 -12 13
-19 -3 -8 13 -23 41 -38 26 -13 56 -31 67 -40 34 -28 137 -90 130 -79 -20 32
92 -19 133 -61 21 -22 30 -39 26 -51 -3 -10 -1 -18 5 -18 6 0 11 5 11 10 0 14
32 12 54 -5 23 -17 11 -38 -19 -32 -17 3 -25 -1 -28 -15 -3 -10 -14 -18 -24
-18 -15 0 -18 -8 -18 -41 0 -31 -6 -45 -25 -60 -27 -20 -75 -25 -85 -9 -3 6
-14 10 -24 10 -14 0 -23 13 -32 45 -14 49 -27 56 -46 26 -11 -17 -8 -23 17
-45 19 -16 28 -30 24 -40 -4 -9 -1 -23 6 -31 10 -12 15 -12 36 2 14 9 26 14
27 12 2 -2 11 -16 20 -31 10 -16 22 -28 27 -28 6 0 5 9 -2 20 -17 27 -3 36 57
34 32 -1 48 3 52 12 6 16 33 19 33 3 0 -6 6 -9 13 -6 6 2 12 17 12 33 0 24 6
31 35 40 19 6 36 16 38 23 6 17 26 13 45 -9 24 -29 22 -38 -21 -79 -22 -20
-41 -43 -44 -51 -4 -13 -8 -13 -31 -1 -25 13 -29 12 -66 -17 -22 -18 -46 -29
-54 -26 -19 7 -27 -27 -20 -87 7 -56 -7 -64 -46 -28 -12 12 -25 18 -29 14 -13
-13 25 -60 76 -95 29 -19 55 -45 58 -58 4 -12 15 -27 25 -33 19 -10 26 -59 13
-92 -5 -15 -24 -13 -106 13 -16 4 -28 6 -28 3 0 -29 81 -93 130 -103 21 -4 25
-10 22 -35 l-3 -30 26 28 c14 15 25 39 25 53 0 16 6 24 18 24 27 0 42 -20 42
-58 0 -19 9 -45 20 -59 11 -14 20 -32 20 -39 0 -23 -20 -16 -32 11 -16 36 -33
25 -33 -20 0 -22 -5 -40 -12 -42 -7 -3 -13 2 -13 11 0 22 -17 20 -25 -3 -3
-11 -12 -21 -19 -24 -15 -6 -33 49 -38 112 -2 27 -10 37 -37 52 -19 10 -52 35
-73 56 -32 31 -40 35 -48 23 -5 -8 -10 -18 -10 -22 0 -5 -7 -8 -16 -8 -9 0
-29 -11 -46 -25 -16 -14 -35 -25 -43 -25 -16 0 -40 -28 -40 -49 0 -10 -10 -17
-28 -19 -15 -2 -25 -8 -22 -13 10 -15 43 -10 85 11 50 25 76 25 120 -1 34 -21
34 -22 13 -30 -14 -5 -21 -14 -17 -23 3 -9 -3 -17 -15 -21 -21 -6 -29 -25 -11
-25 12 0 50 -59 50 -77 0 -7 -7 -13 -15 -13 -19 0 -32 -28 -29 -62 2 -20 -2
-28 -13 -28 -11 0 -14 6 -9 25 5 20 3 25 -13 25 -11 0 -23 -4 -26 -10 -3 -5
-1 -10 4 -10 6 0 11 -11 11 -24 0 -31 28 -38 81 -20 56 20 79 11 79 -29 1 -18
7 -43 15 -57 8 -14 14 -35 15 -48 0 -17 5 -22 18 -20 13 3 16 12 14 38 -2 19
-3 49 -4 67 -1 18 -7 35 -15 37 -7 3 -13 15 -13 26 0 16 6 20 36 20 28 0 35 3
30 15 -3 8 -2 14 2 13 13 -2 107 45 136 69 40 33 58 15 24 -25 -21 -25 -24
-39 -22 -88 2 -65 28 -203 46 -247 6 -15 8 -30 5 -34 -12 -11 -37 19 -37 43 0
27 -24 33 -34 8 -15 -40 -6 -63 29 -75 26 -10 34 -17 30 -30 -4 -12 1 -22 15
-29 26 -14 27 -64 0 -92 l-19 -21 6 37 c8 48 -11 48 -59 -3 -49 -53 -118 -67
-118 -25 0 8 25 26 55 41 54 27 69 43 41 43 -8 0 -16 7 -18 16 -2 14 -8 13
-34 -9 -17 -15 -34 -24 -37 -21 -3 4 7 33 24 66 16 32 27 63 24 68 -3 5 -19
16 -36 24 -24 12 -34 13 -50 3 -10 -6 -19 -15 -19 -19 0 -12 -38 -10 -45 2 -3
6 -13 10 -20 10 -21 0 -7 -28 17 -36 16 -5 18 -11 13 -32 -4 -15 -13 -34 -20
-42 -15 -17 -44 -129 -37 -148 2 -7 12 -12 23 -12 22 0 23 -3 7 -46 -7 -21
-20 -35 -36 -39 -26 -6 -61 -42 -62 -63 0 -7 11 -17 25 -22 28 -11 31 -20 13
-38 -7 -7 -8 -12 -3 -13 6 -1 19 -2 30 -3 16 -1 20 -7 17 -34 -1 -18 5 -44 14
-58 25 -37 4 -54 -35 -31 -16 9 -36 17 -45 17 -11 0 -17 14 -22 50 -8 64 -30
61 -27 -4 1 -44 0 -46 -20 -40 -12 3 -26 10 -32 15 -12 12 -65 12 -65 0 0 -5
14 -23 30 -39 17 -17 30 -33 30 -36 0 -3 -20 -6 -45 -6 -31 0 -47 5 -51 15 -7
18 -31 20 -36 3 -4 -12 -28 -3 -28 11 0 4 9 18 20 31 11 13 20 34 20 47 0 12
5 23 10 23 6 0 10 6 10 14 0 9 -7 12 -19 9 -18 -4 -19 -1 -11 33 11 47 5 57
-11 18 -19 -50 -26 -59 -40 -59 -8 0 -16 14 -19 35 -5 28 -8 19 -17 -50 -14
-102 -8 -143 17 -135 25 8 50 -4 50 -24 0 -27 -31 -112 -49 -133 -8 -10 -26
-18 -38 -18 -25 0 -28 -7 -13 -30 8 -12 11 -12 28 3 25 23 29 22 37 -13 9 -40
25 -38 25 3 0 43 27 98 51 104 10 3 22 18 28 34 10 29 55 59 68 45 4 -4 -5
-18 -20 -32 -37 -34 -86 -138 -87 -183 0 -14 -28 -40 -42 -41 -5 0 -8 7 -8 15
0 8 -4 15 -10 15 -13 0 -13 -36 0 -61 15 -26 23 -24 45 13 10 18 30 44 44 58
62 61 92 103 88 121 -3 10 2 27 10 39 12 16 21 19 47 15 19 -4 49 0 76 10 25
9 58 19 73 22 16 3 35 16 44 29 10 16 22 23 33 19 13 -4 27 6 49 34 29 36 30
41 14 49 -16 10 -16 12 2 49 11 21 26 42 33 46 7 4 20 25 29 45 9 20 19 40 21
45 2 4 -8 7 -22 7 -57 0 -19 56 58 85 25 10 46 22 46 26 0 17 80 89 100 89 21
0 33 15 92 115 41 70 69 109 111 155 12 14 36 42 51 63 26 34 84 99 151 167
14 14 25 31 25 38 0 7 5 12 10 12 6 0 10 7 10 15 0 8 9 15 19 15 12 0 21 9 25
25 6 25 6 25 26 5 25 -25 37 -25 45 0 3 11 10 20 15 20 4 0 10 9 13 21 3 12
10 18 16 14 6 -3 11 2 11 12 0 11 6 27 13 38 13 17 15 17 35 -3 37 -37 15 -81
-43 -82 -21 0 -26 -3 -16 -9 9 -6 10 -11 2 -15 -6 -4 -15 -4 -21 -1 -5 3 -10
-1 -10 -9 0 -8 -8 -20 -17 -26 -12 -8 -14 -13 -6 -16 7 -3 9 -12 6 -20 -3 -8
-1 -14 5 -14 18 0 6 -62 -15 -79 -12 -9 -24 -27 -28 -41 -10 -37 -46 -110 -53
-110 -4 0 -13 -14 -21 -31 -12 -27 -12 -33 0 -40 8 -5 17 -9 22 -9 4 0 7 -4 7
-10 0 -5 -16 -10 -35 -10 -30 0 -35 -3 -35 -24 0 -23 -41 -76 -59 -76 -15 0
-19 -22 -9 -55 6 -24 4 -33 -9 -43 -22 -16 -24 -32 -5 -55 9 -9 12 -20 9 -24
-4 -3 -7 -1 -7 5 0 7 -4 12 -10 12 -5 0 -10 -9 -10 -19 0 -11 -6 -22 -12 -25
-7 -3 -1 -3 15 0 27 6 39 -10 14 -19 -8 -3 -1 -14 19 -30 41 -35 82 -96 87
-132 5 -33 -5 -59 -36 -92 -13 -15 -18 -31 -14 -49 5 -30 0 -54 -13 -54 -4 0
-11 16 -14 35 -4 19 -13 47 -21 62 -18 35 -83 102 -110 114 -11 5 -33 18 -50
28 -16 11 -36 20 -44 20 -8 1 -22 8 -32 17 -15 13 -24 14 -49 6 -24 -9 -30 -8
-30 4 0 8 -10 14 -24 14 -13 0 -29 6 -35 14 -15 18 -63 27 -78 14 -18 -15 -16
-28 5 -29 13 0 12 -3 -6 -11 -37 -18 -26 -31 56 -64 23 -10 42 -22 42 -26 0
-5 11 -13 25 -18 14 -5 25 -16 25 -25 0 -19 -29 -20 -36 0 -9 24 -34 18 -34
-8 0 -13 -5 -28 -11 -34 -13 -13 16 -63 37 -63 8 0 17 -7 20 -15 4 -8 14 -15
25 -15 10 0 23 -9 29 -20 6 -11 17 -20 24 -20 8 0 19 -6 25 -14 9 -11 8 -18
-4 -30 -22 -22 -42 -20 -48 4 -3 12 -14 20 -25 20 -11 0 -22 7 -26 15 -5 15
-46 22 -46 8 1 -11 26 -43 33 -43 11 0 62 -52 59 -61 -3 -14 50 -69 67 -69 12
0 9 -6 -9 -20 l-25 -20 31 0 c39 0 57 -20 51 -57 -4 -27 -4 -27 -6 5 0 21 -6
32 -16 32 -17 0 -20 -31 -4 -47 7 -7 7 -23 -2 -54 -14 -49 -29 -73 -29 -46 0
20 -16 23 -24 5 -3 -7 -3 -3 -1 8 4 17 0 23 -20 28 -27 7 -55 -11 -55 -36 0
-8 -5 -19 -12 -26 -9 -9 -9 -15 0 -24 7 -7 12 -25 12 -41 0 -24 -3 -28 -20
-24 -12 3 -20 0 -20 -7 0 -6 -8 -12 -19 -12 -20 0 -19 8 5 55 7 14 11 28 8 32
-5 9 -34 1 -34 -10 0 -3 -15 -22 -33 -42 -17 -19 -33 -44 -34 -55 -6 -67 -29
-172 -41 -189 -13 -19 -14 -19 -9 7 2 15 0 25 -4 22 -5 -3 -9 -19 -9 -36 0
-36 -36 -75 -64 -70 -15 3 -18 0 -13 -18 3 -13 0 -23 -9 -27 -8 -3 -14 -13
-14 -22 0 -9 -5 -22 -12 -29 -9 -9 -9 -12 2 -12 36 0 105 68 151 147 27 46
123 153 137 153 14 0 24 -82 12 -94 -7 -7 -10 -6 -10 3 0 7 -5 9 -11 5 -7 -4
-7 -10 -1 -16 13 -13 3 -48 -11 -43 -18 6 -77 -81 -82 -118 -3 -21 -15 -42
-36 -59 -39 -33 -33 -46 12 -28 48 20 140 121 194 213 26 45 67 105 90 132 23
28 50 63 61 80 50 79 136 162 207 200 20 11 37 23 37 27 0 4 23 10 50 14 28 4
50 10 50 15 0 5 5 9 11 9 17 0 39 27 34 42 -3 8 3 23 15 33 26 23 26 25 -10
82 -27 42 -30 55 -30 126 0 72 -4 87 -50 191 -71 161 -71 155 -1 256 56 81
176 266 287 444 67 106 169 298 189 356 22 61 42 221 56 429 7 113 17 195 29
235 11 34 29 115 41 181 20 104 27 123 51 146 17 15 26 32 23 40 -3 9 6 28 20
45 48 54 59 83 46 125 -10 34 -9 44 14 90 14 29 23 54 21 56 -2 2 -18 -15 -36
-37 -18 -22 -36 -40 -40 -40 -4 0 -10 15 -13 33 -6 40 30 167 48 167 7 0 28
-17 46 -37 l32 -38 -6 40 c-5 29 -17 48 -49 76 -40 34 -41 37 -20 43 18 6 20
11 11 27 -14 27 -3 57 34 97 21 21 40 32 60 32 48 0 70 18 63 51 -3 15 -1 31
3 34 14 8 5 69 -15 106 -10 19 -17 40 -16 47 2 6 -2 12 -7 12 -6 0 -17 10 -26
23 -13 20 -13 32 -1 96 8 40 17 75 20 78 3 3 -6 19 -19 35 -14 16 -25 33 -25
38 0 4 -9 10 -20 13 -17 4 -20 10 -14 34 4 15 8 31 10 35 6 10 54 -16 54 -29
0 -7 8 -17 19 -22 13 -8 17 -18 13 -37 -4 -20 -1 -25 9 -22 20 7 13 80 -9 93
-42 26 -64 57 -59 82 3 15 0 35 -7 45 -9 16 -7 22 9 34 18 13 22 12 51 -23 18
-21 36 -35 40 -30 4 4 -2 17 -13 30 -30 33 -33 51 -19 108 8 28 11 60 9 70 -3
11 0 32 7 49 10 25 9 35 -12 76 -12 26 -35 55 -50 63 -30 17 -40 58 -12 47 15
-6 15 -4 0 18 -9 14 -16 34 -16 44 0 15 -6 18 -28 14 -35 -5 -62 19 -62 54 0
30 35 101 52 106 17 6 -72 118 -94 118 -20 0 -37 29 -30 50 3 8 14 28 25 43
18 26 18 33 7 70 -6 23 -16 49 -20 58 -5 9 -9 48 -9 85 0 68 0 69 -40 104 -43
38 -61 73 -61 123 0 39 -31 108 -61 138 -12 12 -26 41 -30 63 -3 23 -15 77
-24 121 -16 73 -22 84 -65 125 -46 44 -48 47 -55 119 -7 79 -28 133 -65 166
-29 25 -50 75 -50 116 0 47 -35 100 -88 134 -32 20 -53 44 -67 73 -11 23 -24
42 -30 42 -16 0 -52 42 -57 65 -2 13 -16 22 -44 30 -52 13 -71 29 -79 67 -4
18 -26 48 -53 73 -58 54 -90 87 -156 159 -30 32 -71 68 -92 80 -24 13 -46 39
-63 71 l-27 50 -91 0 -92 0 -43 41 c-24 22 -56 48 -71 58 -28 17 -29 17 -44
-3 -17 -25 -36 -27 -53 -5 -11 13 -72 44 -87 44 -2 0 -21 -19 -42 -42z m-453
-365 c-15 -15 -30 -25 -33 -22 -7 8 33 49 48 49 6 0 -1 -12 -15 -27z m-363
-112 c-7 -24 -45 -29 -45 -7 0 8 7 22 16 31 21 20 39 6 29 -24z m-181 -169 c8
-14 -33 -94 -46 -90 -23 8 -21 55 3 77 24 22 35 26 43 13z m2150 -288 c25 -25
14 -86 -13 -70 -9 6 -41 69 -41 82 0 11 41 2 54 -12z m135 -250 c22 -28 28
-69 11 -79 -5 -3 -10 -1 -10 5 0 7 -14 25 -31 41 -26 24 -29 32 -19 44 17 21
25 19 49 -11z m-1007 -123 c31 -27 35 -53 6 -35 -7 4 -44 10 -83 12 -38 2 -78
8 -87 13 -9 5 -26 9 -37 9 -25 0 -28 17 -3 23 9 3 52 5 94 6 72 1 80 -1 110
-28z m-135 -67 c31 -31 -21 -74 -89 -74 -47 0 -55 13 -32 56 17 31 23 34 62
34 27 0 50 -6 59 -16z m1242 -43 c19 -14 22 -24 17 -45 -6 -26 -7 -26 -36 -11
-20 10 -30 23 -30 39 0 40 13 45 49 17z m-2859 -222 c0 -4 -7 -9 -15 -13 -9
-3 -15 0 -15 8 0 7 7 13 15 13 8 0 15 -4 15 -8z m30 -24 c0 -8 -4 -15 -10 -15
-5 0 -10 7 -10 15 0 8 5 15 10 15 6 0 10 -7 10 -15z m2923 -11 c3 -4 2 -16 -4
-26 -13 -24 -35 -9 -26 16 7 17 19 21 30 10z m-2953 -17 c0 -7 -5 -18 -12 -25
-7 -7 -18 -12 -25 -12 -17 0 -17 37 0 43 22 10 37 7 37 -6z m176 -62 c-9 -14
-21 -23 -26 -20 -11 7 -3 53 14 74 8 11 12 9 19 -8 7 -14 5 -28 -7 -46z m2874
4 c0 -32 -11 -37 -34 -13 -12 11 -13 20 -6 34 15 27 40 14 40 -21z m-3120 21
c0 -5 -7 -10 -16 -10 -8 0 -12 5 -9 10 3 6 10 10 16 10 5 0 9 -4 9 -10z m0
-54 c0 -3 -4 -8 -10 -11 -5 -3 -10 -1 -10 4 0 6 5 11 10 11 6 0 10 -2 10 -4z
m60 -39 c0 -36 -24 -88 -56 -121 -50 -51 -67 -48 -60 12 2 26 5 53 5 59 1 15
92 74 103 67 4 -3 8 -11 8 -17z m3060 -55 c0 -21 -2 -24 -10 -12 -13 20 -13
53 0 45 6 -3 10 -18 10 -33z m10 -94 c0 -31 -11 -36 -29 -14 -9 10 -9 20 0 40
14 31 29 18 29 -26z m119 28 c12 -14 5 -86 -8 -86 -22 1 -59 70 -46 89 9 16
40 13 54 -3z m-3514 -76 c3 -5 1 -10 -4 -10 -6 0 -11 5 -11 10 0 6 2 10 4 10
3 0 8 -4 11 -10z m195 -74 c0 -7 -7 -30 -15 -49 -11 -27 -26 -41 -61 -56 -52
-23 -64 -21 -64 14 0 22 41 65 62 65 6 0 21 9 35 20 30 23 43 25 43 6z m3340
-88 c0 -19 -18 -43 -25 -36 -9 9 4 48 16 48 5 0 9 -6 9 -12z m-3412 -94 c3
-22 -31 -59 -46 -50 -11 7 -5 44 11 64 14 17 31 10 35 -14z m3486 -115 c29
-34 34 -59 11 -59 -20 0 -64 50 -65 73 0 27 25 20 54 -14z m-3574 2 c0 -15
-42 -41 -67 -41 -32 0 -19 25 20 38 43 13 47 14 47 3z m-65 -111 c-5 -8 -11
-8 -17 -2 -6 6 -7 16 -3 22 5 8 11 8 17 2 6 -6 7 -16 3 -22z m-35 -52 c0 -5
-4 -8 -10 -8 -5 0 -10 10 -10 23 0 18 2 19 10 7 5 -8 10 -18 10 -22z m3640
-178 c0 -5 -4 -10 -10 -10 -5 0 -10 5 -10 10 0 6 5 10 10 10 6 0 10 -4 10 -10z
m145 -30 c0 -22 -29 -18 -33 3 -3 14 1 18 15 15 10 -2 18 -10 18 -18z m-40
-70 c3 -5 1 -10 -4 -10 -6 0 -11 5 -11 10 0 6 2 10 4 10 3 0 8 -4 11 -10z m33
-82 c18 -18 15 -27 -8 -21 -11 3 -20 12 -20 19 0 17 12 18 28 2z m-68 -54 c0
-8 -4 -12 -10 -9 -5 3 -10 10 -10 16 0 5 5 9 10 9 6 0 10 -7 10 -16z m68 -20
c4 -29 -44 -85 -56 -66 -10 15 -4 61 11 80 15 19 42 10 45 -14z m-2800 -126
c2 -19 -1 -28 -10 -28 -20 0 -38 21 -38 43 0 32 44 18 48 -15z m-60 -26 c2 -7
-3 -12 -12 -12 -9 0 -16 7 -16 16 0 17 22 14 28 -4z m42 -28 c11 -13 10 -19
-8 -36 -26 -27 -34 -21 -26 20 7 36 15 39 34 16z m-662 -93 c3 -8 -1 -12 -9
-9 -7 2 -15 10 -17 17 -3 8 1 12 9 9 7 -2 15 -10 17 -17z m3430 -189 c4 -26
-22 -31 -32 -6 -10 26 -7 36 12 32 9 -2 18 -13 20 -26z m-3350 -9 c2 -8 -6
-13 -22 -13 -17 0 -26 5 -26 16 0 19 41 16 48 -3z m170 -152 c-8 -12 -17 -18
-21 -15 -3 3 2 14 11 25 21 24 28 16 10 -10z m3238 -7 c45 -30 48 -50 19 -110
-15 -30 -33 -54 -40 -54 -23 0 -65 64 -65 99 0 35 27 80 48 81 7 0 24 -7 38
-16z m-3476 -29 c0 -8 -7 -15 -15 -15 -8 0 -15 7 -15 15 0 8 7 15 15 15 8 0
15 -7 15 -15z m2252 -15 c12 0 18 -7 18 -21 0 -17 -5 -20 -37 -17 -28 2 -39 8
-41 22 -5 22 18 40 32 26 6 -6 18 -10 28 -10z m-2421 -40 c15 -8 19 -21 19
-59 0 -40 -6 -56 -35 -94 -20 -26 -41 -44 -48 -41 -15 5 -67 106 -67 129 0 7
8 16 19 20 10 3 31 17 45 30 30 28 39 30 67 15z m2413 -36 c4 -9 0 -24 -8 -33
-18 -20 -10 -74 14 -96 17 -16 18 -15 10 18 -4 19 -10 40 -14 46 -4 6 -3 11 3
11 6 0 19 -20 30 -45 11 -26 27 -45 35 -45 11 0 16 -10 16 -31 0 -17 4 -28 10
-24 12 7 12 3 4 -19 -4 -10 -18 -16 -40 -16 -28 0 -34 4 -34 22 0 12 -18 43
-39 68 -32 37 -40 57 -46 103 l-7 57 30 0 c18 0 32 -6 36 -16z m1091 -53 c3
-5 1 -12 -5 -16 -5 -3 -10 1 -10 9 0 18 6 21 15 7z m95 -11 c0 -5 -4 -10 -10
-10 -5 0 -10 5 -10 10 0 6 5 10 10 10 6 0 10 -4 10 -10z m-3530 -89 c0 -62
-17 -105 -50 -124 -35 -21 -50 -15 -50 20 0 18 12 37 40 61 38 31 40 37 34 71
-7 33 -6 35 9 22 10 -8 17 -28 17 -50z m-124 -146 c4 -23 2 -41 -6 -51 -18
-20 -30 -1 -30 49 0 49 26 51 36 2z m144 -98 c0 -23 -17 -47 -32 -47 -12 0 -9
45 4 58 18 18 28 14 28 -11z m34 -69 c8 -38 -6 -57 -29 -38 -18 15 -20 41 -3
58 19 19 25 15 32 -20z m2509 -183 c6 -34 4 -37 -24 -47 -18 -6 -31 -19 -35
-34 -7 -26 -24 -33 -24 -9 0 23 -13 18 -41 -16 -23 -29 -27 -30 -48 -18 -20
13 -24 12 -42 -10 -10 -13 -19 -34 -19 -47 0 -16 -10 -28 -30 -39 -20 -10 -30
-23 -30 -38 0 -18 -10 -26 -50 -40 -35 -13 -54 -26 -60 -42 -15 -40 -85 -45
-98 -7 -2 6 12 15 30 20 42 11 39 25 -7 33 -40 7 -50 14 -60 47 -8 28 16 39
50 24 19 -9 34 -7 72 8 26 10 60 21 74 24 14 3 36 15 49 26 l23 20 -31 -6
c-21 -4 -32 -3 -32 5 0 6 7 11 16 11 20 0 103 59 167 120 26 25 60 56 75 70
l27 25 21 -21 c12 -12 24 -38 27 -59z m-252 22 c-18 -18 -23 -1 -9 29 13 28
13 28 16 5 2 -13 -1 -28 -7 -34z m1124 14 c3 -6 -3 -15 -14 -21 -17 -8 -20 -7
-18 10 1 21 21 27 32 11z m-1115 -51 c0 -5 -4 -10 -10 -10 -5 0 -10 5 -10 10
0 6 5 10 10 10 6 0 10 -4 10 -10z m-45 -20 c-3 -5 -10 -10 -16 -10 -5 0 -9 5
-9 10 0 6 7 10 16 10 8 0 12 -4 9 -10z m340 -192 c-7 -69 -32 -407 -40 -528
-10 -162 -25 -260 -59 -390 -19 -69 -37 -142 -40 -163 -4 -22 -12 -37 -18 -35
-22 8 -49 53 -55 93 -7 48 -19 65 -44 65 -23 0 -25 -23 -4 -40 17 -14 9 -34
-10 -26 -8 3 -16 -5 -20 -21 -6 -24 -7 -24 -24 -9 -17 16 -19 15 -24 -5 -5
-17 -11 -20 -28 -16 -13 4 -29 1 -36 -5 -20 -16 -25 -5 -27 54 -1 49 1 53 24
56 14 2 30 8 36 13 6 5 19 2 32 -7 21 -14 23 -14 31 8 5 13 6 29 3 37 -3 9 -1
12 6 7 7 -4 17 7 27 30 14 34 14 41 -1 72 -9 19 -30 41 -47 51 -17 9 -50 33
-74 55 -41 36 -43 42 -43 92 0 39 4 54 14 54 7 0 16 -12 19 -28 7 -33 73 -122
91 -122 7 0 22 21 33 48 16 37 20 64 17 127 -4 117 -4 116 2 168 6 45 16 58
29 37 11 -17 23 -2 41 53 15 47 64 149 96 202 43 70 83 125 90 125 4 0 6 -24
3 -52z m-720 -30 c28 -12 35 -34 8 -23 -10 4 -26 10 -35 12 -19 6 -25 23 -8
23 5 0 21 -5 35 -12z m103 -38 c10 -16 10 -20 -1 -20 -14 0 -37 20 -37 32 0
16 25 8 38 -12z m343 -40 c10 -6 19 -17 19 -24 0 -19 -64 -66 -91 -66 -20 0
-21 -4 -17 -50 3 -27 1 -50 -3 -50 -5 0 -9 3 -9 8 0 4 -11 8 -24 8 -24 2 -66
32 -66 48 0 5 8 15 18 22 15 12 14 13 -10 14 -34 0 -36 17 -4 30 13 5 31 19
39 31 10 13 22 19 31 16 23 -9 20 -23 -9 -45 l-25 -20 25 -4 c17 -4 31 2 46
18 13 13 28 24 36 24 7 0 13 11 13 25 0 28 3 29 31 15z m26 -90 c3 -11 12 -20
19 -20 18 0 18 -14 -1 -30 -14 -12 -49 -6 -73 13 -10 8 -8 15 9 34 27 28 39
29 46 3z m-437 -1 c0 -6 -9 -22 -20 -36 -17 -22 -21 -23 -26 -9 -4 10 1 25 11
36 20 22 35 26 35 9z m199 -49 c8 0 41 -65 41 -82 0 -7 -9 -2 -20 10 -12 12
-24 22 -29 22 -7 0 -31 43 -31 57 0 3 7 2 16 -1 9 -3 19 -6 23 -6z m179 -32
c14 -14 16 -94 2 -103 -10 -6 -15 11 -24 78 -5 38 1 46 22 25z m-268 -68 c0
-5 -4 -10 -10 -10 -5 0 -10 5 -10 10 0 6 5 10 10 10 6 0 10 -4 10 -10z m88
-54 c28 1 28 -17 -1 -44 l-23 -22 -28 29 c-30 31 -30 69 -1 57 10 -3 15 1 16
12 1 10 4 7 8 -8 5 -17 14 -25 29 -24z m-163 -16 c18 -19 17 -20 -3 -20 -12 0
-26 9 -32 20 -8 16 -8 20 3 20 8 0 22 -9 32 -20z m53 1 c3 -8 -1 -12 -9 -9 -7
2 -15 10 -17 17 -3 8 1 12 9 9 7 -2 15 -10 17 -17z m-128 -72 c0 -26 -4 -50
-9 -54 -18 -10 -41 26 -41 64 0 44 4 51 31 44 15 -4 19 -14 19 -54z m188 19
c7 -7 12 -20 12 -30 0 -9 8 -22 18 -27 19 -10 48 -79 37 -89 -4 -4 -19 9 -34
28 -14 19 -41 49 -58 66 -39 36 -43 64 -10 64 13 0 28 -5 35 -12z m70 -40 c-6
-18 -28 -21 -28 -4 0 9 7 16 16 16 9 0 14 -5 12 -12z m162 -53 c0 -8 -7 -15
-15 -15 -8 0 -15 7 -15 15 0 8 7 15 15 15 8 0 15 -7 15 -15z m-343 -97 c-3 -8
-6 -5 -6 6 -1 11 2 17 5 13 3 -3 4 -12 1 -19z m33 -64 c0 -11 11 -14 43 -11
23 1 48 6 55 11 20 12 25 1 18 -38 -9 -46 -26 -58 -78 -54 -50 3 -69 31 -61
85 5 32 23 37 23 7z m193 -39 c9 -8 13 -24 10 -35 -5 -19 -7 -20 -23 -5 -22
20 -34 5 -25 -28 6 -16 4 -19 -4 -11 -16 14 -3 94 15 94 7 0 19 -7 27 -15z
m-303 -65 c0 -5 -4 -10 -9 -10 -6 0 -13 5 -16 10 -3 6 1 10 9 10 9 0 16 -4 16
-10z m380 -30 c13 -31 7 -51 -10 -34 -5 5 -13 25 -16 43 -9 41 8 36 26 -9z
m-170 -15 c0 -8 -9 -15 -20 -15 -20 0 -26 11 -13 23 12 13 33 7 33 -8z m124
-27 c9 -17 16 -36 16 -42 -1 -15 -50 46 -50 62 0 23 18 12 34 -20z m-436 -6
c15 -10 36 -22 47 -26 37 -13 -10 -29 -65 -21 -54 7 -73 31 -44 52 23 17 31
16 62 -5z m1132 -32 c0 -5 -4 -10 -10 -10 -5 0 -10 5 -10 10 0 6 5 10 10 10 6
0 10 -4 10 -10z m-1050 -64 c0 -25 -12 -46 -26 -46 -14 0 -20 41 -7 53 12 12
33 7 33 -7z m170 -61 c0 -8 -4 -15 -10 -15 -5 0 -10 7 -10 15 0 8 5 15 10 15
6 0 10 -7 10 -15z m-140 -9 c0 -21 -21 -31 -30 -15 -5 7 -6 17 -4 21 9 14 34
9 34 -6z m940 -16 c0 -5 -5 -10 -11 -10 -5 0 -7 5 -4 10 3 6 8 10 11 10 2 0 4
-4 4 -10z m-817 -14 c3 -7 -1 -24 -10 -36 -11 -16 -22 -20 -39 -16 -17 5 -26
2 -30 -9 -9 -23 -24 -18 -24 9 0 44 89 89 103 52z m384 -48 c-3 -8 -6 -5 -6 6
-1 11 2 17 5 13 3 -3 4 -12 1 -19z m-116 -3 c15 -10 10 -19 -17 -32 -22 -10
-30 -9 -50 5 -40 29 -36 39 12 36 25 -2 49 -6 55 -9z m2 -66 l66 -1 -20 -28
c-20 -26 -20 -29 -4 -60 15 -29 15 -34 1 -48 -12 -12 -18 -13 -30 -3 -22 18
-29 -2 -22 -62 7 -57 -7 -97 -21 -62 -4 11 -8 50 -8 87 0 74 -8 80 -20 16 -5
-24 -9 -46 -10 -50 -1 -5 -3 -26 -4 -48 -1 -53 -18 -51 -32 5 -13 53 -29 50
-29 -6 0 -27 -4 -39 -12 -37 -14 5 -44 107 -53 182 -6 49 -5 54 19 69 34 23
36 22 36 -12 0 -34 18 -51 31 -30 5 8 9 33 9 57 0 37 3 43 18 38 10 -4 48 -7
85 -7z m317 -403 c0 -8 -4 -18 -10 -21 -5 -3 -10 3 -10 14 0 12 5 21 10 21 6
0 10 -6 10 -14z m-754 -53 c-10 -10 -19 5 -10 18 6 11 8 11 12 0 2 -7 1 -15
-2 -18z m-5 -52 c-7 -12 -18 -21 -26 -21 -20 0 -19 11 2 37 22 26 39 14 24
-16z m127 -68 c2 -16 -5 -26 -28 -38 -55 -29 -142 12 -109 51 8 10 30 13 73
12 54 -3 61 -5 64 -25z m-87 -74 c11 -5 17 -14 14 -20 -10 -15 -38 -10 -65 11
l-25 20 28 0 c16 0 37 -5 48 -11z m-32 -68 c11 -7 11 -15 1 -47 -13 -40 -29
-66 -31 -48 -2 24 -7 51 -14 77 -6 22 -4 27 11 27 11 0 25 -4 33 -9z m443
-103 c-15 -15 -26 -4 -18 18 5 13 9 15 18 6 9 -9 9 -15 0 -24z m-52 -17 c0
-14 -18 -23 -30 -16 -6 4 -8 11 -5 16 8 12 35 12 35 0z m107 -17 c-9 -9 -28 6
-21 18 4 6 10 6 17 -1 6 -6 8 -13 4 -17z m-57 -19 c0 -8 -7 -15 -15 -15 -8 0
-15 7 -15 15 0 8 7 15 15 15 8 0 15 -7 15 -15z m53 -32 c9 -9 -13 -34 -24 -27
-14 8 -11 34 4 34 8 0 17 -3 20 -7z m57 -42 c0 -12 -20 -25 -27 -18 -7 7 6 27
18 27 5 0 9 -4 9 -9z m-690 -11 c0 -5 -7 -10 -16 -10 -8 0 -12 5 -9 10 3 6 10
10 16 10 5 0 9 -4 9 -10z m674 -49 c10 -16 -5 -41 -24 -41 -22 0 -35 30 -18
42 17 10 36 10 42 -1z m44 -54 c2 -11 -3 -17 -17 -17 -23 0 -35 15 -26 31 10
15 39 6 43 -14z m38 -32 c10 -26 0 -37 -20 -22 -11 8 -16 19 -12 25 10 16 26
15 32 -3z"/>
<path d="M2807 6804 c-3 -3 -3 -13 0 -21 5 -12 7 -12 14 -1 15 23 4 40 -14 22z"/>
<path d="M6267 12493 c-4 -3 -22 -8 -40 -9 -47 -4 -109 -19 -134 -32 -32 -18
-118 -15 -137 4 -18 17 -40 9 -32 -11 9 -23 -30 -47 -75 -47 -24 1 -68 -10
-100 -23 -31 -14 -76 -28 -100 -31 -28 -5 -55 -19 -79 -41 -21 -18 -47 -33
-59 -33 -48 0 -87 -27 -118 -82 -31 -55 -68 -88 -99 -88 -19 0 -74 -56 -74
-77 0 -22 -59 -103 -75 -103 -8 0 -26 -17 -40 -37 -20 -30 -25 -50 -25 -96 0
-63 -8 -85 -49 -133 l-27 -30 2 -191 c2 -180 3 -194 24 -223 12 -17 25 -43 30
-58 4 -15 13 -26 20 -24 7 1 33 -7 58 -19 52 -26 136 -37 146 -20 4 6 16 11
27 11 14 0 19 6 17 18 -2 13 -16 18 -60 22 -34 3 -64 12 -76 23 -15 14 -25 16
-46 7 -38 -14 -43 8 -17 76 11 31 21 68 21 82 0 15 7 40 15 56 8 15 15 34 15
42 0 29 97 211 130 244 49 49 127 99 164 104 17 3 57 8 89 11 40 5 57 11 57
21 0 16 36 19 45 4 3 -5 19 -10 35 -10 31 0 70 -43 70 -78 0 -10 6 -32 14 -48
8 -16 24 -50 35 -76 11 -27 25 -48 30 -48 5 0 20 -17 32 -37 13 -21 34 -49 46
-63 13 -14 21 -30 19 -37 -3 -6 0 -13 6 -15 6 -2 13 -31 16 -64 3 -48 0 -69
-17 -102 -11 -22 -18 -47 -16 -55 3 -7 2 -24 -3 -37 l-9 -25 -7 23 c-4 12 -12
22 -18 22 -5 0 -27 14 -48 30 -57 45 -222 69 -249 36 -16 -20 -6 -24 85 -37
88 -12 170 -47 198 -85 30 -41 8 -51 -63 -29 -66 20 -91 16 -91 -14 0 -25 -42
-54 -79 -54 -15 0 -41 10 -58 23 -31 22 -53 21 -53 -4 0 -8 -7 -19 -15 -26
-23 -19 -18 -37 18 -76 32 -36 33 -36 132 -40 108 -5 147 5 153 41 4 23 40 54
63 55 27 0 50 -34 47 -71 -1 -19 -6 -37 -12 -41 -5 -3 -11 -16 -13 -28 -3 -21
-13 -40 -85 -159 -21 -34 -38 -71 -38 -82 0 -10 -4 -19 -9 -19 -4 0 -11 -27
-14 -59 -3 -33 -14 -77 -25 -98 -11 -21 -25 -49 -31 -63 -7 -14 -18 -32 -24
-41 -17 -22 -161 -89 -193 -89 -13 0 -27 -7 -30 -15 -4 -8 -14 -15 -23 -15 -9
0 -25 -7 -35 -15 -25 -19 -21 -20 149 -48 141 -24 167 -36 130 -63 -17 -13
-17 -15 -2 -32 9 -10 17 -24 17 -30 0 -17 20 -25 34 -13 11 9 15 7 19 -10 4
-15 0 -23 -13 -26 -18 -5 -18 -7 -4 -34 15 -30 28 -36 39 -19 10 16 25 12 25
-7 0 -10 7 -27 15 -37 11 -15 12 -23 3 -34 -10 -12 -13 -11 -19 5 -14 34 -16
-164 -3 -234 4 -19 2 -33 -3 -33 -15 0 -40 32 -48 60 -10 35 -24 50 -41 43
-19 -7 -18 -22 3 -45 12 -14 14 -21 5 -30 -16 -16 -56 20 -42 37 7 8 2 19 -16
36 -26 24 -26 24 -20 2 9 -28 -22 -81 -35 -61 -6 9 -9 5 -10 -12 -1 -14 -1
-28 0 -33 0 -4 -19 -12 -44 -19 -40 -11 -45 -15 -45 -40 0 -24 -4 -28 -27 -28
-14 0 -24 -2 -21 -6 3 -3 2 -20 -2 -39 -5 -20 -4 -33 1 -29 5 3 9 0 9 -5 0 -6
-4 -11 -8 -11 -4 0 -7 -19 -7 -42 0 -33 4 -42 15 -41 23 4 29 -68 15 -192 -4
-38 -7 -85 -7 -103 1 -26 -5 -36 -24 -44 -19 -9 -24 -19 -24 -49 0 -21 -4 -40
-9 -44 -5 -3 -12 -19 -16 -36 -4 -17 -9 -28 -12 -25 -15 14 -31 -48 -28 -104
2 -33 0 -60 -4 -60 -4 0 -8 -6 -10 -12 -23 -163 -24 -180 -12 -188 10 -5 12
-19 7 -44 -6 -32 -10 -36 -31 -32 -25 5 -30 -5 -26 -41 1 -7 -3 -13 -10 -13
-6 0 -9 -6 -6 -14 3 -7 -1 -33 -10 -57 -8 -24 -15 -68 -16 -98 0 -33 -6 -62
-16 -72 -8 -10 -17 -26 -19 -36 -4 -19 -13 -116 -13 -148 0 -10 -4 -24 -9 -30
-5 -6 -11 -57 -14 -113 -4 -65 -12 -115 -22 -135 -23 -45 -98 -147 -130 -177
-14 -13 -44 -51 -66 -84 -35 -53 -38 -61 -24 -72 14 -10 14 -13 -4 -29 -11
-10 -20 -23 -19 -29 5 -42 -3 -77 -18 -83 -22 -8 -40 -30 -53 -61 -6 -13 -19
-26 -29 -29 -14 -3 -19 -13 -18 -31 2 -20 -3 -28 -19 -30 -16 -2 -20 -8 -17
-26 3 -16 -2 -28 -14 -37 -42 -30 -34 -103 12 -115 19 -5 32 -1 51 17 13 12
24 20 24 16 0 -3 16 5 36 18 40 27 48 28 112 16 38 -8 42 -6 42 12 0 24 44 67
70 67 26 0 33 -15 15 -30 -34 -28 25 -35 100 -11 29 9 29 10 8 16 -13 4 -23
12 -23 18 0 29 26 89 43 98 11 7 16 17 12 26 -5 16 30 63 47 63 4 0 8 -11 8
-25 0 -33 15 -32 37 3 9 15 18 29 20 31 2 3 17 -11 33 -30 20 -23 27 -41 23
-56 -5 -21 -1 -23 31 -23 20 0 44 -4 54 -9 9 -5 40 -16 67 -25 47 -14 51 -14
65 3 20 23 66 51 85 51 19 0 19 -29 -1 -58 -14 -21 -14 -22 5 -22 33 0 35 -21
5 -45 -26 -21 -27 -22 -8 -33 16 -9 17 -13 6 -24 -11 -11 -16 -10 -26 5 -14
18 -71 24 -80 8 -9 -14 37 -49 80 -60 31 -8 44 -18 57 -47 10 -19 15 -39 12
-44 -3 -4 5 -10 16 -13 20 -5 21 -3 15 33 l-6 39 27 -15 c43 -22 56 -18 49 12
-6 22 -4 25 9 20 9 -3 21 -6 26 -6 5 0 9 -15 9 -34 0 -45 20 -82 43 -78 9 2
17 -1 17 -6 0 -6 7 -12 14 -15 10 -4 13 -1 9 9 -6 17 18 19 35 2 9 -9 12 -8
12 4 0 9 -6 18 -12 21 -7 2 -10 7 -7 11 3 3 27 -14 54 -39 73 -69 84 -58 17
17 -23 26 -23 55 1 42 8 -5 8 -3 0 7 -7 7 -13 17 -13 21 0 13 27 9 42 -5 7 -7
27 -13 43 -13 25 1 30 -3 30 -24 0 -28 34 -50 78 -50 20 0 27 5 27 19 0 11 5
23 10 26 6 3 10 16 10 27 l0 21 23 -21 c13 -12 29 -22 35 -22 20 0 14 -17 -8
-23 -20 -5 -20 -5 2 -54 24 -56 35 -65 60 -52 14 8 24 2 50 -27 18 -20 39 -45
46 -56 7 -10 20 -18 28 -18 13 0 12 6 -6 35 -23 37 -22 38 23 35 47 -3 32 23
-53 86 -30 23 -65 45 -77 48 -11 4 -24 13 -27 21 -3 8 -11 15 -17 15 -12 0
-54 41 -78 77 -12 18 -21 20 -80 16 l-66 -4 -32 51 c-18 29 -33 56 -33 61 0
15 30 10 36 -6 7 -18 40 -20 47 -2 4 9 8 8 16 -3 8 -12 13 -12 30 4 28 26 27
54 -3 62 -14 3 -32 14 -41 23 -14 16 -14 19 0 31 19 15 19 36 2 47 -30 18 -46
60 -49 129 -3 72 -3 72 -30 68 -15 -1 -30 2 -34 7 -10 17 34 51 56 44 15 -5
21 0 26 22 4 15 15 43 26 61 19 31 20 45 3 100 -6 17 -3 22 9 22 9 0 22 12 29
28 6 15 24 45 40 67 77 111 98 144 112 177 30 72 60 58 68 -33 3 -38 12 -68
23 -80 15 -17 16 -24 6 -39 -17 -29 -16 -64 3 -56 10 4 20 -6 30 -32 9 -20 23
-42 32 -49 14 -11 13 -15 -11 -43 -28 -34 -32 -45 -16 -55 6 -3 10 1 10 10 0
8 8 18 18 22 30 11 62 46 62 68 0 12 -11 39 -25 59 l-25 36 35 39 c26 29 35
47 35 74 0 39 8 67 20 67 8 0 23 -99 24 -164 1 -42 20 -60 29 -26 7 28 32 35
54 15 10 -9 29 -25 43 -35 l25 -20 -24 -18 c-19 -15 -21 -20 -8 -25 31 -12 79
51 50 65 -5 2 -23 19 -41 39 -31 34 -32 38 -20 65 24 55 68 87 68 50 0 -7 7
-19 15 -26 12 -10 15 -10 15 3 0 9 -4 19 -10 22 -23 14 0 80 38 112 14 11 13
15 -2 32 -14 15 -15 23 -5 45 7 14 15 26 19 26 8 0 23 -52 24 -85 1 -11 9 -21
20 -23 17 -4 18 0 12 34 -17 90 -14 108 21 124 27 12 33 21 33 48 0 39 22 43
46 7 20 -31 13 -55 -15 -48 -20 5 -60 -28 -61 -50 0 -13 66 -77 79 -77 18 0
12 21 -11 39 l-21 18 33 29 c57 50 60 55 60 85 0 16 -10 43 -22 59 -28 39 -17
79 30 100 45 21 49 49 17 104 -29 50 -27 62 19 105 l26 24 0 204 c0 126 -4
203 -10 203 -19 0 -23 49 -6 75 14 22 16 130 16 1120 0 731 -3 1103 -10 1115
-6 11 -12 55 -14 97 -2 64 -9 88 -35 137 -17 32 -31 64 -31 71 0 7 -7 18 -15
25 -8 7 -15 28 -15 47 0 18 -7 50 -15 69 -9 23 -13 50 -9 74 7 41 -1 52 -66
93 -31 20 -35 28 -38 69 -2 26 -10 52 -18 58 -9 8 -14 31 -14 66 l0 53 -64 41
c-66 42 -88 74 -84 120 2 34 -19 94 -41 114 -10 9 -42 19 -72 23 -65 7 -77 15
-85 58 -12 68 -74 98 -134 66 -41 -21 -57 -20 -100 10 -31 21 -64 32 -73 22z
m-767 -312 c-12 -23 -40 -28 -40 -8 0 13 40 39 48 32 2 -2 -1 -13 -8 -24z
m138 7 c2 -12 -5 -19 -23 -24 -31 -8 -51 12 -33 34 15 18 52 11 56 -10z m-62
-65 c-10 -10 -19 5 -10 18 6 11 8 11 12 0 2 -7 1 -15 -2 -18z m293 -2332 c23
-18 22 -41 -2 -41 -23 0 -56 30 -51 45 8 20 24 19 53 -4z m10 -92 c7 -17 24
-34 37 -39 29 -11 34 -64 8 -74 -46 -18 -75 10 -73 68 1 22 0 46 -1 51 -9 36
12 32 29 -6z m55 -148 c27 -29 15 -50 -12 -23 -22 22 -29 42 -14 42 5 0 17 -9
26 -19z m-225 -20 c16 -10 6 -31 -15 -31 -8 0 -14 9 -14 20 0 22 7 25 29 11z
m51 -96 c0 -8 -10 -35 -22 -60 -27 -56 -18 -67 20 -23 17 18 34 30 38 26 4 -4
0 -31 -10 -59 -18 -57 -13 -77 11 -41 9 12 21 22 28 22 14 0 31 44 37 90 2 14
9 25 18 25 12 0 14 -13 12 -70 -3 -56 -8 -74 -24 -88 -12 -10 -27 -16 -34 -13
-8 3 -16 -13 -24 -45 -11 -44 -10 -52 6 -70 17 -18 17 -21 1 -36 -16 -16 -17
-16 -17 5 0 34 -18 26 -37 -15 -17 -34 -23 -38 -78 -49 -49 -9 -62 -20 -19
-15 6 1 17 -6 24 -14 21 -25 -7 -47 -45 -36 -23 6 -29 13 -28 30 2 12 -4 33
-13 46 -14 22 -14 30 11 112 15 48 31 98 36 111 5 13 9 43 9 69 0 40 5 50 37
79 39 36 63 43 63 19z m-274 -30 c1 -8 -2 -15 -8 -15 -6 0 -8 7 -4 15 3 8 1
15 -4 15 -6 0 -10 5 -10 12 0 17 23 -7 26 -27z m494 4 c0 -17 -20 -49 -30 -49
-11 0 -14 43 -3 53 10 11 33 8 33 -4z m-10 -110 c0 -10 -2 -19 -4 -19 -2 0
-12 -3 -20 -6 -12 -5 -15 -2 -11 10 3 9 7 23 10 32 6 20 25 8 25 -17z m-11
-148 c23 -55 26 -83 11 -112 -13 -23 -29 -24 -45 -2 -11 15 -13 15 -24 -5 -15
-28 -29 -28 -40 0 -15 40 20 108 40 77 13 -22 22 -2 21 46 -1 25 2 45 7 45 5
0 18 -22 30 -49z m-161 -130 c-15 -5 -19 4 -11 24 6 18 7 18 13 -1 4 -10 3
-21 -2 -23z m235 -48 c6 -54 4 -60 -23 -88 -29 -30 -40 -65 -20 -65 5 0 17 11
26 25 9 14 19 25 23 25 4 0 15 -64 25 -142 10 -79 22 -156 27 -172 5 -16 9
-42 9 -58 0 -32 -25 -88 -39 -88 -5 0 -22 -11 -38 -24 -26 -22 -37 -24 -125
-22 -53 0 -100 5 -105 9 -4 5 -15 41 -23 80 -11 51 -19 72 -30 72 -11 0 -15
-12 -16 -40 -2 -64 -3 -66 -26 -64 -49 4 -58 0 -58 -30 0 -27 -5 -31 -46 -43
-42 -12 -44 -14 -31 -32 14 -19 16 -19 41 -3 26 17 33 13 18 -10 -10 -16 -109
-20 -124 -5 -8 8 -4 14 15 23 33 15 35 29 4 29 -13 0 -26 2 -29 5 -7 8 21 171
40 233 12 38 18 48 25 37 11 -21 17 -19 54 15 32 30 32 30 43 10 6 -12 22 -25
36 -30 13 -5 24 -17 24 -26 0 -11 5 -14 18 -9 41 18 63 17 78 -1 14 -18 15
-17 10 13 -3 18 -1 35 4 38 4 3 16 28 25 55 22 65 38 65 29 1 -7 -54 1 -101
16 -101 6 0 10 8 10 18 1 40 16 46 52 18 48 -36 60 -34 42 9 -18 44 -18 64 2
87 12 12 14 21 7 30 -6 7 -14 24 -18 37 -4 14 -17 33 -29 43 -11 9 -16 17 -10
18 7 0 14 9 17 20 6 23 -3 26 -21 8 -9 -9 -12 -7 -12 9 0 12 5 25 11 29 7 4 9
21 6 40 -4 23 -2 34 6 34 7 0 23 9 37 20 14 11 28 20 31 20 3 0 9 -26 12 -57z
m1157 47 c0 -5 -2 -10 -4 -10 -3 0 -8 5 -11 10 -3 6 -1 10 4 10 6 0 11 -4 11
-10z m-1335 -51 c4 -11 5 -22 3 -25 -6 -6 -48 26 -48 37 0 18 39 9 45 -12z
m-5 -80 c0 -4 -9 -11 -20 -14 -15 -5 -32 2 -57 21 l-36 27 23 19 c23 19 23 19
57 -14 18 -17 33 -35 33 -39z m-254 -43 c-9 -38 26 -44 65 -12 37 31 74 34 89
6 12 -22 12 -22 -45 -36 -16 -4 -34 -6 -39 -5 -6 1 -20 -3 -32 -10 -13 -6 -30
-9 -38 -6 -29 11 -34 87 -5 87 7 0 9 -9 5 -24z m1559 -63 c-8 -45 -10 -47 -30
-40 -31 12 -12 77 23 77 11 0 13 -9 7 -37z m-5 -173 c0 -6 -7 -13 -16 -17 -10
-4 -14 -13 -9 -27 21 -75 6 -138 -25 -101 -10 12 -9 20 4 40 12 18 14 30 7 42
-6 12 -5 26 5 45 14 28 34 38 34 18z m30 -66 c0 -16 -16 -19 -25 -4 -8 13 4
32 16 25 5 -4 9 -13 9 -21z m-1495 -154 c3 -5 1 -10 -4 -10 -6 0 -11 5 -11 10
0 6 2 10 4 10 3 0 8 -4 11 -10z m821 -187 c-9 -23 -26 -5 -26 27 0 16 6 42 13
57 12 27 12 27 15 -21 2 -27 1 -55 -2 -63z m642 85 c4 -22 -28 -52 -41 -39 -7
7 -7 19 1 37 13 27 35 28 40 2z m-1198 -18 c0 -23 -4 -24 -31 -9 -23 12 -16
29 12 29 12 0 19 -7 19 -20z m-278 -42 c-7 -7 -12 -8 -12 -2 0 14 12 26 19 19
2 -3 -1 -11 -7 -17z m-382 -39 c0 -24 -4 -38 -10 -34 -17 10 -11 75 7 75 2 0
3 -18 3 -41z m225 -7 c2 -2 18 6 36 17 39 24 52 26 47 9 -3 -7 -11 -13 -18
-13 -7 0 -18 -14 -24 -32 -14 -42 -22 -48 -40 -34 -12 10 -17 9 -27 -7 -10
-16 -16 -18 -41 -8 -25 9 -33 22 -25 44 1 4 16 6 33 4 25 -3 31 1 31 15 0 42
3 49 15 28 6 -11 12 -21 13 -23z m200 8 c3 -6 -1 -13 -10 -16 -19 -8 -30 0
-20 15 8 14 22 14 30 1z m1200 -42 c5 -20 13 -39 17 -43 4 -4 3 -15 -2 -24 -5
-9 -11 -24 -14 -33 -3 -10 -10 -18 -16 -18 -7 0 -10 22 -8 58 2 31 -1 68 -6
81 -6 18 -5 22 5 19 8 -3 18 -21 24 -40z m-1295 7 c0 -8 -4 -17 -10 -20 -6 -4
-10 5 -10 20 0 15 4 24 10 20 6 -3 10 -12 10 -20z m327 9 c12 -31 -64 -67 -92
-44 -21 17 -7 40 25 40 16 0 32 5 35 10 9 15 25 12 32 -6z m-322 -65 c10 -15
-1 -23 -20 -15 -9 3 -13 10 -10 16 8 13 22 13 30 -1z m184 2 c19 -12 5 -31
-23 -31 -22 0 -46 17 -46 32 0 11 51 10 69 -1z m-103 -42 c8 -14 -10 -11 -32
6 -18 13 -18 14 4 8 12 -3 25 -9 28 -14z m227 -24 c-15 -19 -36 -38 -45 -41
-25 -7 -23 -24 2 -24 11 0 23 -7 26 -15 8 -19 -43 -65 -72 -65 -24 0 -41 -16
-29 -28 3 -4 20 1 37 11 40 23 55 11 26 -20 -14 -16 -19 -27 -12 -30 17 -6
-21 -80 -46 -88 -10 -3 -29 -1 -41 6 -13 7 -42 9 -71 6 -28 -4 -48 -2 -48 4 0
12 44 29 75 29 13 0 27 5 31 11 9 16 -28 79 -47 79 -25 0 -79 21 -79 31 0 5
15 9 34 9 18 0 49 3 67 7 33 7 33 7 9 14 -14 4 -47 7 -73 8 -53 1 -75 25 -41
44 23 13 94 9 112 -5 23 -19 25 0 3 31 l-21 30 30 -15 c17 -9 35 -12 42 -7 16
10 128 50 146 52 7 0 0 -15 -15 -34z m197 -6 c0 -5 -4 -9 -10 -9 -5 0 -10 7
-10 16 0 8 5 12 10 9 6 -3 10 -10 10 -16z m-130 -9 c0 -5 -4 -10 -10 -10 -5 0
-10 5 -10 10 0 6 5 10 10 10 6 0 10 -4 10 -10z m878 -27 c-5 -25 -28 -28 -28
-4 0 12 6 21 16 21 9 0 14 -7 12 -17z m-1278 -3 c0 -5 -7 -10 -15 -10 -8 0
-15 5 -15 10 0 6 7 10 15 10 8 0 15 -4 15 -10z m490 -11 c0 -5 -4 -29 -9 -52
-6 -23 -12 -54 -15 -68 -6 -27 -30 -44 -47 -33 -5 3 -2 21 6 41 8 19 15 45 15
57 0 24 26 66 41 66 5 0 9 -5 9 -11z m420 -3 c0 -8 -4 -18 -10 -21 -5 -3 -10
-16 -10 -29 0 -24 -32 -61 -43 -49 -15 14 -6 53 19 82 28 33 44 39 44 17z
m-330 -13 c0 -5 -4 -15 -10 -23 -11 -18 -25 -7 -17 15 6 15 27 21 27 8z m-34
-77 c3 -8 1 -21 -5 -28 -7 -7 -18 -22 -25 -33 -14 -19 -15 -19 -26 6 -10 22
-9 30 6 48 21 24 42 27 50 7z m110 -43 c27 -23 34 -35 34 -64 0 -43 -18 -99
-32 -99 -5 0 -7 4 -4 9 3 4 -10 17 -29 27 -19 10 -38 26 -40 36 -6 16 22 118
32 118 2 0 20 -12 39 -27z m334 -8 c0 -8 -4 -15 -10 -15 -5 0 -10 7 -10 15 0
8 5 15 10 15 6 0 10 -7 10 -15z m-896 -1 c18 -7 12 -24 -10 -24 -8 0 -14 7
-14 15 0 17 2 18 24 9z m1106 -3 c0 -5 -7 -14 -15 -21 -12 -10 -15 -10 -15 2
0 8 3 18 7 21 9 10 23 9 23 -2z m-1232 -52 c3 -43 2 -44 -38 -61 -47 -21 -50
-21 -50 -7 0 22 62 120 74 116 6 -2 12 -23 14 -48z m987 1 c0 -7 -6 -15 -12
-17 -8 -3 -13 4 -13 17 0 13 5 20 13 18 6 -3 12 -11 12 -18z m-539 -55 c-7
-18 -26 -20 -26 -2 0 18 24 41 28 27 2 -6 1 -17 -2 -25z m-580 -30 c-6 -35
-11 -45 -27 -45 -10 0 -24 -9 -31 -20 -18 -28 -42 -26 -34 3 3 12 6 28 6 35 0
7 11 17 24 22 13 5 32 20 43 33 24 32 27 28 19 -28z m235 -21 c7 -9 23 -20 36
-25 27 -10 30 -27 7 -36 -17 -6 -87 54 -78 69 8 12 20 10 35 -8z m239 -49 c0
-8 -7 -15 -15 -15 -16 0 -20 12 -8 23 11 12 23 8 23 -8z m-52 -19 c11 -10 10
-18 -4 -43 -22 -38 -13 -66 18 -58 16 4 31 -1 46 -15 24 -23 26 -28 13 -49 -6
-10 -4 -25 5 -43 19 -37 11 -48 -32 -48 -27 0 -36 -5 -44 -24 -5 -13 -17 -27
-27 -30 -37 -11 -322 -4 -339 9 -21 15 -10 35 19 35 37 0 67 12 67 26 0 24 23
64 37 64 15 0 17 -19 3 -54 -12 -33 -2 -38 60 -30 55 7 72 25 74 78 1 18 9 33
21 40 24 13 35 27 35 44 0 18 -17 15 -39 -9 -21 -23 -50 -17 -31 6 8 10 7 15
-3 22 -26 14 -25 56 1 69 13 6 29 17 35 23 13 13 66 5 85 -13z m212 -57 c0 -5
-4 -9 -10 -9 -5 0 -10 7 -10 16 0 8 5 12 10 9 6 -3 10 -10 10 -16z m-30 -41
c0 -14 -48 -58 -64 -58 -22 0 -20 33 4 55 11 10 20 24 20 31 0 10 5 9 20 -3
11 -10 20 -21 20 -25z m84 -42 c-6 -16 -25 -21 -37 -10 -3 4 2 17 11 29 13 17
19 20 25 10 4 -7 4 -20 1 -29z m-9 -76 c-3 -5 -10 -10 -16 -10 -5 0 -9 5 -9
10 0 6 7 10 16 10 8 0 12 -4 9 -10z m-685 -81 c0 -15 -7 -19 -32 -19 -39 0
-46 -5 -76 -47 l-23 -33 25 0 c13 0 27 6 30 13 3 6 5 3 3 -7 -1 -10 -11 -24
-22 -30 -11 -6 -31 -17 -45 -25 -13 -8 -37 -15 -53 -15 -27 -1 -28 1 -24 30 3
18 1 36 -5 42 -7 7 -6 16 1 30 6 10 8 22 5 25 -8 7 15 49 24 43 4 -2 31 1 60
8 73 16 132 10 132 -15z m570 1 c0 -5 -2 -10 -4 -10 -3 0 -8 5 -11 10 -3 6 -1
10 4 10 6 0 11 -4 11 -10z m40 -74 c0 -3 -4 -8 -10 -11 -5 -3 -10 -1 -10 4 0
6 5 11 10 11 6 0 10 -2 10 -4z m-370 -26 c0 -5 -7 -10 -16 -10 -8 0 -12 5 -9
10 3 6 10 10 16 10 5 0 9 -4 9 -10z m402 -50 c3 -22 -1 -25 -31 -28 -18 -2
-38 1 -44 7 -19 19 -46 -10 -40 -42 5 -23 3 -29 -8 -25 -8 3 -14 17 -14 31 1
14 -3 25 -8 24 -5 -1 -12 4 -14 11 -3 7 3 12 13 12 10 0 28 10 41 22 20 18 26
20 33 8 7 -11 12 -11 32 2 26 18 36 13 40 -22z m-634 -6 c-4 -24 -36 -30 -44
-9 -4 10 1 21 12 30 22 16 37 5 32 -21z m236 -37 c-8 -21 -79 -67 -103 -67
-31 0 -34 18 -4 22 17 2 32 12 38 26 6 13 19 22 32 22 12 0 25 5 28 11 10 15
17 5 9 -14z m-194 -1 c0 -20 -19 -31 -32 -18 -6 6 -7 15 -4 21 10 16 36 13 36
-3z m-305 -66 c8 -13 -3 -50 -15 -50 -12 0 -23 37 -15 50 3 5 10 10 15 10 5 0
12 -5 15 -10z m611 -31 c3 -6 1 -16 -5 -22 -9 -9 -14 -8 -21 3 -9 15 -4 30 10
30 5 0 12 -5 16 -11z m112 -42 c2 -28 8 -37 22 -37 25 0 35 -17 20 -35 -17
-21 -37 -18 -43 5 -3 11 -11 19 -19 18 -9 -2 -13 10 -13 45 0 37 3 47 15 45 9
-2 16 -17 18 -41z m131 -30 c13 -16 -4 -37 -30 -37 -27 0 -34 21 -14 37 23 16
30 16 44 0z m-204 -56 c-3 -6 -11 -11 -17 -11 -6 0 -6 6 2 15 14 17 26 13 15
-4z m305 -81 c0 -5 -4 -10 -10 -10 -5 0 -10 5 -10 10 0 6 5 10 10 10 6 0 10
-4 10 -10z"/>
<path d="M745 11691 l-30 -7 39 -8 c21 -4 40 -5 43 -2 6 6 -6 26 -15 25 -4 -1
-20 -4 -37 -8z"/>
<path d="M860 11674 c0 -14 101 -47 112 -36 5 5 3 13 -5 20 -18 15 -107 28
-107 16z"/>
<path d="M1700 11556 c0 -24 33 -77 57 -91 27 -16 48 -56 60 -118 4 -23 -3
-36 -41 -77 -51 -54 -60 -90 -23 -90 30 0 107 71 107 98 0 17 6 22 25 22 29 0
30 9 10 65 -8 22 -15 58 -15 80 -1 52 -24 79 -80 95 -67 18 -100 23 -100 16z"/>
<path d="M660 11500 c0 -5 4 -10 9 -10 5 0 16 -3 25 -6 11 -4 16 -1 16 10 0
10 -9 16 -25 16 -14 0 -25 -4 -25 -10z"/>
<path d="M557 11462 c-10 -10 -17 -23 -17 -29 0 -26 67 -49 128 -44 21 2 13
31 -13 43 -14 6 -25 19 -25 30 0 24 -51 25 -73 0z"/>
<path d="M712 11459 c2 -7 10 -15 17 -17 8 -3 12 1 9 9 -2 7 -10 15 -17 17 -8
3 -12 -1 -9 -9z"/>
<path d="M5200 11402 c0 -9 80 -72 92 -72 16 0 7 17 -25 48 -30 30 -67 43 -67
24z"/>
<path d="M2500 11234 c0 -17 22 -14 28 4 2 7 -3 12 -12 12 -9 0 -16 -7 -16
-16z"/>
<path d="M1997 10954 c-25 -26 23 -65 79 -64 19 1 18 1 -1 16 -11 8 -20 22
-20 32 0 18 -44 30 -58 16z"/>
<path d="M1957 10793 c-11 -10 -8 -53 3 -53 13 0 32 38 25 50 -7 12 -19 13
-28 3z"/>
<path d="M2059 10737 c6 -8 8 -17 4 -20 -9 -10 -57 -9 -68 1 -17 14 -185 2
-185 -13 0 -13 26 -18 165 -31 39 -4 73 -8 77 -11 4 -2 -7 -17 -25 -33 l-32
-29 33 -1 c40 0 93 23 119 52 17 19 17 20 -7 39 -14 11 -36 28 -50 39 -29 23
-48 27 -31 7z"/>
<path d="M5152 10578 c3 -7 38 -27 79 -44 62 -25 74 -34 72 -52 -3 -27 29 -38
68 -22 38 16 39 47 2 56 -39 9 -122 39 -158 58 -36 19 -68 21 -63 4z"/>
<path d="M4075 10217 c-4 -10 -5 -21 -1 -24 10 -10 18 4 13 24 -4 17 -4 17
-12 0z"/>
<path d="M5480 10061 c0 -21 6 -30 21 -34 12 -3 19 -9 16 -14 -7 -11 21 -48
30 -39 4 4 2 16 -5 26 -16 26 -15 40 3 40 21 0 19 9 -7 31 -35 28 -58 25 -58
-10z"/>
<path d="M5581 9989 c-22 -24 -29 -69 -10 -69 5 0 17 -16 25 -35 8 -20 27 -41
47 -51 l32 -17 -27 -9 c-16 -6 -28 -16 -28 -24 0 -19 28 -30 42 -16 8 8 17 8
31 1 25 -14 44 3 22 21 -8 7 -15 22 -15 34 0 11 -14 34 -30 50 -17 16 -31 36
-31 45 -1 9 -2 32 -3 51 -1 43 -25 51 -55 19z"/>
<path d="M5670 9941 c0 -19 27 -71 33 -65 4 4 2 13 -4 20 -7 9 -7 19 1 33 9
18 8 21 -10 21 -11 0 -20 -4 -20 -9z"/>
<path d="M5 9750 c-3 -5 1 -10 10 -10 9 0 13 5 10 10 -3 6 -8 10 -10 10 -2 0
-7 -4 -10 -10z"/>
<path d="M5620 9725 c0 -10 29 -24 34 -17 3 6 -3 12 -14 15 -11 3 -20 4 -20 2z"/>
<path d="M5545 9700 c3 -5 8 -10 11 -10 2 0 4 5 4 10 0 6 -5 10 -11 10 -5 0
-7 -4 -4 -10z"/>
<path d="M2146 9605 c-9 -14 -23 -25 -31 -25 -8 0 -19 -9 -25 -20 -6 -12 -21
-20 -35 -20 -18 0 -25 -6 -25 -18 0 -23 -35 -56 -49 -48 -5 4 -15 -3 -21 -14
-6 -11 -20 -20 -30 -20 -11 0 -20 -4 -20 -8 0 -4 -22 -16 -50 -27 -45 -17 -50
-23 -50 -50 0 -47 13 -59 35 -35 10 11 24 20 31 20 6 0 32 11 55 25 24 14 51
25 60 25 8 0 31 14 49 30 18 17 41 30 51 30 9 0 19 6 22 14 6 16 63 46 87 46
10 0 29 15 43 33 24 31 24 34 9 54 -10 11 -33 24 -53 27 -32 6 -39 3 -53 -19z"/>
<path d="M1154 9335 c-10 -8 -14 -15 -8 -15 5 0 19 7 30 15 10 8 14 15 8 15
-5 0 -19 -7 -30 -15z"/>
<path d="M2580 9294 l-25 -14 29 2 c16 2 31 9 34 16 5 16 -7 15 -38 -4z"/>
<path d="M1168 9273 c7 -3 16 -2 19 1 4 3 -2 6 -13 5 -11 0 -14 -3 -6 -6z"/>
<path d="M1158 9213 c-16 -2 -28 -9 -28 -14 0 -5 10 -7 23 -4 25 6 41 -2 50
-25 3 -8 6 0 6 18 1 20 -4 31 -11 31 -7 -1 -25 -4 -40 -6z"/>
<path d="M1136 9137 c3 -10 9 -15 12 -12 3 3 0 11 -7 18 -10 9 -11 8 -5 -6z"/>
<path d="M1215 9050 c-3 -5 -1 -10 4 -10 6 0 11 5 11 10 0 6 -2 10 -4 10 -3 0
-8 -4 -11 -10z"/>
<path d="M2635 9051 c-3 -5 -1 -12 5 -16 5 -3 10 1 10 9 0 18 -6 21 -15 7z"/>
<path d="M2451 9021 c-14 -4 -27 -13 -29 -20 -6 -18 67 -6 88 15 12 12 11 14
-10 13 -14 -1 -36 -4 -49 -8z"/>
<path d="M935 8980 c3 -5 11 -10 16 -10 6 0 7 5 4 10 -3 6 -11 10 -16 10 -6 0
-7 -4 -4 -10z"/>
<path d="M2555 8910 c4 -6 11 -8 16 -5 14 9 11 15 -7 15 -8 0 -12 -5 -9 -10z"/>
<path d="M4630 8874 c0 -8 5 -12 10 -9 6 3 10 10 10 16 0 5 -4 9 -10 9 -5 0
-10 -7 -10 -16z"/>
<path d="M1266 8751 c-3 -5 1 -11 9 -15 8 -3 15 -1 15 4 0 13 -18 22 -24 11z"/>
<path d="M1790 8740 c0 -5 5 -10 11 -10 5 0 7 5 4 10 -3 6 -8 10 -11 10 -2 0
-4 -4 -4 -10z"/>
<path d="M1633 8726 c-3 -4 -1 -11 4 -15 6 -3 13 -15 17 -26 4 -11 27 -42 51
-69 l44 -49 34 29 c52 44 63 67 43 95 -19 28 -54 32 -67 7 -12 -22 -29 -24
-29 -3 0 11 -7 14 -24 9 -27 -6 -46 13 -26 26 8 5 3 7 -14 7 -16 -1 -30 -6
-33 -11z"/>
<path d="M1990 8705 c-7 -8 -18 -15 -25 -15 -8 0 -20 -14 -29 -31 -15 -29 -14
-30 7 -27 13 2 23 11 25 23 1 11 16 26 32 34 17 7 28 17 24 22 -8 13 -20 11
-34 -6z"/>
<path d="M2109 8703 c-13 -15 -12 -15 9 -4 23 12 28 21 13 21 -5 0 -15 -7 -22
-17z"/>
<path d="M2740 8710 c0 -5 10 -10 23 -10 18 0 19 2 7 10 -19 13 -30 13 -30 0z"/>
<path d="M2249 8694 c-10 -13 -10 -17 1 -24 7 -4 11 -17 7 -29 -6 -24 8 -29
17 -5 9 23 7 62 -3 68 -5 3 -15 -1 -22 -10z"/>
<path d="M2106 8654 c-8 -22 16 -55 33 -45 10 6 10 10 2 16 -7 3 -9 15 -6 26
8 24 -20 27 -29 3z"/>
<path d="M276 8648 c-8 -18 20 -88 35 -88 12 0 11 14 -2 27 -6 6 -15 26 -19
45 -5 25 -9 29 -14 16z"/>
<path d="M2190 8637 c0 -19 -4 -25 -15 -21 -8 4 -15 1 -15 -5 0 -6 5 -11 10
-11 15 0 12 -16 -5 -34 -20 -20 -19 -56 3 -72 23 -18 35 -17 28 1 -4 10 1 15
14 15 13 0 20 7 20 19 0 14 8 21 27 23 41 5 41 28 0 28 -40 0 -63 20 -45 38 9
9 8 16 -5 29 -16 16 -17 16 -17 -10z"/>
<path d="M1654 8639 c-3 -6 -1 -16 5 -22 8 -8 11 -5 11 11 0 24 -5 28 -16 11z"/>
<path d="M2380 8626 c0 -14 29 -31 38 -21 6 6 -18 35 -29 35 -5 0 -9 -6 -9
-14z"/>
<path d="M2520 8625 c0 -8 6 -15 14 -15 8 0 23 -3 33 -6 13 -4 11 0 -7 15 -30
25 -40 26 -40 6z"/>
<path d="M1857 8582 c-39 -40 -45 -52 -25 -52 10 0 88 77 88 87 0 14 -33 -4
-63 -35z"/>
<path d="M2039 8574 c-12 -14 -11 -16 5 -13 11 2 21 10 24 17 5 17 -13 15 -29
-4z"/>
<path d="M2660 8505 c-39 -41 -35 -58 5 -21 16 15 31 26 35 26 4 0 10 7 14 15
10 27 -19 16 -54 -20z"/>
<path d="M2305 8435 c48 -16 75 -18 75 -6 0 10 -51 21 -89 20 -22 -1 -20 -3
14 -14z"/>
<path d="M1515 8432 c-3 -3 -5 -16 -5 -28 0 -24 26 -44 48 -37 6 3 12 0 12 -6
0 -6 -5 -11 -11 -11 -6 0 -9 -6 -6 -14 4 -9 -2 -14 -16 -15 -12 0 -52 -2 -89
-4 -58 -3 -70 -6 -87 -28 -15 -20 -17 -29 -9 -37 17 -17 28 -15 28 7 0 26 46
41 82 27 33 -12 36 -22 8 -29 -14 -3 -20 -14 -20 -31 0 -14 -4 -26 -10 -26 -5
0 -10 -7 -10 -15 0 -13 7 -15 33 -10 44 8 89 -24 68 -48 -7 -9 -22 -17 -33
-19 -28 -4 -36 -28 -10 -28 11 0 34 16 51 35 17 19 39 35 49 35 10 0 27 6 37
14 16 12 17 16 6 30 -8 9 -34 26 -60 38 l-46 21 27 10 c27 11 53 51 43 68 -4
5 -1 9 5 9 12 0 49 39 50 53 0 4 -11 7 -24 7 -13 0 -29 6 -35 14 -12 14 -67
27 -76 18z m65 -236 c0 -21 -20 -30 -33 -17 -9 9 -8 14 3 21 21 14 30 12 30
-4z"/>
<path d="M325 8419 c-13 -20 6 -60 38 -79 48 -30 68 -24 24 7 -28 20 -37 33
-37 55 0 28 -13 37 -25 17z"/>
<path d="M2576 8394 c-39 -40 -45 -74 -11 -66 74 16 96 25 125 51 33 29 34 51
1 51 -9 0 -23 -6 -29 -12 -10 -10 -17 -10 -32 0 -17 10 -24 7 -54 -24z m54 -8
c0 -3 -4 -8 -10 -11 -5 -3 -10 -1 -10 4 0 6 5 11 10 11 6 0 10 -2 10 -4z"/>
<path d="M529 8403 c-13 -16 -12 -17 4 -4 16 13 21 21 13 21 -2 0 -10 -8 -17
-17z"/>
<path d="M2180 8400 c-13 -8 -13 -10 2 -10 9 0 20 5 23 10 8 13 -5 13 -25 0z"/>
<path d="M4400 8399 c0 -6 7 -17 15 -25 16 -16 19 -7 9 20 -7 18 -24 22 -24 5z"/>
<path d="M2452 8382 c-10 -7 -8 -14 8 -33 20 -24 20 -24 35 -4 8 10 14 24 12
30 -5 13 -38 17 -55 7z"/>
<path d="M1393 8353 c9 -2 23 -2 30 0 6 3 -1 5 -18 5 -16 0 -22 -2 -12 -5z"/>
<path d="M435 8310 c3 -5 8 -10 11 -10 2 0 4 5 4 10 0 6 -5 10 -11 10 -5 0 -7
-4 -4 -10z"/>
<path d="M1751 8273 c25 -33 46 -51 77 -67 18 -9 32 -25 34 -38 2 -17 11 -24
31 -26 15 -2 27 -9 27 -18 0 -8 13 -22 30 -33 16 -10 27 -21 23 -24 -3 -4 -1
-7 6 -7 15 0 41 25 41 39 0 6 7 11 15 11 22 0 18 17 -5 23 -11 3 -24 16 -29
30 -6 14 -20 29 -33 32 -13 4 -36 16 -51 27 -19 14 -31 17 -40 10 -8 -7 -18
-6 -31 4 -11 8 -27 14 -36 14 -9 0 -25 9 -35 20 -22 25 -43 27 -24 3z m149
-68 c0 -8 -7 -15 -15 -15 -8 0 -15 7 -15 15 0 8 7 15 15 15 8 0 15 -7 15 -15z"/>
<path d="M1120 8212 c0 -13 38 -23 46 -11 3 5 1 9 -5 9 -5 0 -16 3 -25 6 -9 3
-16 2 -16 -4z"/>
<path d="M1070 8180 c0 -5 7 -10 15 -10 8 0 15 5 15 10 0 6 -7 10 -15 10 -8 0
-15 -4 -15 -10z"/>
<path d="M4630 8160 c0 -5 5 -10 11 -10 5 0 7 5 4 10 -3 6 -8 10 -11 10 -2 0
-4 -4 -4 -10z"/>
<path d="M2275 8150 c-3 -6 1 -13 10 -16 19 -8 30 0 20 15 -8 14 -22 14 -30 1z"/>
<path d="M4560 8101 c0 -20 8 -34 26 -46 31 -20 44 -12 22 12 -9 10 -19 28
-22 41 -10 31 -26 27 -26 -7z"/>
<path d="M1710 8085 c0 -9 6 -12 15 -9 8 4 15 10 15 15 0 5 -7 9 -15 9 -8 0
-15 -7 -15 -15z"/>
<path d="M1400 8080 c0 -5 7 -10 15 -10 8 0 15 5 15 10 0 6 -7 10 -15 10 -8 0
-15 -4 -15 -10z"/>
<path d="M2096 8048 c-9 -34 -7 -88 2 -88 17 0 41 36 40 60 -3 47 -31 66 -42
28z"/>
<path d="M988 7993 c7 -3 16 -2 19 1 4 3 -2 6 -13 5 -11 0 -14 -3 -6 -6z"/>
<path d="M1930 7919 c-6 -23 -9 -43 -6 -46 7 -8 46 7 46 18 0 5 9 9 20 9 26 0
25 17 -2 41 -34 28 -46 23 -58 -22z"/>
<path d="M1615 7940 c3 -5 11 -10 16 -10 6 0 7 5 4 10 -3 6 -11 10 -16 10 -6
0 -7 -4 -4 -10z"/>
<path d="M1820 7940 c0 -5 5 -10 10 -10 6 0 10 5 10 10 0 6 -4 10 -10 10 -5 0
-10 -4 -10 -10z"/>
<path d="M1794 7898 c-23 -26 -44 -71 -44 -94 0 -22 19 -7 31 24 l11 27 14
-27 c14 -26 15 -27 32 -10 25 24 17 50 -14 44 -26 -5 -30 7 -14 39 14 25 8 24
-16 -3z"/>
<path d="M2502 7829 c1 -12 9 -24 16 -27 9 -3 13 3 10 19 -1 12 -9 24 -16 27
-9 3 -13 -3 -10 -19z"/>
<path d="M2006 7814 c-3 -9 -6 -23 -6 -32 0 -15 2 -15 10 -2 7 12 12 12 21 3
16 -16 -8 -46 -29 -38 -14 5 -31 -10 -32 -27 0 -5 11 -8 25 -8 18 0 31 9 43
30 11 20 28 32 50 36 44 8 40 22 -8 30 -22 4 -43 11 -46 15 -8 14 -21 11 -28
-7z"/>
<path d="M1640 7755 c0 -8 5 -15 10 -15 6 0 10 7 10 15 0 8 -4 15 -10 15 -5 0
-10 -7 -10 -15z"/>
<path d="M2098 7723 c-16 -18 -58 -97 -58 -108 0 -3 10 -1 22 6 18 10 20 9 15
-5 -5 -13 -3 -14 13 -3 11 6 18 18 15 26 -3 8 6 31 19 51 14 21 22 41 19 44
-11 11 -30 6 -45 -11z"/>
<path d="M1955 7659 c-4 -6 -5 -12 -2 -15 2 -3 7 2 10 11 7 17 1 20 -8 4z"/>
<path d="M1045 7590 c10 -11 20 -20 22 -20 2 0 -1 9 -7 20 -6 11 -16 20 -22
20 -6 0 -3 -9 7 -20z"/>
<path d="M2041 7567 c-13 -21 -12 -21 5 -5 10 10 16 20 13 22 -3 3 -11 -5 -18
-17z"/>
<path d="M6687 7558 c-7 -24 7 -38 36 -38 22 0 22 4 -7 35 l-24 25 -5 -22z"/>
<path d="M2100 7561 c0 -4 -13 -25 -30 -46 -34 -43 -30 -69 4 -28 23 28 46 67
46 77 0 3 -4 6 -10 6 -5 0 -10 -4 -10 -9z"/>
<path d="M2116 7475 c-27 -25 -46 -48 -43 -52 7 -7 107 75 107 88 0 17 -15 9
-64 -36z"/>
<path d="M1610 7463 c0 -13 12 -23 36 -32 19 -7 38 -10 41 -7 4 3 1 6 -5 6 -6
0 -24 12 -41 26 -28 23 -31 24 -31 7z"/>
<path d="M1842 7450 c0 -19 2 -27 5 -17 2 9 2 25 0 35 -3 9 -5 1 -5 -18z"/>
<path d="M2270 7420 c0 -5 23 -10 51 -10 31 0 48 4 44 10 -3 6 -26 10 -51 10
-24 0 -44 -4 -44 -10z"/>
<path d="M1957 7393 c-4 -3 -7 -13 -7 -22 1 -13 3 -13 11 2 11 19 8 33 -4 20z"/>
<path d="M1731 7374 c0 -11 3 -14 6 -6 3 7 2 16 -1 19 -3 4 -6 -2 -5 -13z"/>
<path d="M1660 7353 c0 -20 9 -41 24 -56 12 -13 25 -30 28 -38 3 -8 9 -10 14
-6 4 4 3 17 -4 27 -7 11 -12 25 -12 32 -1 7 -12 27 -25 43 l-25 30 0 -32z"/>
<path d="M2090 7308 c0 -7 -14 -21 -30 -30 -17 -9 -30 -24 -30 -33 0 -21 7
-19 51 16 40 31 51 59 24 59 -8 0 -15 -6 -15 -12z"/>
<path d="M1931 7296 c-5 -6 -8 -21 -6 -31 2 -11 4 -24 4 -28 1 -10 61 31 61
41 0 4 -11 12 -25 18 -18 9 -27 9 -34 0z"/>
<path d="M856 7261 c21 -21 29 -19 21 4 -4 8 -14 15 -23 15 -16 0 -16 -2 2
-19z"/>
<path d="M1460 7270 c0 -5 7 -10 15 -10 8 0 15 5 15 10 0 6 -7 10 -15 10 -8 0
-15 -4 -15 -10z"/>
<path d="M1158 7253 c7 -3 16 -2 19 1 4 3 -2 6 -13 5 -11 0 -14 -3 -6 -6z"/>
<path d="M1763 7203 c9 -9 19 -14 23 -11 10 10 -6 28 -24 28 -15 0 -15 -1 1
-17z"/>
<path d="M1910 7185 c0 -8 5 -15 10 -15 6 0 10 7 10 15 0 8 -4 15 -10 15 -5 0
-10 -7 -10 -15z"/>
<path d="M1155 7180 c3 -5 8 -10 11 -10 2 0 4 5 4 10 0 6 -5 10 -11 10 -5 0
-7 -4 -4 -10z"/>
<path d="M1857 7159 c7 -7 15 -10 18 -7 3 3 -2 9 -12 12 -14 6 -15 5 -6 -5z"/>
<path d="M1160 7120 c0 -5 5 -10 10 -10 6 0 10 5 10 10 0 6 -4 10 -10 10 -5 0
-10 -4 -10 -10z"/>
<path d="M1685 7119 c-4 -6 -5 -13 -2 -16 7 -7 27 6 27 18 0 12 -17 12 -25 -2z"/>
<path d="M1430 7100 c0 -5 5 -10 11 -10 5 0 7 5 4 10 -3 6 -8 10 -11 10 -2 0
-4 -4 -4 -10z"/>
<path d="M1715 7099 c-4 -6 -4 -13 -1 -16 8 -8 36 5 36 17 0 13 -27 13 -35 -1z"/>
<path d="M2037 7058 c-4 -15 2 -33 18 -54 14 -18 25 -42 25 -53 0 -31 17 -25
29 10 15 44 14 69 -3 69 -8 0 -21 8 -28 18 -22 30 -35 33 -41 10z"/>
<path d="M1193 7050 c-13 -19 -8 -50 7 -50 17 0 22 22 9 32 -12 7 -11 9 1 7
28 -3 40 1 40 12 0 6 -7 9 -15 5 -8 -3 -15 -1 -15 4 0 16 -14 11 -27 -10z"/>
<path d="M5350 7035 c0 -29 -5 -37 -25 -45 -18 -7 -25 -17 -25 -36 0 -21 -4
-25 -20 -21 -25 6 -36 -9 -19 -29 6 -8 10 -16 8 -17 -34 -24 -60 -35 -75 -31
-11 3 -28 -2 -39 -10 -19 -15 -17 -16 25 -13 25 2 55 8 67 15 33 18 51 15 69
-13 23 -35 45 -33 38 4 -9 42 13 49 43 15 l24 -29 -5 27 c-5 23 -2 30 21 41
29 14 59 12 81 -5 18 -16 15 -25 -13 -32 -14 -4 -25 -13 -25 -21 0 -7 -10 -17
-21 -20 -19 -6 -19 -9 -6 -22 21 -21 97 -30 107 -12 7 11 12 10 28 -4 18 -16
20 -16 26 -2 4 11 12 14 26 10 14 -5 20 -2 20 9 0 9 -4 16 -10 16 -21 0 -26 4
-49 39 -34 52 -61 71 -101 71 -42 0 -73 16 -50 24 8 3 37 9 64 13 60 10 67 23
24 42 -35 16 -73 17 -126 6 -30 -7 -32 -5 -38 24 -9 45 -24 49 -24 6z m85 -65
c3 -5 -1 -10 -9 -10 -9 0 -16 5 -16 10 0 6 4 10 9 10 6 0 13 -4 16 -10z"/>
<path d="M2175 7030 c3 -5 10 -10 16 -10 5 0 9 5 9 10 0 6 -7 10 -16 10 -8 0
-12 -4 -9 -10z"/>
<path d="M2150 7006 c0 -9 5 -16 10 -16 6 0 10 4 10 9 0 6 -4 13 -10 16 -5 3
-10 -1 -10 -9z"/>
<path d="M2182 6988 c3 -7 13 -15 22 -16 12 -3 17 1 14 10 -3 7 -13 15 -22 16
-12 3 -17 -1 -14 -10z"/>
<path d="M1664 6915 c4 -44 11 -82 16 -83 16 -6 40 -58 41 -89 1 -20 4 -16 10
17 10 53 5 76 -22 90 -15 8 -19 21 -19 58 0 29 -6 56 -16 68 -14 17 -15 13
-10 -61z"/>
<path d="M1970 6961 c0 -17 12 -41 20 -41 10 0 1 38 -11 46 -5 3 -9 1 -9 -5z"/>
<path d="M6257 6918 c-6 -18 12 -50 24 -43 15 10 11 55 -5 55 -8 0 -16 -6 -19
-12z"/>
<path d="M1600 6854 c0 -8 5 -12 10 -9 6 3 10 10 10 16 0 5 -4 9 -10 9 -5 0
-10 -7 -10 -16z"/>
<path d="M1986 6863 c-11 -12 -6 -60 8 -72 19 -16 27 0 20 38 -7 33 -17 45
-28 34z"/>
<path d="M4660 6842 c0 -29 -120 -130 -147 -124 -7 2 -10 -3 -7 -11 4 -13 -15
-28 -38 -31 -4 -1 -15 -11 -23 -23 -9 -13 -23 -23 -31 -23 -8 0 -14 -4 -14
-10 0 -14 13 -13 28 2 17 17 28 0 14 -22 -7 -11 -12 -26 -12 -33 0 -7 -9 -23
-21 -36 -16 -17 -27 -21 -50 -16 -20 5 -29 3 -30 -7 -1 -7 -2 -24 -2 -38 -2
-20 -8 -26 -34 -28 -21 -2 -35 3 -45 16 -10 15 -24 18 -65 16 -29 -1 -53 2
-53 7 0 5 -8 9 -19 9 -10 0 -24 7 -31 15 -7 8 -21 15 -31 15 -11 0 -19 5 -19
10 0 6 -11 15 -24 19 -13 5 -32 28 -44 53 -11 24 -28 52 -37 63 -16 19 -16 17
-11 -34 3 -30 11 -58 17 -61 6 -4 8 -17 5 -28 -4 -12 -2 -23 6 -28 6 -4 14 -2
16 4 2 7 8 12 13 12 6 0 6 -7 0 -19 -12 -21 -5 -31 21 -31 10 0 18 -5 18 -11
0 -7 12 -10 29 -7 28 4 28 3 19 -24 -6 -15 -14 -28 -19 -28 -5 0 -9 -7 -9 -15
0 -8 3 -15 8 -15 10 0 36 31 45 53 9 24 37 21 37 -3 0 -11 -3 -20 -7 -20 -32
-1 -39 -50 -7 -50 8 0 15 -4 15 -10 2 -10 5 -24 9 -37 1 -5 5 3 9 17 4 16 14
25 26 25 21 0 23 -15 10 -49 -7 -15 -5 -17 13 -11 24 7 28 -5 12 -35 -7 -13
-6 -21 4 -29 14 -12 11 -33 -9 -83 -4 -11 0 -18 14 -23 22 -7 18 -32 -7 -51
-22 -16 -9 -38 24 -40 47 -2 50 -4 30 -19 -27 -21 -13 -45 27 -45 18 0 38 -5
44 -11 17 -17 33 -1 33 32 0 19 5 29 15 29 9 0 15 -9 15 -21 0 -39 23 -13 42
46 29 92 33 134 15 141 -12 4 -13 12 -6 37 5 18 9 45 9 62 0 16 9 45 20 63
l21 34 -21 -7 c-15 -5 -20 -2 -20 14 0 42 19 71 50 77 28 6 43 24 20 24 -16 0
-12 30 5 36 8 4 15 17 15 30 0 13 9 33 20 44 24 24 25 36 3 44 -14 6 -12 11
13 37 32 34 104 75 104 59 0 -5 -4 -10 -10 -10 -5 0 -10 -4 -10 -10 0 -5 9 -6
21 -2 31 12 38 87 9 102 -11 6 -17 16 -14 25 4 8 1 15 -5 15 -6 0 -11 -8 -11
-18z m-630 -336 c0 -3 -4 -8 -10 -11 -5 -3 -10 -1 -10 4 0 6 5 11 10 11 6 0
10 -2 10 -4z m120 -137 c0 -5 -4 -9 -10 -9 -5 0 -10 7 -10 16 0 8 5 12 10 9 6
-3 10 -10 10 -16z"/>
<path d="M1510 6840 c0 -5 5 -10 10 -10 6 0 10 5 10 10 0 6 -4 10 -10 10 -5 0
-10 -4 -10 -10z"/>
<path d="M2430 6840 c-11 -7 -12 -12 -3 -21 8 -8 14 -6 22 10 12 22 5 27 -19
11z"/>
<path d="M1417 6813 c-10 -16 11 -39 23 -27 8 8 7 14 -4 23 -8 7 -17 8 -19 4z"/>
<path d="M1556 6794 c-4 -10 -1 -14 6 -12 15 5 23 28 10 28 -5 0 -13 -7 -16
-16z"/>
<path d="M1650 6744 c-14 -6 -51 -24 -82 -39 -59 -27 -74 -45 -38 -45 11 0 20
3 20 8 0 4 20 18 45 32 42 23 46 23 61 8 16 -15 16 -19 0 -52 -9 -20 -20 -37
-24 -37 -4 -1 -18 -2 -32 -3 -33 -3 -103 -28 -112 -41 -16 -22 -8 -45 14 -42
32 3 33 -25 2 -56 -25 -25 -25 -27 -6 -27 11 0 23 7 26 16 3 9 13 14 21 11 7
-3 35 5 60 19 49 25 75 31 75 14 0 -17 20 -11 44 13 13 12 33 53 45 90 22 68
23 98 1 58 -14 -27 -50 -28 -50 -2 0 10 -9 21 -19 24 -13 3 -21 15 -23 34 -3
27 -5 28 -28 17z m-20 -178 c0 -11 -19 -15 -25 -6 -3 5 1 10 9 10 9 0 16 -2
16 -4z"/>
<path d="M5480 6715 c0 -22 -6 -38 -15 -41 -22 -9 -9 -23 15 -17 16 4 20 0 20
-20 0 -21 -10 -31 -52 -52 -29 -15 -57 -31 -62 -36 -6 -5 -17 -2 -28 8 -17 15
-18 14 -18 -29 0 -47 10 -58 49 -58 9 0 39 -11 67 -24 27 -12 64 -26 82 -29
18 -4 40 -14 48 -22 15 -15 34 -12 34 4 0 19 -55 61 -79 61 -20 0 -29 7 -38
30 -6 17 -18 30 -27 30 -22 0 -20 27 3 40 32 16 51 12 61 -15 13 -34 33 -31
64 9 32 42 32 46 3 46 -12 0 -28 9 -35 20 -10 17 -10 20 3 20 31 0 15 29 -17
32 -27 2 -34 8 -36 28 -8 55 -42 67 -42 15z"/>
<path d="M5546 6741 c-4 -5 1 -16 9 -23 9 -7 22 -19 30 -25 18 -17 30 -16 44
1 9 10 7 17 -5 27 -9 7 -21 14 -28 15 -6 1 -18 5 -27 9 -10 3 -20 2 -23 -4z"/>
<path d="M5699 6714 c-9 -11 -2 -22 35 -58 l47 -44 -35 -12 c-30 -10 -34 -14
-26 -30 7 -13 5 -21 -5 -30 -21 -17 -19 -30 5 -30 18 0 25 10 21 33 0 4 5 7
12 7 15 0 41 -65 32 -80 -3 -6 -3 -20 0 -31 6 -17 13 -20 38 -16 22 3 36 -1
44 -12 9 -13 16 -14 30 -5 39 25 5 156 -44 169 -17 4 -29 2 -31 -4 -5 -14 -29
-14 -37 -1 -10 17 5 70 21 70 8 0 14 10 14 25 0 19 -6 26 -27 30 -16 3 -40 12
-55 20 -23 11 -29 11 -39 -1z m141 -174 c0 -5 -2 -10 -4 -10 -3 0 -8 5 -11 10
-3 6 -1 10 4 10 6 0 11 -4 11 -10z"/>
<path d="M6120 6721 c0 -6 5 -13 10 -16 6 -3 10 1 10 9 0 9 -4 16 -10 16 -5 0
-10 -4 -10 -9z"/>
<path d="M466 6682 c-4 -7 -3 -19 2 -28 12 -21 22 -5 12 20 -4 13 -9 16 -14 8z"/>
<path d="M5932 6640 c1 -19 -6 -36 -18 -44 -18 -13 -16 -17 32 -73 47 -53 79
-73 79 -48 0 17 16 36 25 30 5 -3 2 8 -6 25 -9 17 -28 37 -44 45 -17 9 -33 28
-40 50 -15 46 -29 53 -28 15z"/>
<path d="M1845 6640 c-23 -25 -28 -50 -11 -50 15 0 40 27 49 53 9 24 -15 22
-38 -3z"/>
<path d="M1500 6640 c0 -5 5 -10 10 -10 6 0 10 5 10 10 0 6 -4 10 -10 10 -5 0
-10 -4 -10 -10z"/>
<path d="M5215 6630 c36 -24 45 -25 45 -6 0 16 -21 26 -53 26 -20 0 -19 -2 8
-20z"/>
<path d="M6221 6622 c-8 -15 -3 -27 29 -60 22 -23 40 -48 40 -57 0 -18 -12
-19 -29 -2 -10 10 -11 9 -6 -5 4 -11 2 -18 -4 -18 -6 0 -11 -6 -11 -13 0 -7
13 -12 33 -12 32 0 32 0 37 -58 5 -60 23 -82 28 -34 4 33 19 36 24 5 2 -14 10
-23 19 -22 24 2 34 -70 14 -99 l-15 -21 0 22 c0 12 -7 25 -15 28 -8 4 -15 12
-15 20 0 23 -16 16 -28 -11 -17 -36 -15 -65 6 -88 16 -19 16 -20 -5 -34 -13
-9 -23 -26 -23 -39 0 -21 -4 -23 -25 -18 -14 3 -36 7 -50 8 -23 1 -25 4 -19
31 3 17 10 37 15 45 7 12 10 11 15 -7 7 -26 12 -27 37 -9 23 18 22 22 -15 41
-30 15 -34 15 -45 -2 -10 -13 -16 -14 -25 -5 -7 7 -28 12 -47 12 -28 0 -42 8
-75 45 -23 25 -45 45 -50 45 -15 0 7 -43 33 -66 22 -19 24 -25 13 -36 -11 -11
-17 -8 -36 15 -14 17 -31 27 -42 26 -26 -5 -86 21 -102 43 -7 10 -21 18 -30
18 -14 -1 -13 -4 6 -19 12 -11 22 -29 22 -41 0 -18 4 -21 22 -17 27 7 105 -29
119 -55 5 -10 16 -18 24 -18 8 0 15 -7 15 -15 0 -8 -6 -15 -13 -15 -7 0 -21
-6 -32 -13 -17 -13 -17 -14 3 -19 13 -4 20 -1 19 5 -1 6 8 13 20 15 18 3 22
-2 25 -29 4 -40 28 -52 28 -14 0 33 24 29 29 -6 1 -13 8 -27 14 -31 8 -5 8
-16 0 -42 -6 -19 -9 -37 -6 -40 9 -9 33 6 33 21 0 8 5 11 11 8 6 -4 8 -13 5
-21 -3 -8 1 -17 10 -21 35 -13 70 -143 38 -143 -19 0 -30 28 -15 43 16 16 14
34 -9 57 -24 24 -30 25 -30 5 0 -8 5 -15 10 -15 6 0 10 -12 9 -27 0 -28 -1
-28 -11 -5 -6 12 -15 22 -21 22 -5 0 -4 -7 3 -15 12 -15 7 -30 -9 -30 -4 0
-15 -8 -25 -17 -10 -10 -13 -18 -7 -18 6 0 11 -5 11 -11 0 -16 -26 -39 -60
-50 -34 -12 -38 -26 -12 -46 12 -9 13 -13 2 -11 -8 2 -15 -4 -15 -12 0 -8 -7
-14 -15 -12 -45 10 -69 9 -74 -4 -3 -8 -15 -14 -26 -14 -14 0 -20 -7 -20 -24
0 -19 4 -22 25 -18 15 2 25 0 25 -7 0 -6 -6 -11 -12 -11 -9 0 -8 -4 2 -10 13
-9 13 -11 1 -19 -8 -5 -20 -7 -27 -4 -6 2 -15 0 -19 -6 -9 -15 -45 -14 -45 2
0 6 -8 0 -18 -16 -10 -15 -22 -24 -25 -20 -4 3 -7 -2 -7 -11 0 -12 -5 -16 -15
-12 -10 4 -15 -1 -15 -14 0 -11 -4 -20 -10 -20 -5 0 -7 -7 -3 -17 5 -13 2 -15
-17 -10 -39 10 -70 -19 -71 -67 0 -22 -3 -35 -6 -29 -7 20 -33 -11 -33 -40 0
-23 -40 -77 -58 -77 -4 0 -16 -17 -26 -37 -10 -21 -17 -38 -15 -38 1 0 -12
-14 -29 -32 -18 -17 -32 -39 -32 -47 0 -9 -4 -16 -10 -16 -5 0 -9 -3 -9 -7 4
-23 -5 -35 -40 -59 -27 -17 -42 -36 -47 -57 -3 -17 -10 -35 -15 -41 -5 -6 -20
-25 -34 -42 -14 -18 -25 -37 -25 -43 0 -6 -11 -13 -25 -17 -14 -3 -25 -12 -25
-19 0 -7 -20 -34 -45 -59 -25 -26 -45 -50 -46 -54 -4 -35 -11 -59 -38 -142
-17 -52 -31 -109 -31 -126 0 -51 -29 -165 -47 -182 -12 -13 -14 -29 -9 -75 3
-33 11 -67 18 -75 15 -18 16 -141 0 -213 -20 -101 -33 -154 -43 -189 -6 -19
-15 -53 -20 -75 -6 -21 -14 -44 -18 -50 -5 -5 -11 -21 -14 -35 -3 -14 -13 -50
-21 -80 -19 -64 -45 -176 -56 -240 -7 -38 -1 -107 15 -170 2 -8 4 -18 4 -22 1
-4 9 -14 19 -24 18 -18 19 -21 21 -53 0 -11 10 -23 21 -26 15 -5 20 -15 20
-43 0 -20 7 -50 16 -67 31 -60 57 -162 71 -285 11 -97 3 -461 -10 -485 -8 -14
-11 -92 -10 -245 3 -237 -11 -399 -40 -480 -9 -25 -19 -75 -23 -113 -3 -37
-12 -73 -19 -80 -11 -11 -10 -23 2 -71 9 -38 11 -61 5 -69 -6 -7 -13 -29 -17
-50 -4 -20 -11 -37 -16 -37 -5 0 -9 -7 -9 -15 0 -8 -7 -15 -16 -15 -14 0 -15
2 -3 17 11 13 11 17 2 20 -7 3 -13 13 -13 24 0 12 -5 16 -15 13 -11 -5 -13 -2
-9 10 3 9 2 16 -3 16 -13 0 -34 -46 -28 -62 2 -7 6 -36 9 -64 3 -28 10 -63 15
-78 6 -14 8 -26 5 -26 -2 0 0 -9 6 -20 6 -11 15 -18 21 -15 5 4 9 -7 9 -24 0
-69 43 -42 55 34 3 25 10 47 14 49 10 6 54 -42 74 -81 21 -39 21 -79 3 -115
-21 -40 5 -38 36 3 27 36 65 76 101 105 22 18 25 27 20 61 -3 21 0 68 5 104
13 79 81 467 93 529 4 25 15 88 24 140 14 90 41 205 99 424 37 139 37 344 1
558 -33 196 -70 361 -85 383 -3 6 -12 29 -18 51 -16 56 -7 358 13 437 8 32 15
69 15 82 0 76 28 70 65 -13 21 -46 49 -87 93 -131 34 -35 70 -78 79 -95 8 -17
23 -40 33 -51 18 -20 90 -157 90 -170 0 -4 26 -46 58 -94 32 -47 66 -106 75
-131 18 -49 76 -267 113 -425 12 -55 32 -134 44 -175 24 -85 66 -271 85 -375
21 -113 32 -165 54 -245 19 -71 37 -175 48 -267 7 -57 21 -55 18 2 -3 39 -1
45 16 45 15 0 19 7 19 33 0 19 3 37 8 41 8 9 12 39 12 115 0 30 8 80 17 110
18 63 20 301 3 347 -13 33 -13 77 1 91 7 7 6 21 -5 48 -9 21 -16 55 -16 76 0
21 -5 50 -11 66 -6 15 -11 44 -11 63 0 31 -40 150 -59 175 -6 9 -23 116 -20
130 0 3 -8 14 -19 25 -11 11 -20 29 -20 40 0 11 -8 25 -19 31 -11 8 -16 19
-13 32 3 12 -1 23 -12 29 -9 5 -16 16 -16 25 0 9 -10 27 -22 40 -12 12 -22 34
-24 48 -1 14 -12 38 -23 54 -12 16 -21 33 -21 38 0 6 -9 18 -20 28 -11 10 -20
26 -20 35 0 9 -4 20 -9 25 -9 10 -31 108 -34 153 -1 12 -5 22 -9 22 -5 0 -7
18 -6 40 1 22 -2 43 -5 46 -3 4 4 15 16 25 l22 18 -22 1 c-13 0 -23 -4 -23
-10 0 -23 -28 4 -29 28 -2 51 -11 137 -21 192 -5 30 -6 57 -1 60 4 3 8 12 9
20 3 41 8 56 24 62 14 6 16 18 11 85 -3 43 -9 92 -13 110 -5 19 -4 33 1 35 6
2 11 22 12 45 1 39 3 42 24 38 14 -2 23 1 23 9 0 8 7 19 15 26 17 14 20 53 5
81 -9 16 -7 19 10 19 21 0 23 6 20 80 -1 25 -7 48 -13 52 -11 7 18 21 68 34
14 3 25 12 25 20 0 11 16 14 65 14 49 0 65 -3 65 -14 0 -8 -7 -16 -15 -20 -17
-6 -21 -36 -5 -36 6 0 10 5 10 10 0 6 5 10 11 10 9 0 10 -21 5 -71 -6 -64 -4
-71 12 -76 17 -4 19 -16 21 -86 1 -45 7 -101 13 -125 8 -31 7 -46 -1 -56 -9
-11 -8 -17 4 -29 8 -9 15 -20 15 -26 0 -6 4 -11 8 -11 5 0 17 -16 28 -35 10
-19 24 -35 31 -35 20 0 24 -17 12 -47 -14 -33 -13 -85 2 -94 6 -3 10 -10 9
-15 -4 -24 13 -104 22 -104 6 0 8 -21 3 -57 -4 -32 -8 -91 -9 -132 -1 -47 -6
-76 -13 -78 -7 -3 -10 -17 -6 -41 3 -20 2 -34 -2 -30 -13 12 -35 -12 -35 -38
0 -13 -4 -24 -10 -24 -5 0 -16 -16 -26 -35 -9 -19 -21 -33 -26 -32 -6 1 -14
-11 -19 -28 -6 -22 -5 -32 6 -38 8 -4 15 -20 15 -35 0 -36 14 -56 34 -49 10 4
16 1 16 -9 0 -9 5 -12 12 -8 7 4 29 7 49 5 21 -1 40 3 44 9 3 5 14 10 24 10
10 0 26 11 35 25 9 14 21 23 27 19 6 -3 21 7 34 22 13 15 31 29 40 30 9 1 26
13 37 26 l20 23 -7 -25 c-11 -37 -11 -42 0 -46 6 -2 18 15 29 38 15 37 19 40
28 24 7 -12 7 -21 -1 -29 -15 -15 -14 -37 3 -37 8 0 17 15 21 37 6 33 3 41
-24 65 -17 15 -26 30 -21 33 13 8 3 79 -31 216 -46 186 -60 396 -38 584 5 50
14 200 19 335 11 289 17 333 64 464 20 55 36 110 36 122 0 12 6 35 14 51 8 15
20 48 27 73 7 25 33 92 57 150 98 235 118 298 134 435 13 113 19 312 8 270 -8
-29 -8 -29 -15 -7 -6 18 -10 20 -16 10 -6 -9 -9 -6 -10 12 -2 41 2 65 13 71 6
4 7 12 3 19 -6 10 -11 9 -21 -5 -12 -16 -14 -15 -27 16 l-15 34 -11 -29 c-6
-16 -9 -31 -6 -34 3 -3 5 0 5 6 0 7 5 12 10 12 21 0 9 -16 -25 -34 -38 -21
-66 -11 -49 16 5 7 14 29 19 48 6 20 21 40 34 47 14 6 28 19 33 27 5 9 14 14
20 10 6 -4 8 1 4 12 -14 49 -28 125 -31 182 -5 72 -18 102 -44 102 -13 0 -17
6 -14 23 4 24 -27 90 -42 89 -15 -1 -23 -45 -11 -64 13 -22 6 -29 -44 -38 -37
-7 -43 -5 -65 22 -26 31 -30 43 -17 51 4 2 1 2 -5 1 -7 -2 -13 1 -13 6 0 6 -7
10 -15 10 -8 0 -15 -7 -15 -15 0 -8 -7 -15 -15 -15 -8 0 -15 9 -15 20 0 11 4
20 9 20 5 0 12 7 15 16 8 20 -78 104 -96 93 -18 -11 -30 0 -23 21 3 10 2 21
-3 24 -9 5 -69 -10 -116 -30 -16 -6 -18 -4 -13 9 4 10 2 29 -4 44 -7 18 -6 30
1 37 5 5 10 19 10 29 0 16 -5 18 -30 14 -16 -4 -32 -2 -35 3 -9 15 -23 12 -34
-8z m248 -221 c17 -11 7 -61 -13 -61 -15 0 -30 45 -21 60 8 12 16 12 34 1z
m44 -73 c2 -7 0 -22 -4 -33 -4 -11 -10 -33 -14 -49 l-6 -29 -20 32 c-23 39
-24 49 -2 73 19 21 39 23 46 6z m117 -65 c14 -3 30 -11 36 -19 6 -7 32 -15 58
-16 54 -3 59 -13 54 -94 -3 -43 -6 -49 -25 -49 -33 0 -36 -10 -14 -46 25 -40
26 -65 6 -85 -8 -9 -15 -14 -16 -12 0 2 -2 19 -5 38 -6 54 -24 80 -54 80 -14
0 -32 6 -39 13 -11 10 -14 10 -18 0 -3 -7 -11 -13 -19 -13 -13 0 -20 -56 -15
-112 2 -11 -5 -18 -14 -18 -12 0 -15 6 -10 20 7 23 -6 26 -35 8 -29 -19 -48 3
-32 37 10 21 9 25 -3 25 -19 0 -19 3 4 50 13 27 17 52 14 79 -5 35 -3 39 20
45 43 10 74 -8 85 -51 10 -38 10 -38 11 -7 1 17 -10 52 -24 78 -30 56 -32 71
-7 61 9 -4 28 -10 42 -12z m-160 -147 c0 -15 -18 -31 -26 -23 -7 7 7 37 17 37
5 0 9 -6 9 -14z m180 -89 c30 -24 51 -68 48 -100 -4 -44 -31 -47 -48 -7 -10
23 -18 30 -32 27 -10 -3 -21 -1 -24 4 -3 5 2 9 10 9 18 0 20 17 7 39 -20 32 9
52 39 28z m-333 -3 c41 -11 40 -52 -2 -74 -34 -18 -67 4 -70 48 -2 29 0 32 24
32 14 0 36 -3 48 -6z m473 -67 c0 -1 -8 -26 -18 -54 -31 -88 -69 -115 -57 -40
4 24 18 54 33 70 22 23 42 35 42 24z m-310 -51 c0 -21 -11 -46 -20 -46 -9 0
-19 47 -12 55 11 10 32 5 32 -9z m-97 -22 c10 -10 -74 -86 -89 -80 -25 10 -15
35 24 60 38 25 54 30 65 20z m-108 -142 c-3 -17 -13 -33 -22 -36 -12 -5 -13
-2 -8 11 4 10 10 31 13 46 3 19 8 25 14 19 6 -6 7 -24 3 -40z m-60 -1 c-9 -16
-25 -3 -18 15 4 10 9 12 15 6 6 -6 7 -15 3 -21z m523 -23 c19 -19 14 -31 -18
-53 -16 -11 -30 -26 -30 -33 0 -7 -7 -15 -15 -18 -8 -4 -15 -17 -15 -30 0 -14
-7 -27 -15 -30 -8 -4 -15 -13 -15 -22 0 -19 -119 -142 -137 -142 -7 0 -20 11
-28 24 -9 14 -34 29 -60 36 -68 19 -74 34 -33 73 19 18 43 45 52 60 21 32 46
35 53 7 7 -25 62 -60 94 -60 22 1 23 2 7 14 -24 18 -23 23 11 41 44 22 121
102 121 125 0 23 10 26 28 8z m202 -23 c0 -8 -4 -15 -10 -15 -5 0 -7 7 -4 15
4 8 8 15 10 15 2 0 4 -7 4 -15z m-661 -79 c-9 -8 -10 -5 -5 14 3 14 7 34 7 45
1 11 4 5 6 -14 3 -19 -1 -39 -8 -45z m351 50 c0 -19 -51 -39 -64 -26 -8 8 -4
16 13 30 26 19 51 17 51 -4z m-260 -25 c0 -22 -16 -36 -24 -22 -8 12 3 41 15
41 5 0 9 -9 9 -19z m158 -3 c3 -13 -3 -18 -22 -18 -20 0 -26 5 -26 21 0 15 5
20 22 17 13 -2 24 -11 26 -20z m409 -60 c-3 -8 -6 -5 -6 6 -1 11 2 17 5 13 3
-3 4 -12 1 -19z m-507 -208 c0 -5 -7 -10 -15 -10 -8 0 -15 5 -15 10 0 6 7 10
15 10 8 0 15 -4 15 -10z m-105 -30 c-3 -5 -13 -10 -21 -10 -8 0 -12 5 -9 10 3
6 13 10 21 10 8 0 12 -4 9 -10z m225 -1875 c0 -8 -2 -15 -4 -15 -2 0 -6 7 -10
15 -3 8 -1 15 4 15 6 0 10 -7 10 -15z m33 -142 c-7 -2 -19 -2 -25 0 -7 3 -2 5
12 5 14 0 19 -2 13 -5z m7 -27 c0 -3 -4 -8 -10 -11 -5 -3 -10 -1 -10 4 0 6 5
11 10 11 6 0 10 -2 10 -4z m11 -93 c-9 -16 -10 -14 -11 12 0 21 3 26 11 18 8
-8 8 -16 0 -30z m32 -97 c-9 -14 -32 24 -26 41 5 12 9 10 19 -8 7 -13 10 -28
7 -33z m-1693 -2321 c0 -8 -4 -15 -9 -15 -13 0 -22 16 -14 24 11 11 23 6 23
-9z"/>
<path d="M6682 6190 c0 -14 2 -19 5 -12 2 6 2 18 0 25 -3 6 -5 1 -5 -13z"/>
<path d="M6539 6143 c-5 -16 -12 -34 -14 -41 -3 -8 -2 -18 1 -24 8 -13 30 20
39 60 8 40 -11 44 -26 5z"/>
<path d="M1451 6594 c0 -11 3 -14 6 -6 3 7 2 16 -1 19 -3 4 -6 -2 -5 -13z"/>
<path d="M6342 6588 c6 -18 28 -21 28 -4 0 9 -7 16 -16 16 -9 0 -14 -5 -12
-12z"/>
<path d="M2230 6530 c-14 -34 -31 -37 -74 -15 -16 9 -32 13 -35 9 -6 -6 21
-29 43 -37 7 -3 5 -10 -5 -18 -26 -22 -31 -84 -10 -108 28 -32 91 -26 91 9 0
10 6 22 13 28 16 13 17 154 1 159 -6 2 -17 -10 -24 -27z"/>
<path d="M2560 6515 c0 -17 2 -18 24 -9 23 9 20 24 -4 24 -11 0 -20 -7 -20
-15z"/>
<path d="M1180 6444 c0 -8 5 -12 10 -9 6 4 8 11 5 16 -9 14 -15 11 -15 -7z"/>
<path d="M1530 6444 c0 -8 5 -12 10 -9 6 3 10 10 10 16 0 5 -4 9 -10 9 -5 0
-10 -7 -10 -16z"/>
<path d="M1280 6430 c0 -20 -2 -22 -10 -10 -8 13 -10 12 -10 -3 0 -10 -8 -21
-17 -25 -10 -4 -18 -18 -18 -31 0 -18 -25 -46 -41 -46 -1 0 2 -24 7 -54 8 -50
31 -91 51 -91 16 0 8 29 -11 40 -16 8 -19 17 -14 48 3 20 16 46 28 57 13 11
27 31 31 45 4 14 14 30 22 36 13 10 13 14 -1 35 l-17 23 0 -24z"/>
<path d="M3980 6420 c-8 -5 -12 -11 -9 -14 2 -3 11 -1 19 4 8 5 12 11 9 14 -2
3 -11 1 -19 -4z"/>
<path d="M5693 6423 c-20 -8 -16 -63 5 -69 26 -8 55 -22 74 -36 29 -21 33 0 4
23 -14 11 -33 36 -41 55 -14 34 -19 37 -42 27z"/>
<path d="M1150 6396 c0 -23 -3 -25 -31 -19 -25 5 -31 3 -27 -8 3 -9 19 -14 44
-14 36 0 39 2 39 29 0 16 -6 31 -12 34 -8 2 -13 -6 -13 -22z"/>
<path d="M1656 6381 c-11 -30 -28 -46 -65 -68 -77 -42 -73 -51 20 -49 86 3
111 14 89 41 -10 12 -10 18 1 31 11 13 11 17 -3 25 -10 5 -14 17 -10 34 7 39
-14 29 -32 -14z"/>
<path d="M536 6381 c-8 -12 3 -41 15 -41 5 0 9 11 9 25 0 25 -14 34 -24 16z"/>
<path d="M3006 6362 c-3 -6 -1 -14 5 -17 15 -10 25 3 12 16 -7 7 -13 7 -17 1z"/>
<path d="M1481 6338 c-15 -24 -3 -41 26 -36 19 3 19 4 3 30 -16 26 -16 26 -29
6z"/>
<path d="M5970 6341 c0 -5 7 -11 15 -15 8 -3 15 -1 15 3 0 5 -7 11 -15 15 -8
3 -15 1 -15 -3z"/>
<path d="M1300 6305 c-33 -34 -36 -53 -7 -42 20 8 59 64 49 71 -5 3 -24 -10
-42 -29z"/>
<path d="M960 6290 c0 -15 5 -20 18 -18 9 2 17 10 17 18 0 8 -8 16 -17 18 -13
2 -18 -3 -18 -18z"/>
<path d="M1368 6282 c-21 -14 -38 -34 -38 -44 0 -26 7 -23 52 21 46 46 39 58
-14 23z"/>
<path d="M2116 6271 c-18 -35 -19 -41 -7 -41 11 0 36 59 28 66 -3 3 -13 -8
-21 -25z"/>
<path d="M2875 6290 c3 -5 8 -10 11 -10 2 0 4 5 4 10 0 6 -5 10 -11 10 -5 0
-7 -4 -4 -10z"/>
<path d="M2920 6270 c0 -5 7 -10 15 -10 8 0 15 5 15 10 0 6 -7 10 -15 10 -8 0
-15 -4 -15 -10z"/>
<path d="M5786 6271 c-4 -7 -5 -15 -2 -18 9 -9 19 4 14 18 -4 11 -6 11 -12 0z"/>
<path d="M5930 6194 c0 -8 5 -12 10 -9 6 3 10 10 10 16 0 5 -4 9 -10 9 -5 0
-10 -7 -10 -16z"/>
<path d="M1840 6173 c1 -16 7 -41 14 -58 12 -26 15 -28 21 -12 8 20 -13 97
-27 97 -4 0 -8 -12 -8 -27z"/>
<path d="M1435 6101 c-4 -39 -4 -75 0 -80 4 -7 22 -9 46 -5 28 5 51 1 78 -11
43 -19 76 -17 76 5 0 9 -14 18 -35 22 -72 15 -90 21 -84 29 3 5 24 9 47 9 44
0 76 13 59 24 -5 3 -37 3 -71 1 -40 -4 -68 -1 -81 7 -26 17 -26 35 1 43 17 6
19 9 8 16 -30 19 -37 8 -44 -60z"/>
<path d="M5995 6160 c3 -5 8 -10 11 -10 2 0 4 5 4 10 0 6 -5 10 -11 10 -5 0
-7 -4 -4 -10z"/>
<path d="M670 6140 c0 -11 7 -20 15 -20 17 0 18 2 9 24 -9 23 -24 20 -24 -4z"/>
<path d="M1523 6146 c19 -15 127 -19 127 -6 0 13 -30 20 -88 20 -51 -1 -55 -2
-39 -14z"/>
<path d="M3080 6150 c0 -5 5 -10 10 -10 6 0 10 5 10 10 0 6 -4 10 -10 10 -5 0
-10 -4 -10 -10z"/>
<path d="M2607 6120 c-3 -11 -1 -23 4 -26 5 -3 9 -1 9 5 0 5 3 16 6 25 3 9 2
16 -4 16 -5 0 -12 -9 -15 -20z"/>
<path d="M1740 6119 c0 -5 5 -7 10 -4 6 3 10 8 10 11 0 2 -4 4 -10 4 -5 0 -10
-5 -10 -11z"/>
<path d="M2657 6115 c3 -9 -2 -22 -12 -29 -23 -17 -13 -46 15 -46 16 0 21 5
19 23 -2 12 0 28 4 35 10 15 0 32 -18 32 -9 0 -12 -6 -8 -15z"/>
<path d="M2556 6096 c3 -8 12 -12 20 -9 21 8 17 23 -6 23 -13 0 -18 -5 -14
-14z"/>
<path d="M625 6090 c-3 -5 -1 -10 4 -10 6 0 11 5 11 10 0 6 -2 10 -4 10 -3 0
-8 -4 -11 -10z"/>
<path d="M750 6081 c0 -13 26 -32 33 -24 8 7 -11 33 -24 33 -5 0 -9 -4 -9 -9z"/>
<path d="M1810 6047 c0 -8 -9 -22 -20 -32 -11 -10 -20 -25 -20 -34 0 -9 -7
-29 -15 -45 -20 -38 -4 -58 24 -32 21 19 41 14 41 -10 0 -12 4 -12 20 -4 13 7
20 21 20 39 0 15 3 31 7 35 4 4 8 13 8 19 1 7 5 25 9 40 5 15 6 31 3 34 -9 8
-37 -23 -37 -40 0 -17 -28 -43 -37 -33 -3 3 0 18 8 33 7 16 15 31 17 36 2 4
-3 7 -12 7 -9 0 -16 -6 -16 -13z"/>
<path d="M6900 6043 c0 -4 5 -15 10 -23 8 -13 10 -13 10 2 0 9 -4 20 -10 23
-5 3 -10 3 -10 -2z"/>
<path d="M1250 6024 c-1 -71 27 -107 50 -64 9 16 8 22 -5 26 -9 4 -22 18 -30
33 -13 24 -14 24 -15 5z"/>
<path d="M1703 5995 c-9 -27 -8 -37 3 -46 12 -9 14 -4 14 35 0 25 -1 46 -3 46
-2 0 -8 -16 -14 -35z"/>
<path d="M1447 5993 c-13 -12 -7 -60 8 -73 13 -11 15 -8 15 21 0 37 -12 64
-23 52z"/>
<path d="M1562 5958 c3 -7 13 -15 22 -16 12 -3 17 1 14 10 -3 7 -13 15 -22 16
-12 3 -17 -1 -14 -10z"/>
<path d="M850 5924 c0 -43 12 -70 28 -60 7 4 6 19 -2 45 -16 55 -26 61 -26 15z"/>
<path d="M1662 5891 c-22 -31 -30 -71 -13 -71 24 0 41 14 41 34 1 19 2 19 11
4 5 -10 20 -18 32 -18 12 0 18 4 12 8 -5 4 -18 20 -27 37 -22 40 -30 41 -56 6z"/>
<path d="M6911 5906 c-7 -8 -9 -21 -5 -27 5 -9 10 -5 16 11 10 28 5 36 -11 16z"/>
<path d="M1891 5884 c0 -11 3 -14 6 -6 3 7 2 16 -1 19 -3 4 -6 -2 -5 -13z"/>
<path d="M975 5859 c-5 -24 -1 -39 20 -69 26 -37 60 -59 72 -46 9 9 -48 122
-68 134 -15 10 -19 7 -24 -19z"/>
<path d="M1574 5828 c0 -35 -4 -83 -9 -107 -6 -32 -5 -42 3 -37 8 5 12 0 12
-13 0 -10 3 -26 6 -34 3 -8 -2 -21 -10 -30 -23 -22 -20 -40 4 -32 17 5 20 2
20 -20 0 -20 -4 -26 -15 -21 -11 4 -15 -2 -15 -24 0 -24 3 -28 18 -23 9 4 27
17 40 31 15 16 28 22 40 17 9 -4 23 -9 30 -12 24 -10 12 28 -13 39 -19 8 -25
19 -25 42 -1 26 -2 28 -11 14 -10 -18 -39 -25 -40 -10 0 4 -2 26 -4 49 -2 24
1 45 5 48 5 3 6 13 3 21 -3 9 -6 48 -7 87 -1 56 -4 72 -16 75 -13 2 -16 -9
-16 -60z"/>
<path d="M2243 5853 c-26 -5 -29 -15 -10 -31 8 -7 17 -7 30 2 17 13 24 37 10
35 -5 -1 -18 -4 -30 -6z"/>
<path d="M2701 5829 c-7 -12 -7 -19 -1 -19 5 0 10 5 10 10 0 6 11 10 24 10 14
0 27 4 31 9 3 5 -8 9 -23 9 -17 -1 -34 -9 -41 -19z"/>
<path d="M6941 5834 c0 -11 3 -14 6 -6 3 7 2 16 -1 19 -3 4 -6 -2 -5 -13z"/>
<path d="M1173 5828 c-9 -10 -7 -19 6 -37 23 -30 37 -11 18 24 -11 21 -15 24
-24 13z"/>
<path d="M1070 5810 c0 -11 5 -20 10 -20 6 0 10 9 10 20 0 11 -4 20 -10 20 -5
0 -10 -9 -10 -20z"/>
<path d="M1844 5797 c0 -16 6 -23 14 -19 15 5 12 34 -4 39 -7 2 -11 -6 -10
-20z"/>
<path d="M930 5791 c10 -19 9 -25 -1 -32 -11 -7 -9 -10 9 -15 12 -4 29 -19 38
-35 16 -32 26 -36 42 -16 9 10 -2 26 -44 68 -33 32 -51 44 -44 30z"/>
<path d="M1140 5761 c0 -10 10 -25 21 -33 16 -10 24 -29 30 -68 4 -30 18 -77
30 -105 l23 -50 7 49 c7 42 4 57 -22 111 -46 97 -89 144 -89 96z"/>
<path d="M2104 5753 c-35 -38 -86 -134 -85 -163 0 -32 -19 -80 -31 -80 -7 0
-8 16 -4 40 8 49 -2 51 -33 5 -24 -35 -48 -45 -56 -22 -2 6 -9 38 -15 70 -6
31 -16 57 -21 57 -16 0 -11 -96 6 -110 8 -7 15 -19 15 -28 0 -8 7 -24 17 -34
14 -16 15 -20 1 -35 -9 -10 -21 -35 -28 -55 -11 -36 -32 -49 -45 -28 -3 6 -15
10 -26 10 -16 0 -19 8 -20 43 -2 29 -3 34 -6 15 -2 -16 -11 -28 -19 -28 -8 0
-14 -7 -14 -15 0 -8 4 -15 9 -15 5 0 14 -13 20 -30 7 -20 17 -30 30 -30 12 0
21 -4 21 -10 0 -5 -10 -10 -23 -10 -12 0 -28 -9 -35 -20 -7 -11 -19 -20 -27
-20 -20 0 -19 -26 0 -34 19 -7 20 -56 1 -56 -7 0 -25 -9 -38 -20 -28 -22 -38
-18 -38 17 0 28 -5 29 -37 3 -35 -27 -44 -25 -37 9 5 23 -1 35 -27 65 -40 42
-52 46 -39 11 22 -58 -45 -7 -113 87 -16 22 -33 35 -41 32 -21 -8 -43 21 -50
65 -7 45 -8 46 -37 31 -14 -8 -25 -7 -41 4 -13 7 -34 16 -48 19 -32 8 -80 53
-80 76 0 9 -13 30 -30 46 -28 27 -31 28 -49 11 -17 -16 -20 -16 -35 0 -9 9
-19 14 -22 11 -10 -9 19 -44 85 -103 33 -31 61 -62 61 -70 0 -15 9 -17 48 -14
12 1 22 -3 22 -9 0 -6 -5 -11 -11 -11 -5 0 -8 -4 -4 -10 3 -5 12 -7 19 -4 7 3
16 -2 19 -10 5 -11 0 -16 -13 -16 -11 0 -20 -4 -20 -10 0 -5 13 -10 29 -10 37
0 50 -19 26 -37 -11 -7 -14 -13 -9 -13 6 0 16 6 22 12 10 10 14 8 18 -10 4
-12 11 -22 16 -22 6 0 5 -6 -2 -15 -7 -8 -10 -22 -6 -31 3 -8 1 -24 -4 -34 -7
-13 -7 -21 0 -25 5 -3 10 -15 10 -25 0 -14 -5 -18 -17 -13 -11 4 -14 3 -9 -5
4 -7 4 -32 1 -56 -5 -32 -11 -43 -21 -39 -10 4 -14 -3 -14 -24 0 -16 -4 -33
-9 -39 -4 -5 -14 -31 -20 -59 -19 -76 -33 -108 -53 -128 -15 -15 -16 -22 -8
-33 9 -10 8 -24 -5 -59 -10 -25 -22 -45 -26 -45 -5 0 -9 -28 -9 -62 l0 -61
387 7 c213 3 389 9 392 12 4 3 8 64 10 135 1 71 6 129 10 129 3 0 18 -19 33
-43 25 -40 78 -97 78 -85 0 3 -11 30 -25 61 -36 78 -55 158 -55 231 0 101 10
154 36 181 17 19 22 33 18 53 -4 19 3 43 20 76 14 27 26 64 26 83 0 19 12 54
26 79 20 34 23 48 15 58 -9 11 -7 15 8 19 12 3 23 17 27 33 3 16 24 57 47 92
41 64 43 87 5 63 -22 -14 -22 -16 -2 34 10 24 -15 17 -42 -12z m-957 -295 c-3
-8 -6 -5 -6 6 -1 11 2 17 5 13 3 -3 4 -12 1 -19z m789 -144 c-5 -19 -10 -24
-17 -17 -8 8 -7 18 1 33 15 28 24 19 16 -16z m-86 -103 c0 -5 -20 -31 -45 -57
-29 -32 -45 -43 -45 -32 0 9 4 18 9 20 4 2 12 14 16 27 5 17 4 22 -5 16 -8 -5
-11 -3 -8 6 3 8 14 14 25 14 12 0 25 3 29 8 10 10 24 9 24 -2z m-500 -16 c10
-13 9 -15 -9 -15 -12 0 -21 6 -21 15 0 8 4 15 9 15 5 0 14 -7 21 -15z m550
-78 c0 -20 -69 -96 -70 -77 0 18 26 59 50 77 19 16 20 16 20 0z"/>
<path d="M1325 5729 c-10 -15 3 -25 16 -12 7 7 7 13 1 17 -6 3 -14 1 -17 -5z"/>
<path d="M1116 5705 c4 -8 8 -15 10 -15 2 0 4 7 4 15 0 8 -4 15 -10 15 -5 0
-7 -7 -4 -15z"/>
<path d="M1630 5711 c0 -5 9 -19 20 -32 22 -28 28 -6 6 24 -14 18 -26 22 -26
8z"/>
<path d="M2690 5665 c0 -19 2 -35 4 -35 2 0 11 -3 20 -6 20 -7 21 12 4 49 -18
37 -28 34 -28 -8z"/>
<path d="M1437 5650 c-7 -26 5 -32 38 -20 23 9 25 13 15 25 -18 21 -47 18 -53
-5z"/>
<path d="M1680 5656 c0 -2 7 -7 16 -10 8 -3 12 -2 9 4 -6 10 -25 14 -25 6z"/>
<path d="M1330 5620 c-11 -20 -6 -40 8 -40 4 0 13 14 19 30 9 24 9 30 -3 30
-7 0 -18 -9 -24 -20z"/>
<path d="M1792 5633 c-9 -3 -10 -9 -3 -17 6 -7 11 -45 13 -86 2 -50 7 -75 16
-78 11 -3 13 11 9 69 -6 105 -11 120 -35 112z"/>
<path d="M1146 5591 c-3 -4 3 -16 13 -25 22 -20 40 -4 21 19 -14 17 -26 19
-34 6z"/>
<path d="M5915 5570 c3 -5 8 -10 11 -10 2 0 4 5 4 10 0 6 -5 10 -11 10 -5 0
-7 -4 -4 -10z"/>
<path d="M1465 5529 c-4 -5 1 -19 10 -29 14 -15 15 -23 6 -33 -21 -26 8 -36
33 -11 11 10 16 11 16 3 0 -6 -8 -18 -17 -25 -16 -12 -15 -13 15 -14 21 0 32
-5 32 -15 0 -20 -46 -30 -77 -16 -34 15 -38 9 -18 -28 14 -29 55 -45 55 -22 0
5 10 13 23 17 12 3 34 15 49 26 25 17 27 17 36 1 8 -14 12 -10 22 23 7 22 10
51 8 64 l-4 25 -12 -28 c-11 -25 -16 -28 -42 -22 -19 4 -30 3 -30 -4 0 -6 -5
-11 -11 -11 -6 0 -9 12 -7 28 2 21 -1 27 -14 26 -11 -1 -18 5 -18 17 0 10 -9
23 -19 29 -25 13 -28 13 -36 -1z"/>
<path d="M1337 5505 c-3 -7 3 -24 14 -37 17 -18 19 -19 15 -5 -3 10 -6 27 -6
38 0 22 -15 25 -23 4z"/>
<path d="M1761 5504 c0 -11 3 -14 6 -6 3 7 2 16 -1 19 -3 4 -6 -2 -5 -13z"/>
<path d="M1689 5493 c-5 -29 5 -120 13 -128 7 -7 9 -2 4 17 -4 20 -1 30 11 37
15 8 16 13 6 30 -7 12 -13 28 -13 36 0 15 -19 22 -21 8z"/>
<path d="M2581 5454 c0 -11 3 -14 6 -6 3 7 2 16 -1 19 -3 4 -6 -2 -5 -13z"/>
<path d="M2321 5434 c-13 -15 -37 -52 -53 -83 -17 -31 -39 -65 -48 -76 -10
-11 -23 -31 -30 -45 -7 -14 -26 -42 -42 -62 l-30 -38 39 0 c38 0 40 2 57 51
10 28 47 94 82 147 59 89 77 132 56 132 -5 0 -19 -12 -31 -26z"/>
<path d="M1573 5343 c-3 -10 -8 -22 -11 -28 -3 -5 4 -1 16 9 24 20 28 36 12
36 -6 0 -13 -8 -17 -17z"/>
<path d="M2456 5324 c-16 -19 -37 -33 -45 -32 -12 2 -15 -4 -13 -21 2 -15 0
-21 -7 -17 -6 4 -11 -1 -11 -11 0 -10 -8 -26 -17 -35 -50 -46 -74 -78 -68 -87
4 -8 15 -6 33 3 33 17 52 40 74 86 9 19 40 57 67 85 28 27 51 53 51 57 0 20
-38 4 -64 -28z"/>
<path d="M5641 5324 c0 -11 3 -14 6 -6 3 7 2 16 -1 19 -3 4 -6 -2 -5 -13z"/>
<path d="M1643 5313 c-20 -7 -15 -23 7 -23 11 0 20 4 20 9 0 13 -12 19 -27 14z"/>
<path d="M4519 4237 c-1 -4 -3 -11 -4 -17 -1 -5 -3 -13 -4 -17 0 -4 -6 -2 -13
5 -7 7 -15 12 -19 12 -7 0 -20 -41 -24 -72 -2 -24 -17 -36 -22 -20 -9 24 -58
14 -81 -17 -15 -21 -18 -31 -9 -34 6 -3 3 -6 -7 -6 -25 -1 -111 -90 -119 -122
-3 -13 -15 -34 -27 -46 -11 -12 -20 -29 -20 -37 0 -8 -6 -21 -13 -28 -12 -13
-31 -74 -49 -158 -18 -84 -19 -100 -10 -100 26 0 -54 -118 -80 -120 -14 0
-114 -67 -147 -98 -40 -37 -96 -67 -144 -77 -18 -4 -46 -16 -63 -26 -17 -10
-38 -19 -46 -19 -9 0 -21 -7 -28 -15 -7 -8 -20 -15 -29 -15 -10 0 -26 -8 -37
-18 -21 -20 -50 -32 -140 -57 -53 -15 -62 -21 -73 -50 -10 -28 -9 -38 7 -67
l19 -33 -37 -38 c-20 -20 -39 -37 -42 -37 -3 0 -38 -32 -78 -70 -40 -38 -78
-70 -83 -70 -6 0 -41 -30 -78 -67 -37 -38 -92 -91 -122 -120 -55 -51 -55 -52
-34 -66 55 -36 60 -34 174 66 164 143 525 408 743 547 254 161 517 340 588
401 17 15 58 75 93 134 60 106 62 111 76 224 13 101 13 263 1 323 -4 19 -17
36 -19 25z"/>
<path d="M6745 2868 c4 -13 11 -27 16 -32 5 -6 9 -20 9 -33 0 -14 6 -23 15
-23 19 0 19 0 -11 59 -26 53 -40 67 -29 29z"/>
<path d="M6727 2833 c-11 -10 -8 -53 3 -53 6 0 10 14 10 30 0 31 -2 35 -13 23z"/>
<path d="M6750 2760 c-8 -5 -18 -6 -24 -3 -5 3 -6 1 -2 -5 4 -7 14 -12 22 -12
9 0 14 -10 14 -27 0 -21 -3 -24 -12 -15 -21 21 -31 13 -23 -20 5 -18 8 -71 8
-116 0 -75 1 -83 17 -79 13 3 16 0 13 -14 -3 -11 0 -19 6 -19 6 0 11 -7 11
-15 0 -8 3 -15 8 -15 4 0 6 -19 4 -42 -4 -42 -27 -82 -42 -73 -4 3 -10 -5 -14
-18 -9 -33 -8 -37 10 -37 13 0 14 -6 8 -32 -4 -18 -7 -44 -7 -57 1 -18 -1 -20
-8 -10 -7 11 -9 11 -9 -3 0 -9 -7 -21 -14 -25 -12 -6 -13 -17 -7 -48 18 -83
22 -131 10 -115 -8 12 -9 10 -4 -10 17 -58 12 -112 -12 -138 -13 -14 -23 -36
-23 -50 0 -14 -6 -33 -14 -41 -34 -38 -38 -285 -7 -351 14 -30 13 -154 -2
-183 -12 -22 -14 -74 -11 -273 3 -163 8 -252 16 -267 6 -12 11 -23 9 -25 -1
-1 6 -16 14 -32 9 -17 13 -40 9 -54 -6 -23 -5 -24 43 -15 74 14 73 12 73 81 0
35 7 122 14 193 8 72 22 200 31 285 15 151 34 332 55 515 15 132 40 499 40
591 0 166 -31 344 -76 438 -13 28 -24 57 -24 67 0 9 -7 19 -15 23 -8 3 -15 15
-15 26 0 11 -7 20 -15 20 -14 0 -14 -3 -1 -22 16 -26 20 -88 5 -88 -5 0 -10 5
-10 10 -1 6 -2 14 -3 19 0 5 -4 13 -8 17 -5 4 -8 20 -8 35 0 32 -10 41 -30 29z
m11 -103 c-13 -13 -26 -3 -16 12 3 6 11 8 17 5 6 -4 6 -10 -1 -17z"/>
<path d="M2735 2440 c-13 -21 8 -32 52 -27 49 5 58 10 48 26 -8 14 -92 14
-100 1z"/>
<path d="M2486 2105 c-8 -8 -19 -15 -25 -15 -6 0 -11 -4 -11 -9 0 -5 -11 -12
-25 -15 -14 -4 -25 -11 -25 -16 0 -6 -7 -10 -15 -10 -8 0 -15 -4 -15 -9 0 -5
-10 -11 -23 -15 -12 -3 -32 -14 -43 -24 -11 -11 -30 -23 -42 -26 -12 -4 -22
-12 -22 -17 0 -5 -7 -9 -15 -9 -8 0 -15 -4 -15 -9 0 -5 -11 -12 -25 -15 -14
-4 -25 -11 -25 -16 0 -6 -7 -10 -15 -10 -21 0 -19 -24 5 -45 25 -22 112 -22
146 0 12 8 44 47 70 87 27 40 73 99 103 131 30 31 49 57 43 57 -6 0 -17 -7
-26 -15z"/>
<path d="M2547 1894 c-9 -10 2 -24 19 -24 8 0 14 7 14 15 0 15 -21 21 -33 9z"/>
<path d="M2050 1832 c0 -12 19 -26 26 -19 2 2 -2 10 -11 17 -9 8 -15 8 -15 2z"/>
<path d="M1839 1678 c-7 -38 -8 -93 0 -128 l9 -45 1 46 c1 26 8 62 16 82 8 19
11 37 8 41 -6 6 -32 9 -34 4z"/>
<path d="M2020 1671 c-43 -6 -45 -7 -53 -51 -5 -24 -17 -54 -26 -66 -13 -17
-16 -33 -12 -66 6 -40 8 -43 37 -44 29 -1 36 5 80 78 26 44 61 91 78 105 29
24 29 26 11 39 -19 14 -38 15 -115 5z"/>
<path d="M1730 1631 c0 -5 -11 -12 -25 -15 -14 -4 -25 -11 -25 -16 0 -6 -7
-10 -15 -10 -8 0 -15 -4 -15 -9 0 -5 -8 -12 -17 -15 -52 -20 -60 -29 -58 -65
2 -20 4 -36 5 -36 1 0 4 -31 6 -70 3 -38 7 -81 10 -95 3 -14 6 -43 8 -65 1
-22 7 -58 13 -80 7 -22 17 -61 24 -88 6 -26 16 -50 20 -53 5 -3 9 -13 9 -23 0
-10 9 -26 20 -36 11 -10 29 -43 41 -74 11 -31 24 -58 27 -61 12 -9 32 -49 32
-65 0 -8 4 -15 9 -15 4 0 18 -23 29 -51 12 -28 25 -48 29 -46 13 8 44 -19 41
-34 -2 -9 5 -13 17 -12 11 1 14 0 8 -3 -7 -3 -13 -13 -13 -21 0 -11 7 -14 25
-9 14 4 45 9 70 13 25 3 47 9 49 12 2 3 -2 42 -10 86 -7 44 -20 219 -29 390
-9 171 -18 320 -21 333 -4 22 -7 23 -89 18 -83 -4 -85 -4 -104 22 -25 35 -41
96 -41 155 0 35 -4 47 -15 47 -8 0 -15 -4 -15 -9z"/>
<path d="M1850 1468 c0 -9 5 -20 11 -23 17 -11 18 -2 3 19 -12 17 -14 17 -14
4z"/>
<path d="M1959 487 c-47 -25 -61 -56 -37 -84 11 -15 10 -16 -10 -11 -18 5 -22
3 -20 -10 4 -24 50 -27 90 -6 57 28 88 64 88 101 0 31 -2 33 -33 33 -19 0 -54
-10 -78 -23z"/>
<path d="M4162 450 c-19 -10 -29 -21 -23 -25 11 -6 60 24 61 38 0 4 -1 6 -2 6
-2 -1 -18 -9 -36 -19z"/>
<path d="M2088 370 c-10 -18 -43 -40 -96 -66 -45 -21 -82 -44 -82 -51 0 -6
-11 -25 -25 -41 -14 -17 -25 -36 -25 -43 0 -7 -6 -20 -13 -28 -13 -16 -37 -87
-37 -111 0 -7 21 7 46 31 82 78 85 80 112 77 20 -2 28 -9 30 -28 2 -13 10 -33
18 -44 7 -11 11 -30 8 -43 -6 -22 -4 -23 62 -23 l69 0 23 55 c16 41 22 76 22
131 0 78 -7 95 -80 190 l-16 22 -16 -28z m-84 -132 c-9 -30 -9 -31 -32 -24
-29 10 -17 46 15 46 21 0 23 -3 17 -22z m-84 -68 c0 -5 -4 -10 -10 -10 -5 0
-10 5 -10 10 0 6 5 10 10 10 6 0 10 -4 10 -10z m220 -56 c0 -8 -5 -12 -10 -9
-6 4 -8 11 -5 16 9 14 15 11 15 -7z"/>
<path d="M5150 330 c0 -19 32 -44 43 -33 9 8 -10 40 -28 47 -10 4 -15 -1 -15
-14z"/>
<path d="M5126 294 c-8 -22 -4 -25 11 -9 7 8 9 16 4 19 -5 3 -12 -1 -15 -10z"/>
<path d="M4916 175 c-3 -8 -1 -15 4 -15 6 0 10 7 10 15 0 8 -2 15 -4 15 -2 0
-6 -7 -10 -15z"/>
<path d="M6160 80 c0 -30 -9 -44 -32 -53 -38 -14 -15 -25 51 -26 55 -1 70 2
75 15 8 22 -1 31 -16 16 -18 -18 -46 -14 -58 8 -6 11 -9 24 -6 28 3 4 1 14 -5
22 -7 12 -9 9 -9 -10z"/>
<path d="M5251 44 c-13 -13 -27 -21 -31 -19 -4 3 -13 -2 -20 -10 -11 -13 -5
-15 44 -15 l57 0 -3 32 c-4 39 -16 42 -47 12z"/>
</g>
</svg>
