<svg width="129" height="53" viewBox="0 0 129 53" fill="none" xmlns="http://www.w3.org/2000/svg">
<rect width="129" height="53" fill="#E5E5E5"/>
<g filter="url(#filter0_d_0_1)">
<rect x="4" width="121" height="45" fill="#C4FFF1"/>
</g>
<path d="M17.358 31H15.5114L20.8523 16.4545H22.6705L28.0114 31H26.1648L21.8182 18.7557H21.7045L17.358 31ZM18.0398 25.3182H25.483V26.8807H18.0398V25.3182ZM38.2315 20.0909C38.1463 19.3712 37.8007 18.8125 37.1946 18.4148C36.5885 18.017 35.8452 17.8182 34.9645 17.8182C34.3205 17.8182 33.7571 17.9223 33.2741 18.1307C32.7959 18.339 32.4219 18.6255 32.152 18.9901C31.8868 19.3546 31.7543 19.7689 31.7543 20.233C31.7543 20.6212 31.8466 20.955 32.0312 21.2344C32.2206 21.509 32.4621 21.7386 32.7557 21.9233C33.0492 22.1032 33.357 22.2524 33.679 22.3707C34.0009 22.4844 34.2969 22.5767 34.5668 22.6477L36.044 23.0455C36.4228 23.1449 36.8442 23.2822 37.3082 23.4574C37.777 23.6326 38.2244 23.8717 38.6506 24.1747C39.0814 24.473 39.4366 24.8565 39.7159 25.3253C39.9953 25.794 40.1349 26.3693 40.1349 27.0511C40.1349 27.8371 39.929 28.5473 39.517 29.1818C39.1098 29.8163 38.5133 30.3205 37.7273 30.6946C36.946 31.0687 35.9967 31.2557 34.8793 31.2557C33.8376 31.2557 32.9356 31.0876 32.1733 30.7514C31.4157 30.4152 30.8191 29.9465 30.3835 29.3452C29.9527 28.7438 29.7088 28.0455 29.652 27.25H31.4702C31.5175 27.7992 31.7022 28.2538 32.0241 28.6136C32.3509 28.9687 32.7628 29.2339 33.2599 29.4091C33.7618 29.5795 34.3016 29.6648 34.8793 29.6648C35.5516 29.6648 36.1553 29.5559 36.6903 29.3381C37.2254 29.1155 37.6491 28.8078 37.9616 28.4148C38.2741 28.017 38.4304 27.553 38.4304 27.0227C38.4304 26.5398 38.2955 26.1468 38.0256 25.8438C37.7557 25.5407 37.4006 25.2945 36.9602 25.1051C36.5199 24.9157 36.044 24.75 35.5327 24.608L33.7429 24.0966C32.6065 23.7699 31.7069 23.3035 31.044 22.6974C30.3812 22.0914 30.0497 21.2983 30.0497 20.3182C30.0497 19.5038 30.2699 18.7936 30.7102 18.1875C31.1553 17.5767 31.7519 17.1032 32.5 16.767C33.2528 16.4261 34.0933 16.2557 35.0213 16.2557C35.9588 16.2557 36.7921 16.4238 37.5213 16.7599C38.2505 17.0914 38.8281 17.5459 39.2543 18.1236C39.6851 18.7012 39.9124 19.357 39.9361 20.0909H38.2315ZM50.4173 16.4545V31H48.6559V16.4545H50.4173ZM65.483 16.4545V31H63.7784L55.8523 19.5795H55.7102V31H53.9489V16.4545H55.6534L63.608 27.9034H63.75V16.4545H65.483ZM69.604 16.4545L73.9222 28.6989H74.0927L78.4109 16.4545H80.2575L74.9165 31H73.0984L67.7575 16.4545H69.604ZM82.5231 31V16.4545H91.3015V18.017H84.2844V22.9318H90.8469V24.4943H84.2844V29.4375H91.4151V31H82.5231ZM102.431 20.0909C102.346 19.3712 102 18.8125 101.394 18.4148C100.788 18.017 100.044 17.8182 99.1637 17.8182C98.5198 17.8182 97.9563 17.9223 97.4734 18.1307C96.9951 18.339 96.6211 18.6255 96.3512 18.9901C96.0861 19.3546 95.9535 19.7689 95.9535 20.233C95.9535 20.6212 96.0458 20.955 96.2305 21.2344C96.4199 21.509 96.6613 21.7386 96.9549 21.9233C97.2485 22.1032 97.5562 22.2524 97.8782 22.3707C98.2002 22.4844 98.4961 22.5767 98.766 22.6477L100.243 23.0455C100.622 23.1449 101.043 23.2822 101.507 23.4574C101.976 23.6326 102.424 23.8717 102.85 24.1747C103.281 24.473 103.636 24.8565 103.915 25.3253C104.194 25.794 104.334 26.3693 104.334 27.0511C104.334 27.8371 104.128 28.5473 103.716 29.1818C103.309 29.8163 102.712 30.3205 101.926 30.6946C101.145 31.0687 100.196 31.2557 99.0785 31.2557C98.0368 31.2557 97.1348 31.0876 96.3725 30.7514C95.6149 30.4152 95.0183 29.9465 94.5827 29.3452C94.1519 28.7438 93.908 28.0455 93.8512 27.25H95.6694C95.7167 27.7992 95.9014 28.2538 96.2234 28.6136C96.5501 28.9687 96.962 29.2339 97.4592 29.4091C97.9611 29.5795 98.5008 29.6648 99.0785 29.6648C99.7508 29.6648 100.355 29.5559 100.89 29.3381C101.425 29.1155 101.848 28.8078 102.161 28.4148C102.473 28.017 102.63 27.553 102.63 27.0227C102.63 26.5398 102.495 26.1468 102.225 25.8438C101.955 25.5407 101.6 25.2945 101.159 25.1051C100.719 24.9157 100.243 24.75 99.7319 24.608L97.9421 24.0966C96.8058 23.7699 95.9061 23.3035 95.2433 22.6974C94.5804 22.0914 94.2489 21.2983 94.2489 20.3182C94.2489 19.5038 94.4691 18.7936 94.9094 18.1875C95.3545 17.5767 95.9511 17.1032 96.6992 16.767C97.4521 16.4261 98.2925 16.2557 99.2205 16.2557C100.158 16.2557 100.991 16.4238 101.721 16.7599C102.45 17.0914 103.027 17.5459 103.453 18.1236C103.884 18.7012 104.112 19.357 104.135 20.0909H102.431ZM106.435 18.017V16.4545H117.344V18.017H112.77V31H111.009V18.017H106.435Z" fill="black"/>
<defs>
<filter id="filter0_d_0_1" x="0" y="0" width="129" height="53" filterUnits="userSpaceOnUse" color-interpolation-filters="sRGB">
<feFlood flood-opacity="0" result="BackgroundImageFix"/>
<feColorMatrix in="SourceAlpha" type="matrix" values="0 0 0 0 0 0 0 0 0 0 0 0 0 0 0 0 0 0 127 0" result="hardAlpha"/>
<feOffset dy="4"/>
<feGaussianBlur stdDeviation="2"/>
<feComposite in2="hardAlpha" operator="out"/>
<feColorMatrix type="matrix" values="0 0 0 0 0 0 0 0 0 0 0 0 0 0 0 0 0 0 0.25 0"/>
<feBlend mode="normal" in2="BackgroundImageFix" result="effect1_dropShadow_0_1"/>
<feBlend mode="normal" in="SourceGraphic" in2="effect1_dropShadow_0_1" result="shape"/>
</filter>
</defs>
</svg>
